G04 MADE WITH FRITZING*
G04 WWW.FRITZING.ORG*
G04 DOUBLE SIDED*
G04 HOLES PLATED*
G04 CONTOUR ON CENTER OF CONTOUR VECTOR*
%ASAXBY*%
%FSLAX23Y23*%
%MOIN*%
%OFA0B0*%
%SFA1.0B1.0*%
%ADD10C,0.075000*%
%ADD11C,0.065278*%
%ADD12C,0.078000*%
%ADD13C,0.024000*%
%ADD14C,0.048000*%
%LNCOPPER0*%
G90*
G70*
G54D10*
X130Y1982D03*
X954Y1808D03*
X1986Y1880D03*
X2503Y1647D03*
G54D11*
X2101Y103D03*
X2201Y103D03*
X2301Y103D03*
X2401Y103D03*
X2501Y103D03*
X1641Y2003D03*
X1541Y2003D03*
X1441Y2003D03*
X1341Y2003D03*
X1241Y2003D03*
X1141Y2003D03*
X1041Y2003D03*
X941Y2003D03*
X841Y2003D03*
X741Y2003D03*
X2501Y2003D03*
X2401Y2003D03*
X2301Y2003D03*
X2201Y2003D03*
X2101Y2003D03*
X2001Y2003D03*
X1901Y2003D03*
X1801Y2003D03*
X1201Y103D03*
X1101Y103D03*
X1301Y103D03*
X1401Y103D03*
X1501Y103D03*
X1601Y103D03*
X1701Y103D03*
X1801Y103D03*
X2001Y103D03*
G54D12*
X2401Y1805D03*
X2401Y1705D03*
X2401Y1605D03*
X2401Y1505D03*
X1901Y1805D03*
X1801Y1805D03*
X1701Y1805D03*
X1601Y1805D03*
X741Y1508D03*
X741Y1607D03*
X741Y1705D03*
X741Y1803D03*
G54D13*
X1801Y1983D02*
X1801Y1824D01*
D02*
X1901Y1983D02*
X1901Y1824D01*
G54D14*
D02*
X1502Y1503D02*
X2382Y1505D01*
D02*
X1501Y124D02*
X1502Y1503D01*
D02*
X1701Y1503D02*
X1701Y1786D01*
D02*
X2382Y1505D02*
X1701Y1503D01*
D02*
X1501Y124D02*
X1502Y1503D01*
D02*
X1502Y1503D02*
X760Y1508D01*
G54D13*
D02*
X841Y1705D02*
X760Y1705D01*
D02*
X841Y1983D02*
X841Y1705D01*
D02*
X741Y1822D02*
X741Y1983D01*
G54D14*
D02*
X1001Y1605D02*
X1039Y1983D01*
D02*
X760Y1606D02*
X1001Y1605D01*
D02*
X2382Y1605D02*
X2100Y1605D01*
D02*
X2100Y1605D02*
X2016Y1833D01*
D02*
X501Y1605D02*
X722Y1606D01*
D02*
X153Y1939D02*
X501Y1605D01*
D02*
X1302Y1804D02*
X1001Y1605D01*
D02*
X1582Y1805D02*
X1302Y1804D01*
D02*
X2503Y1605D02*
X2503Y1569D01*
D02*
X2420Y1605D02*
X2503Y1605D01*
G54D13*
D02*
X2503Y1804D02*
X2420Y1805D01*
D02*
X2502Y1983D02*
X2503Y1804D01*
D02*
X2303Y1703D02*
X2382Y1704D01*
D02*
X2303Y1903D02*
X2303Y1703D01*
D02*
X2401Y1983D02*
X2401Y1903D01*
D02*
X2401Y1903D02*
X2303Y1903D01*
G36*
X74Y2061D02*
X74Y2059D01*
X68Y2059D01*
X68Y2057D01*
X66Y2057D01*
X66Y2055D01*
X62Y2055D01*
X62Y2053D01*
X60Y2053D01*
X60Y2051D01*
X58Y2051D01*
X58Y2049D01*
X56Y2049D01*
X56Y2045D01*
X54Y2045D01*
X54Y2043D01*
X52Y2043D01*
X52Y2037D01*
X50Y2037D01*
X50Y1449D01*
X730Y1449D01*
X730Y1451D01*
X722Y1451D01*
X722Y1453D01*
X718Y1453D01*
X718Y1455D01*
X714Y1455D01*
X714Y1457D01*
X710Y1457D01*
X710Y1459D01*
X708Y1459D01*
X708Y1461D01*
X704Y1461D01*
X704Y1463D01*
X702Y1463D01*
X702Y1465D01*
X700Y1465D01*
X700Y1467D01*
X698Y1467D01*
X698Y1469D01*
X696Y1469D01*
X696Y1471D01*
X694Y1471D01*
X694Y1475D01*
X692Y1475D01*
X692Y1477D01*
X690Y1477D01*
X690Y1481D01*
X688Y1481D01*
X688Y1485D01*
X686Y1485D01*
X686Y1491D01*
X684Y1491D01*
X684Y1501D01*
X682Y1501D01*
X682Y1515D01*
X684Y1515D01*
X684Y1525D01*
X686Y1525D01*
X686Y1531D01*
X688Y1531D01*
X688Y1535D01*
X690Y1535D01*
X690Y1539D01*
X692Y1539D01*
X692Y1541D01*
X694Y1541D01*
X694Y1543D01*
X696Y1543D01*
X696Y1547D01*
X698Y1547D01*
X698Y1567D01*
X696Y1567D01*
X696Y1571D01*
X694Y1571D01*
X694Y1573D01*
X692Y1573D01*
X692Y1575D01*
X690Y1575D01*
X690Y1579D01*
X688Y1579D01*
X688Y1583D01*
X686Y1583D01*
X686Y1589D01*
X684Y1589D01*
X684Y1599D01*
X682Y1599D01*
X682Y1613D01*
X684Y1613D01*
X684Y1623D01*
X686Y1623D01*
X686Y1629D01*
X688Y1629D01*
X688Y1633D01*
X690Y1633D01*
X690Y1637D01*
X692Y1637D01*
X692Y1639D01*
X694Y1639D01*
X694Y1643D01*
X696Y1643D01*
X696Y1645D01*
X698Y1645D01*
X698Y1667D01*
X696Y1667D01*
X696Y1669D01*
X694Y1669D01*
X694Y1671D01*
X692Y1671D01*
X692Y1675D01*
X690Y1675D01*
X690Y1677D01*
X688Y1677D01*
X688Y1681D01*
X686Y1681D01*
X686Y1687D01*
X684Y1687D01*
X684Y1697D01*
X682Y1697D01*
X682Y1711D01*
X684Y1711D01*
X684Y1721D01*
X686Y1721D01*
X686Y1727D01*
X688Y1727D01*
X688Y1731D01*
X690Y1731D01*
X690Y1735D01*
X692Y1735D01*
X692Y1737D01*
X694Y1737D01*
X694Y1741D01*
X696Y1741D01*
X696Y1743D01*
X698Y1743D01*
X698Y1765D01*
X696Y1765D01*
X696Y1767D01*
X694Y1767D01*
X694Y1769D01*
X692Y1769D01*
X692Y1773D01*
X690Y1773D01*
X690Y1775D01*
X688Y1775D01*
X688Y1781D01*
X686Y1781D01*
X686Y1785D01*
X684Y1785D01*
X684Y1795D01*
X682Y1795D01*
X682Y1811D01*
X684Y1811D01*
X684Y1819D01*
X686Y1819D01*
X686Y1825D01*
X688Y1825D01*
X688Y1829D01*
X690Y1829D01*
X690Y1833D01*
X692Y1833D01*
X692Y1837D01*
X694Y1837D01*
X694Y1839D01*
X696Y1839D01*
X696Y1841D01*
X698Y1841D01*
X698Y1843D01*
X700Y1843D01*
X700Y1845D01*
X702Y1845D01*
X702Y1847D01*
X704Y1847D01*
X704Y1849D01*
X706Y1849D01*
X706Y1851D01*
X708Y1851D01*
X708Y1853D01*
X710Y1853D01*
X710Y1961D01*
X708Y1961D01*
X708Y1963D01*
X706Y1963D01*
X706Y1965D01*
X704Y1965D01*
X704Y1967D01*
X702Y1967D01*
X702Y1969D01*
X700Y1969D01*
X700Y1973D01*
X698Y1973D01*
X698Y1975D01*
X696Y1975D01*
X696Y1979D01*
X694Y1979D01*
X694Y1983D01*
X692Y1983D01*
X692Y1989D01*
X690Y1989D01*
X690Y1999D01*
X688Y1999D01*
X688Y2007D01*
X690Y2007D01*
X690Y2017D01*
X692Y2017D01*
X692Y2023D01*
X694Y2023D01*
X694Y2027D01*
X696Y2027D01*
X696Y2031D01*
X698Y2031D01*
X698Y2033D01*
X700Y2033D01*
X700Y2037D01*
X702Y2037D01*
X702Y2039D01*
X704Y2039D01*
X704Y2041D01*
X706Y2041D01*
X706Y2061D01*
X74Y2061D01*
G37*
D02*
G36*
X778Y1463D02*
X778Y1461D01*
X776Y1461D01*
X776Y1459D01*
X772Y1459D01*
X772Y1457D01*
X770Y1457D01*
X770Y1455D01*
X766Y1455D01*
X766Y1453D01*
X760Y1453D01*
X760Y1451D01*
X754Y1451D01*
X754Y1449D01*
X1458Y1449D01*
X1458Y1459D01*
X1326Y1459D01*
X1326Y1461D01*
X1008Y1461D01*
X1008Y1463D01*
X778Y1463D01*
G37*
D02*
G36*
X50Y1449D02*
X50Y1447D01*
X1458Y1447D01*
X1458Y1449D01*
X50Y1449D01*
G37*
D02*
G36*
X50Y1449D02*
X50Y1447D01*
X1458Y1447D01*
X1458Y1449D01*
X50Y1449D01*
G37*
D02*
G36*
X50Y1447D02*
X50Y155D01*
X1414Y155D01*
X1414Y153D01*
X1420Y153D01*
X1420Y151D01*
X1424Y151D01*
X1424Y149D01*
X1428Y149D01*
X1428Y147D01*
X1432Y147D01*
X1432Y145D01*
X1434Y145D01*
X1434Y143D01*
X1436Y143D01*
X1436Y141D01*
X1438Y141D01*
X1438Y139D01*
X1458Y139D01*
X1458Y1447D01*
X50Y1447D01*
G37*
D02*
G36*
X50Y155D02*
X50Y71D01*
X52Y71D01*
X52Y67D01*
X54Y67D01*
X54Y63D01*
X56Y63D01*
X56Y61D01*
X58Y61D01*
X58Y59D01*
X60Y59D01*
X60Y57D01*
X62Y57D01*
X62Y55D01*
X64Y55D01*
X64Y53D01*
X68Y53D01*
X68Y51D01*
X72Y51D01*
X72Y49D01*
X78Y49D01*
X78Y47D01*
X1064Y47D01*
X1064Y67D01*
X1062Y67D01*
X1062Y69D01*
X1060Y69D01*
X1060Y73D01*
X1058Y73D01*
X1058Y75D01*
X1056Y75D01*
X1056Y79D01*
X1054Y79D01*
X1054Y83D01*
X1052Y83D01*
X1052Y89D01*
X1050Y89D01*
X1050Y99D01*
X1048Y99D01*
X1048Y107D01*
X1050Y107D01*
X1050Y117D01*
X1052Y117D01*
X1052Y123D01*
X1054Y123D01*
X1054Y127D01*
X1056Y127D01*
X1056Y131D01*
X1058Y131D01*
X1058Y133D01*
X1060Y133D01*
X1060Y137D01*
X1062Y137D01*
X1062Y139D01*
X1064Y139D01*
X1064Y141D01*
X1066Y141D01*
X1066Y143D01*
X1068Y143D01*
X1068Y145D01*
X1072Y145D01*
X1072Y147D01*
X1074Y147D01*
X1074Y149D01*
X1078Y149D01*
X1078Y151D01*
X1082Y151D01*
X1082Y153D01*
X1090Y153D01*
X1090Y155D01*
X50Y155D01*
G37*
D02*
G36*
X1114Y155D02*
X1114Y153D01*
X1120Y153D01*
X1120Y151D01*
X1124Y151D01*
X1124Y149D01*
X1128Y149D01*
X1128Y147D01*
X1132Y147D01*
X1132Y145D01*
X1134Y145D01*
X1134Y143D01*
X1136Y143D01*
X1136Y141D01*
X1138Y141D01*
X1138Y139D01*
X1140Y139D01*
X1140Y137D01*
X1162Y137D01*
X1162Y139D01*
X1164Y139D01*
X1164Y141D01*
X1166Y141D01*
X1166Y143D01*
X1168Y143D01*
X1168Y145D01*
X1172Y145D01*
X1172Y147D01*
X1174Y147D01*
X1174Y149D01*
X1178Y149D01*
X1178Y151D01*
X1182Y151D01*
X1182Y153D01*
X1190Y153D01*
X1190Y155D01*
X1114Y155D01*
G37*
D02*
G36*
X1214Y155D02*
X1214Y153D01*
X1220Y153D01*
X1220Y151D01*
X1224Y151D01*
X1224Y149D01*
X1228Y149D01*
X1228Y147D01*
X1232Y147D01*
X1232Y145D01*
X1234Y145D01*
X1234Y143D01*
X1236Y143D01*
X1236Y141D01*
X1238Y141D01*
X1238Y139D01*
X1240Y139D01*
X1240Y137D01*
X1262Y137D01*
X1262Y139D01*
X1264Y139D01*
X1264Y141D01*
X1266Y141D01*
X1266Y143D01*
X1268Y143D01*
X1268Y145D01*
X1272Y145D01*
X1272Y147D01*
X1274Y147D01*
X1274Y149D01*
X1278Y149D01*
X1278Y151D01*
X1282Y151D01*
X1282Y153D01*
X1290Y153D01*
X1290Y155D01*
X1214Y155D01*
G37*
D02*
G36*
X1314Y155D02*
X1314Y153D01*
X1320Y153D01*
X1320Y151D01*
X1324Y151D01*
X1324Y149D01*
X1328Y149D01*
X1328Y147D01*
X1332Y147D01*
X1332Y145D01*
X1334Y145D01*
X1334Y143D01*
X1336Y143D01*
X1336Y141D01*
X1338Y141D01*
X1338Y139D01*
X1340Y139D01*
X1340Y137D01*
X1362Y137D01*
X1362Y139D01*
X1364Y139D01*
X1364Y141D01*
X1366Y141D01*
X1366Y143D01*
X1368Y143D01*
X1368Y145D01*
X1372Y145D01*
X1372Y147D01*
X1374Y147D01*
X1374Y149D01*
X1378Y149D01*
X1378Y151D01*
X1382Y151D01*
X1382Y153D01*
X1390Y153D01*
X1390Y155D01*
X1314Y155D01*
G37*
D02*
G36*
X780Y1969D02*
X780Y1967D01*
X778Y1967D01*
X778Y1965D01*
X776Y1965D01*
X776Y1963D01*
X774Y1963D01*
X774Y1851D01*
X776Y1851D01*
X776Y1849D01*
X778Y1849D01*
X778Y1847D01*
X782Y1847D01*
X782Y1845D01*
X784Y1845D01*
X784Y1843D01*
X786Y1843D01*
X786Y1839D01*
X788Y1839D01*
X788Y1837D01*
X790Y1837D01*
X790Y1835D01*
X810Y1835D01*
X810Y1961D01*
X808Y1961D01*
X808Y1963D01*
X806Y1963D01*
X806Y1965D01*
X804Y1965D01*
X804Y1967D01*
X802Y1967D01*
X802Y1969D01*
X780Y1969D01*
G37*
D02*
G36*
X1676Y2061D02*
X1676Y2041D01*
X1678Y2041D01*
X1678Y2039D01*
X1680Y2039D01*
X1680Y2037D01*
X1682Y2037D01*
X1682Y2035D01*
X1684Y2035D01*
X1684Y2033D01*
X1686Y2033D01*
X1686Y2029D01*
X1688Y2029D01*
X1688Y2025D01*
X1690Y2025D01*
X1690Y2021D01*
X1692Y2021D01*
X1692Y2013D01*
X1694Y2013D01*
X1694Y1993D01*
X1692Y1993D01*
X1692Y1985D01*
X1690Y1985D01*
X1690Y1981D01*
X1688Y1981D01*
X1688Y1977D01*
X1686Y1977D01*
X1686Y1973D01*
X1684Y1973D01*
X1684Y1971D01*
X1682Y1971D01*
X1682Y1969D01*
X1680Y1969D01*
X1680Y1967D01*
X1678Y1967D01*
X1678Y1965D01*
X1676Y1965D01*
X1676Y1963D01*
X1674Y1963D01*
X1674Y1961D01*
X1672Y1961D01*
X1672Y1959D01*
X1668Y1959D01*
X1668Y1957D01*
X1664Y1957D01*
X1664Y1955D01*
X1660Y1955D01*
X1660Y1953D01*
X1654Y1953D01*
X1654Y1951D01*
X1770Y1951D01*
X1770Y1961D01*
X1768Y1961D01*
X1768Y1963D01*
X1766Y1963D01*
X1766Y1965D01*
X1764Y1965D01*
X1764Y1967D01*
X1762Y1967D01*
X1762Y1969D01*
X1760Y1969D01*
X1760Y1973D01*
X1758Y1973D01*
X1758Y1975D01*
X1756Y1975D01*
X1756Y1979D01*
X1754Y1979D01*
X1754Y1983D01*
X1752Y1983D01*
X1752Y1989D01*
X1750Y1989D01*
X1750Y1999D01*
X1748Y1999D01*
X1748Y2007D01*
X1750Y2007D01*
X1750Y2017D01*
X1752Y2017D01*
X1752Y2023D01*
X1754Y2023D01*
X1754Y2027D01*
X1756Y2027D01*
X1756Y2031D01*
X1758Y2031D01*
X1758Y2033D01*
X1760Y2033D01*
X1760Y2037D01*
X1762Y2037D01*
X1762Y2039D01*
X1764Y2039D01*
X1764Y2041D01*
X1766Y2041D01*
X1766Y2061D01*
X1676Y2061D01*
G37*
D02*
G36*
X880Y1969D02*
X880Y1967D01*
X878Y1967D01*
X878Y1965D01*
X876Y1965D01*
X876Y1963D01*
X874Y1963D01*
X874Y1951D01*
X928Y1951D01*
X928Y1953D01*
X922Y1953D01*
X922Y1955D01*
X918Y1955D01*
X918Y1957D01*
X914Y1957D01*
X914Y1959D01*
X912Y1959D01*
X912Y1961D01*
X908Y1961D01*
X908Y1963D01*
X906Y1963D01*
X906Y1965D01*
X904Y1965D01*
X904Y1967D01*
X902Y1967D01*
X902Y1969D01*
X880Y1969D01*
G37*
D02*
G36*
X980Y1969D02*
X980Y1967D01*
X978Y1967D01*
X978Y1965D01*
X976Y1965D01*
X976Y1963D01*
X974Y1963D01*
X974Y1961D01*
X972Y1961D01*
X972Y1959D01*
X968Y1959D01*
X968Y1957D01*
X964Y1957D01*
X964Y1955D01*
X960Y1955D01*
X960Y1953D01*
X954Y1953D01*
X954Y1951D01*
X1028Y1951D01*
X1028Y1953D01*
X1022Y1953D01*
X1022Y1955D01*
X1018Y1955D01*
X1018Y1957D01*
X1014Y1957D01*
X1014Y1959D01*
X1012Y1959D01*
X1012Y1961D01*
X1008Y1961D01*
X1008Y1963D01*
X1006Y1963D01*
X1006Y1965D01*
X1004Y1965D01*
X1004Y1967D01*
X1002Y1967D01*
X1002Y1969D01*
X980Y1969D01*
G37*
D02*
G36*
X1080Y1969D02*
X1080Y1967D01*
X1078Y1967D01*
X1078Y1965D01*
X1076Y1965D01*
X1076Y1963D01*
X1074Y1963D01*
X1074Y1961D01*
X1072Y1961D01*
X1072Y1959D01*
X1068Y1959D01*
X1068Y1957D01*
X1064Y1957D01*
X1064Y1955D01*
X1060Y1955D01*
X1060Y1953D01*
X1054Y1953D01*
X1054Y1951D01*
X1128Y1951D01*
X1128Y1953D01*
X1122Y1953D01*
X1122Y1955D01*
X1118Y1955D01*
X1118Y1957D01*
X1114Y1957D01*
X1114Y1959D01*
X1112Y1959D01*
X1112Y1961D01*
X1108Y1961D01*
X1108Y1963D01*
X1106Y1963D01*
X1106Y1965D01*
X1104Y1965D01*
X1104Y1967D01*
X1102Y1967D01*
X1102Y1969D01*
X1080Y1969D01*
G37*
D02*
G36*
X1180Y1969D02*
X1180Y1967D01*
X1178Y1967D01*
X1178Y1965D01*
X1176Y1965D01*
X1176Y1963D01*
X1174Y1963D01*
X1174Y1961D01*
X1172Y1961D01*
X1172Y1959D01*
X1168Y1959D01*
X1168Y1957D01*
X1164Y1957D01*
X1164Y1955D01*
X1160Y1955D01*
X1160Y1953D01*
X1154Y1953D01*
X1154Y1951D01*
X1228Y1951D01*
X1228Y1953D01*
X1222Y1953D01*
X1222Y1955D01*
X1218Y1955D01*
X1218Y1957D01*
X1214Y1957D01*
X1214Y1959D01*
X1212Y1959D01*
X1212Y1961D01*
X1208Y1961D01*
X1208Y1963D01*
X1206Y1963D01*
X1206Y1965D01*
X1204Y1965D01*
X1204Y1967D01*
X1202Y1967D01*
X1202Y1969D01*
X1180Y1969D01*
G37*
D02*
G36*
X1280Y1969D02*
X1280Y1967D01*
X1278Y1967D01*
X1278Y1965D01*
X1276Y1965D01*
X1276Y1963D01*
X1274Y1963D01*
X1274Y1961D01*
X1272Y1961D01*
X1272Y1959D01*
X1268Y1959D01*
X1268Y1957D01*
X1264Y1957D01*
X1264Y1955D01*
X1260Y1955D01*
X1260Y1953D01*
X1254Y1953D01*
X1254Y1951D01*
X1328Y1951D01*
X1328Y1953D01*
X1322Y1953D01*
X1322Y1955D01*
X1318Y1955D01*
X1318Y1957D01*
X1314Y1957D01*
X1314Y1959D01*
X1312Y1959D01*
X1312Y1961D01*
X1308Y1961D01*
X1308Y1963D01*
X1306Y1963D01*
X1306Y1965D01*
X1304Y1965D01*
X1304Y1967D01*
X1302Y1967D01*
X1302Y1969D01*
X1280Y1969D01*
G37*
D02*
G36*
X1380Y1969D02*
X1380Y1967D01*
X1378Y1967D01*
X1378Y1965D01*
X1376Y1965D01*
X1376Y1963D01*
X1374Y1963D01*
X1374Y1961D01*
X1372Y1961D01*
X1372Y1959D01*
X1368Y1959D01*
X1368Y1957D01*
X1364Y1957D01*
X1364Y1955D01*
X1360Y1955D01*
X1360Y1953D01*
X1354Y1953D01*
X1354Y1951D01*
X1428Y1951D01*
X1428Y1953D01*
X1422Y1953D01*
X1422Y1955D01*
X1418Y1955D01*
X1418Y1957D01*
X1414Y1957D01*
X1414Y1959D01*
X1412Y1959D01*
X1412Y1961D01*
X1408Y1961D01*
X1408Y1963D01*
X1406Y1963D01*
X1406Y1965D01*
X1404Y1965D01*
X1404Y1967D01*
X1402Y1967D01*
X1402Y1969D01*
X1380Y1969D01*
G37*
D02*
G36*
X1480Y1969D02*
X1480Y1967D01*
X1478Y1967D01*
X1478Y1965D01*
X1476Y1965D01*
X1476Y1963D01*
X1474Y1963D01*
X1474Y1961D01*
X1472Y1961D01*
X1472Y1959D01*
X1468Y1959D01*
X1468Y1957D01*
X1464Y1957D01*
X1464Y1955D01*
X1460Y1955D01*
X1460Y1953D01*
X1454Y1953D01*
X1454Y1951D01*
X1528Y1951D01*
X1528Y1953D01*
X1522Y1953D01*
X1522Y1955D01*
X1518Y1955D01*
X1518Y1957D01*
X1514Y1957D01*
X1514Y1959D01*
X1512Y1959D01*
X1512Y1961D01*
X1508Y1961D01*
X1508Y1963D01*
X1506Y1963D01*
X1506Y1965D01*
X1504Y1965D01*
X1504Y1967D01*
X1502Y1967D01*
X1502Y1969D01*
X1480Y1969D01*
G37*
D02*
G36*
X1580Y1969D02*
X1580Y1967D01*
X1578Y1967D01*
X1578Y1965D01*
X1576Y1965D01*
X1576Y1963D01*
X1574Y1963D01*
X1574Y1961D01*
X1572Y1961D01*
X1572Y1959D01*
X1568Y1959D01*
X1568Y1957D01*
X1564Y1957D01*
X1564Y1955D01*
X1560Y1955D01*
X1560Y1953D01*
X1554Y1953D01*
X1554Y1951D01*
X1628Y1951D01*
X1628Y1953D01*
X1622Y1953D01*
X1622Y1955D01*
X1618Y1955D01*
X1618Y1957D01*
X1614Y1957D01*
X1614Y1959D01*
X1612Y1959D01*
X1612Y1961D01*
X1608Y1961D01*
X1608Y1963D01*
X1606Y1963D01*
X1606Y1965D01*
X1604Y1965D01*
X1604Y1967D01*
X1602Y1967D01*
X1602Y1969D01*
X1580Y1969D01*
G37*
D02*
G36*
X874Y1951D02*
X874Y1949D01*
X1770Y1949D01*
X1770Y1951D01*
X874Y1951D01*
G37*
D02*
G36*
X874Y1951D02*
X874Y1949D01*
X1770Y1949D01*
X1770Y1951D01*
X874Y1951D01*
G37*
D02*
G36*
X874Y1951D02*
X874Y1949D01*
X1770Y1949D01*
X1770Y1951D01*
X874Y1951D01*
G37*
D02*
G36*
X874Y1951D02*
X874Y1949D01*
X1770Y1949D01*
X1770Y1951D01*
X874Y1951D01*
G37*
D02*
G36*
X874Y1951D02*
X874Y1949D01*
X1770Y1949D01*
X1770Y1951D01*
X874Y1951D01*
G37*
D02*
G36*
X874Y1951D02*
X874Y1949D01*
X1770Y1949D01*
X1770Y1951D01*
X874Y1951D01*
G37*
D02*
G36*
X874Y1951D02*
X874Y1949D01*
X1770Y1949D01*
X1770Y1951D01*
X874Y1951D01*
G37*
D02*
G36*
X874Y1951D02*
X874Y1949D01*
X1770Y1949D01*
X1770Y1951D01*
X874Y1951D01*
G37*
D02*
G36*
X874Y1951D02*
X874Y1949D01*
X1770Y1949D01*
X1770Y1951D01*
X874Y1951D01*
G37*
D02*
G36*
X874Y1949D02*
X874Y1863D01*
X1712Y1863D01*
X1712Y1861D01*
X1720Y1861D01*
X1720Y1859D01*
X1726Y1859D01*
X1726Y1857D01*
X1730Y1857D01*
X1730Y1855D01*
X1732Y1855D01*
X1732Y1853D01*
X1736Y1853D01*
X1736Y1851D01*
X1738Y1851D01*
X1738Y1849D01*
X1740Y1849D01*
X1740Y1847D01*
X1762Y1847D01*
X1762Y1849D01*
X1764Y1849D01*
X1764Y1851D01*
X1768Y1851D01*
X1768Y1853D01*
X1770Y1853D01*
X1770Y1949D01*
X874Y1949D01*
G37*
D02*
G36*
X874Y1863D02*
X874Y1745D01*
X1594Y1745D01*
X1594Y1747D01*
X1584Y1747D01*
X1584Y1749D01*
X1578Y1749D01*
X1578Y1751D01*
X1574Y1751D01*
X1574Y1753D01*
X1570Y1753D01*
X1570Y1755D01*
X1568Y1755D01*
X1568Y1757D01*
X1566Y1757D01*
X1566Y1759D01*
X1562Y1759D01*
X1562Y1761D01*
X1560Y1761D01*
X1560Y1763D01*
X1558Y1763D01*
X1558Y1765D01*
X1556Y1765D01*
X1556Y1769D01*
X1554Y1769D01*
X1554Y1771D01*
X1552Y1771D01*
X1552Y1775D01*
X1550Y1775D01*
X1550Y1777D01*
X1548Y1777D01*
X1548Y1781D01*
X1546Y1781D01*
X1546Y1787D01*
X1544Y1787D01*
X1544Y1797D01*
X1542Y1797D01*
X1542Y1811D01*
X1544Y1811D01*
X1544Y1821D01*
X1546Y1821D01*
X1546Y1827D01*
X1548Y1827D01*
X1548Y1831D01*
X1550Y1831D01*
X1550Y1835D01*
X1552Y1835D01*
X1552Y1837D01*
X1554Y1837D01*
X1554Y1841D01*
X1556Y1841D01*
X1556Y1843D01*
X1558Y1843D01*
X1558Y1845D01*
X1560Y1845D01*
X1560Y1847D01*
X1562Y1847D01*
X1562Y1849D01*
X1564Y1849D01*
X1564Y1851D01*
X1568Y1851D01*
X1568Y1853D01*
X1570Y1853D01*
X1570Y1855D01*
X1574Y1855D01*
X1574Y1857D01*
X1578Y1857D01*
X1578Y1859D01*
X1582Y1859D01*
X1582Y1861D01*
X1590Y1861D01*
X1590Y1863D01*
X874Y1863D01*
G37*
D02*
G36*
X1612Y1863D02*
X1612Y1861D01*
X1620Y1861D01*
X1620Y1859D01*
X1626Y1859D01*
X1626Y1857D01*
X1630Y1857D01*
X1630Y1855D01*
X1632Y1855D01*
X1632Y1853D01*
X1636Y1853D01*
X1636Y1851D01*
X1638Y1851D01*
X1638Y1849D01*
X1640Y1849D01*
X1640Y1847D01*
X1662Y1847D01*
X1662Y1849D01*
X1664Y1849D01*
X1664Y1851D01*
X1668Y1851D01*
X1668Y1853D01*
X1670Y1853D01*
X1670Y1855D01*
X1674Y1855D01*
X1674Y1857D01*
X1678Y1857D01*
X1678Y1859D01*
X1682Y1859D01*
X1682Y1861D01*
X1690Y1861D01*
X1690Y1863D01*
X1612Y1863D01*
G37*
D02*
G36*
X1638Y1759D02*
X1638Y1757D01*
X1636Y1757D01*
X1636Y1755D01*
X1632Y1755D01*
X1632Y1753D01*
X1628Y1753D01*
X1628Y1751D01*
X1624Y1751D01*
X1624Y1749D01*
X1618Y1749D01*
X1618Y1747D01*
X1610Y1747D01*
X1610Y1745D01*
X1658Y1745D01*
X1658Y1759D01*
X1638Y1759D01*
G37*
D02*
G36*
X874Y1745D02*
X874Y1743D01*
X1658Y1743D01*
X1658Y1745D01*
X874Y1745D01*
G37*
D02*
G36*
X874Y1745D02*
X874Y1743D01*
X1658Y1743D01*
X1658Y1745D01*
X874Y1745D01*
G37*
D02*
G36*
X874Y1743D02*
X874Y1701D01*
X872Y1701D01*
X872Y1693D01*
X870Y1693D01*
X870Y1689D01*
X868Y1689D01*
X868Y1685D01*
X866Y1685D01*
X866Y1683D01*
X864Y1683D01*
X864Y1681D01*
X862Y1681D01*
X862Y1679D01*
X860Y1679D01*
X860Y1677D01*
X856Y1677D01*
X856Y1675D01*
X850Y1675D01*
X850Y1673D01*
X790Y1673D01*
X790Y1671D01*
X788Y1671D01*
X788Y1667D01*
X786Y1667D01*
X786Y1665D01*
X784Y1665D01*
X784Y1645D01*
X786Y1645D01*
X786Y1643D01*
X788Y1643D01*
X788Y1641D01*
X790Y1641D01*
X790Y1637D01*
X792Y1637D01*
X792Y1635D01*
X794Y1635D01*
X794Y1631D01*
X796Y1631D01*
X796Y1625D01*
X798Y1625D01*
X798Y1619D01*
X800Y1619D01*
X800Y1595D01*
X798Y1595D01*
X798Y1587D01*
X796Y1587D01*
X796Y1581D01*
X794Y1581D01*
X794Y1577D01*
X792Y1577D01*
X792Y1575D01*
X790Y1575D01*
X790Y1571D01*
X788Y1571D01*
X788Y1551D01*
X1010Y1551D01*
X1010Y1549D01*
X1330Y1549D01*
X1330Y1547D01*
X1658Y1547D01*
X1658Y1743D01*
X874Y1743D01*
G37*
D02*
G36*
X1840Y1969D02*
X1840Y1967D01*
X1838Y1967D01*
X1838Y1965D01*
X1836Y1965D01*
X1836Y1963D01*
X1834Y1963D01*
X1834Y1853D01*
X1836Y1853D01*
X1836Y1851D01*
X1838Y1851D01*
X1838Y1849D01*
X1840Y1849D01*
X1840Y1847D01*
X1862Y1847D01*
X1862Y1849D01*
X1864Y1849D01*
X1864Y1851D01*
X1868Y1851D01*
X1868Y1853D01*
X1870Y1853D01*
X1870Y1961D01*
X1868Y1961D01*
X1868Y1963D01*
X1866Y1963D01*
X1866Y1965D01*
X1864Y1965D01*
X1864Y1967D01*
X1862Y1967D01*
X1862Y1969D01*
X1840Y1969D01*
G37*
D02*
G36*
X2340Y1969D02*
X2340Y1967D01*
X2338Y1967D01*
X2338Y1965D01*
X2336Y1965D01*
X2336Y1963D01*
X2334Y1963D01*
X2334Y1961D01*
X2332Y1961D01*
X2332Y1959D01*
X2328Y1959D01*
X2328Y1957D01*
X2324Y1957D01*
X2324Y1955D01*
X2320Y1955D01*
X2320Y1935D01*
X2370Y1935D01*
X2370Y1961D01*
X2368Y1961D01*
X2368Y1963D01*
X2366Y1963D01*
X2366Y1965D01*
X2364Y1965D01*
X2364Y1967D01*
X2362Y1967D01*
X2362Y1969D01*
X2340Y1969D01*
G37*
D02*
G36*
X2440Y1969D02*
X2440Y1967D01*
X2438Y1967D01*
X2438Y1965D01*
X2436Y1965D01*
X2436Y1963D01*
X2434Y1963D01*
X2434Y1901D01*
X2432Y1901D01*
X2432Y1891D01*
X2430Y1891D01*
X2430Y1887D01*
X2428Y1887D01*
X2428Y1883D01*
X2426Y1883D01*
X2426Y1881D01*
X2424Y1881D01*
X2424Y1879D01*
X2422Y1879D01*
X2422Y1859D01*
X2426Y1859D01*
X2426Y1857D01*
X2430Y1857D01*
X2430Y1855D01*
X2432Y1855D01*
X2432Y1853D01*
X2436Y1853D01*
X2436Y1851D01*
X2438Y1851D01*
X2438Y1849D01*
X2440Y1849D01*
X2440Y1847D01*
X2444Y1847D01*
X2444Y1843D01*
X2446Y1843D01*
X2446Y1841D01*
X2448Y1841D01*
X2448Y1839D01*
X2450Y1839D01*
X2450Y1837D01*
X2470Y1837D01*
X2470Y1961D01*
X2468Y1961D01*
X2468Y1963D01*
X2466Y1963D01*
X2466Y1965D01*
X2464Y1965D01*
X2464Y1967D01*
X2462Y1967D01*
X2462Y1969D01*
X2440Y1969D01*
G37*
D02*
G36*
X1940Y1969D02*
X1940Y1967D01*
X1938Y1967D01*
X1938Y1965D01*
X1936Y1965D01*
X1936Y1963D01*
X1934Y1963D01*
X1934Y1951D01*
X1988Y1951D01*
X1988Y1953D01*
X1982Y1953D01*
X1982Y1955D01*
X1978Y1955D01*
X1978Y1957D01*
X1974Y1957D01*
X1974Y1959D01*
X1972Y1959D01*
X1972Y1961D01*
X1968Y1961D01*
X1968Y1963D01*
X1966Y1963D01*
X1966Y1965D01*
X1964Y1965D01*
X1964Y1967D01*
X1962Y1967D01*
X1962Y1969D01*
X1940Y1969D01*
G37*
D02*
G36*
X2040Y1969D02*
X2040Y1967D01*
X2038Y1967D01*
X2038Y1965D01*
X2036Y1965D01*
X2036Y1963D01*
X2034Y1963D01*
X2034Y1961D01*
X2032Y1961D01*
X2032Y1959D01*
X2028Y1959D01*
X2028Y1957D01*
X2024Y1957D01*
X2024Y1955D01*
X2020Y1955D01*
X2020Y1953D01*
X2014Y1953D01*
X2014Y1951D01*
X2088Y1951D01*
X2088Y1953D01*
X2082Y1953D01*
X2082Y1955D01*
X2078Y1955D01*
X2078Y1957D01*
X2074Y1957D01*
X2074Y1959D01*
X2072Y1959D01*
X2072Y1961D01*
X2068Y1961D01*
X2068Y1963D01*
X2066Y1963D01*
X2066Y1965D01*
X2064Y1965D01*
X2064Y1967D01*
X2062Y1967D01*
X2062Y1969D01*
X2040Y1969D01*
G37*
D02*
G36*
X2140Y1969D02*
X2140Y1967D01*
X2138Y1967D01*
X2138Y1965D01*
X2136Y1965D01*
X2136Y1963D01*
X2134Y1963D01*
X2134Y1961D01*
X2132Y1961D01*
X2132Y1959D01*
X2128Y1959D01*
X2128Y1957D01*
X2124Y1957D01*
X2124Y1955D01*
X2120Y1955D01*
X2120Y1953D01*
X2114Y1953D01*
X2114Y1951D01*
X2188Y1951D01*
X2188Y1953D01*
X2182Y1953D01*
X2182Y1955D01*
X2178Y1955D01*
X2178Y1957D01*
X2174Y1957D01*
X2174Y1959D01*
X2172Y1959D01*
X2172Y1961D01*
X2168Y1961D01*
X2168Y1963D01*
X2166Y1963D01*
X2166Y1965D01*
X2164Y1965D01*
X2164Y1967D01*
X2162Y1967D01*
X2162Y1969D01*
X2140Y1969D01*
G37*
D02*
G36*
X2240Y1969D02*
X2240Y1967D01*
X2238Y1967D01*
X2238Y1965D01*
X2236Y1965D01*
X2236Y1963D01*
X2234Y1963D01*
X2234Y1961D01*
X2232Y1961D01*
X2232Y1959D01*
X2228Y1959D01*
X2228Y1957D01*
X2224Y1957D01*
X2224Y1955D01*
X2220Y1955D01*
X2220Y1953D01*
X2214Y1953D01*
X2214Y1951D01*
X2288Y1951D01*
X2288Y1953D01*
X2282Y1953D01*
X2282Y1955D01*
X2278Y1955D01*
X2278Y1957D01*
X2274Y1957D01*
X2274Y1959D01*
X2272Y1959D01*
X2272Y1961D01*
X2268Y1961D01*
X2268Y1963D01*
X2266Y1963D01*
X2266Y1965D01*
X2264Y1965D01*
X2264Y1967D01*
X2262Y1967D01*
X2262Y1969D01*
X2240Y1969D01*
G37*
D02*
G36*
X1934Y1951D02*
X1934Y1949D01*
X2292Y1949D01*
X2292Y1951D01*
X1934Y1951D01*
G37*
D02*
G36*
X1934Y1951D02*
X1934Y1949D01*
X2292Y1949D01*
X2292Y1951D01*
X1934Y1951D01*
G37*
D02*
G36*
X1934Y1951D02*
X1934Y1949D01*
X2292Y1949D01*
X2292Y1951D01*
X1934Y1951D01*
G37*
D02*
G36*
X1934Y1951D02*
X1934Y1949D01*
X2292Y1949D01*
X2292Y1951D01*
X1934Y1951D01*
G37*
D02*
G36*
X1934Y1949D02*
X1934Y1853D01*
X1936Y1853D01*
X1936Y1851D01*
X1938Y1851D01*
X1938Y1849D01*
X1940Y1849D01*
X1940Y1847D01*
X1944Y1847D01*
X1944Y1843D01*
X1946Y1843D01*
X1946Y1841D01*
X1948Y1841D01*
X1948Y1839D01*
X1950Y1839D01*
X1950Y1837D01*
X1952Y1837D01*
X1952Y1833D01*
X1954Y1833D01*
X1954Y1829D01*
X1956Y1829D01*
X1956Y1823D01*
X1958Y1823D01*
X1958Y1817D01*
X1960Y1817D01*
X1960Y1793D01*
X1958Y1793D01*
X1958Y1785D01*
X1956Y1785D01*
X1956Y1779D01*
X1954Y1779D01*
X1954Y1775D01*
X1952Y1775D01*
X1952Y1773D01*
X1950Y1773D01*
X1950Y1769D01*
X1948Y1769D01*
X1948Y1767D01*
X1946Y1767D01*
X1946Y1765D01*
X1944Y1765D01*
X1944Y1763D01*
X1942Y1763D01*
X1942Y1761D01*
X1940Y1761D01*
X1940Y1759D01*
X1938Y1759D01*
X1938Y1757D01*
X1936Y1757D01*
X1936Y1755D01*
X1932Y1755D01*
X1932Y1753D01*
X1928Y1753D01*
X1928Y1751D01*
X1924Y1751D01*
X1924Y1749D01*
X1918Y1749D01*
X1918Y1747D01*
X1910Y1747D01*
X1910Y1745D01*
X2270Y1745D01*
X2270Y1903D01*
X2272Y1903D01*
X2272Y1913D01*
X2274Y1913D01*
X2274Y1917D01*
X2276Y1917D01*
X2276Y1921D01*
X2278Y1921D01*
X2278Y1923D01*
X2280Y1923D01*
X2280Y1925D01*
X2282Y1925D01*
X2282Y1927D01*
X2284Y1927D01*
X2284Y1929D01*
X2288Y1929D01*
X2288Y1931D01*
X2292Y1931D01*
X2292Y1949D01*
X1934Y1949D01*
G37*
D02*
G36*
X1840Y1761D02*
X1840Y1759D01*
X1838Y1759D01*
X1838Y1757D01*
X1836Y1757D01*
X1836Y1755D01*
X1832Y1755D01*
X1832Y1753D01*
X1828Y1753D01*
X1828Y1751D01*
X1824Y1751D01*
X1824Y1749D01*
X1818Y1749D01*
X1818Y1747D01*
X1810Y1747D01*
X1810Y1745D01*
X1894Y1745D01*
X1894Y1747D01*
X1884Y1747D01*
X1884Y1749D01*
X1878Y1749D01*
X1878Y1751D01*
X1874Y1751D01*
X1874Y1753D01*
X1870Y1753D01*
X1870Y1755D01*
X1868Y1755D01*
X1868Y1757D01*
X1866Y1757D01*
X1866Y1759D01*
X1862Y1759D01*
X1862Y1761D01*
X1840Y1761D01*
G37*
D02*
G36*
X1746Y1759D02*
X1746Y1745D01*
X1794Y1745D01*
X1794Y1747D01*
X1784Y1747D01*
X1784Y1749D01*
X1778Y1749D01*
X1778Y1751D01*
X1774Y1751D01*
X1774Y1753D01*
X1770Y1753D01*
X1770Y1755D01*
X1768Y1755D01*
X1768Y1757D01*
X1766Y1757D01*
X1766Y1759D01*
X1746Y1759D01*
G37*
D02*
G36*
X1746Y1745D02*
X1746Y1743D01*
X2270Y1743D01*
X2270Y1745D01*
X1746Y1745D01*
G37*
D02*
G36*
X1746Y1745D02*
X1746Y1743D01*
X2270Y1743D01*
X2270Y1745D01*
X1746Y1745D01*
G37*
D02*
G36*
X1746Y1745D02*
X1746Y1743D01*
X2270Y1743D01*
X2270Y1745D01*
X1746Y1745D01*
G37*
D02*
G36*
X1746Y1743D02*
X1746Y1547D01*
X2212Y1547D01*
X2212Y1549D01*
X2356Y1549D01*
X2356Y1569D01*
X2354Y1569D01*
X2354Y1571D01*
X2352Y1571D01*
X2352Y1575D01*
X2350Y1575D01*
X2350Y1577D01*
X2348Y1577D01*
X2348Y1581D01*
X2346Y1581D01*
X2346Y1587D01*
X2344Y1587D01*
X2344Y1597D01*
X2342Y1597D01*
X2342Y1611D01*
X2344Y1611D01*
X2344Y1621D01*
X2346Y1621D01*
X2346Y1627D01*
X2348Y1627D01*
X2348Y1631D01*
X2350Y1631D01*
X2350Y1635D01*
X2352Y1635D01*
X2352Y1637D01*
X2354Y1637D01*
X2354Y1641D01*
X2356Y1641D01*
X2356Y1643D01*
X2358Y1643D01*
X2358Y1665D01*
X2356Y1665D01*
X2356Y1669D01*
X2354Y1669D01*
X2354Y1671D01*
X2294Y1671D01*
X2294Y1673D01*
X2288Y1673D01*
X2288Y1675D01*
X2286Y1675D01*
X2286Y1677D01*
X2282Y1677D01*
X2282Y1679D01*
X2280Y1679D01*
X2280Y1681D01*
X2278Y1681D01*
X2278Y1683D01*
X2276Y1683D01*
X2276Y1687D01*
X2274Y1687D01*
X2274Y1691D01*
X2272Y1691D01*
X2272Y1701D01*
X2270Y1701D01*
X2270Y1743D01*
X1746Y1743D01*
G37*
D02*
G36*
X2544Y1973D02*
X2544Y1971D01*
X2542Y1971D01*
X2542Y1969D01*
X2540Y1969D01*
X2540Y1967D01*
X2538Y1967D01*
X2538Y1965D01*
X2536Y1965D01*
X2536Y1963D01*
X2534Y1963D01*
X2534Y1795D01*
X2532Y1795D01*
X2532Y1789D01*
X2530Y1789D01*
X2530Y1785D01*
X2528Y1785D01*
X2528Y1783D01*
X2526Y1783D01*
X2526Y1781D01*
X2524Y1781D01*
X2524Y1779D01*
X2522Y1779D01*
X2522Y1777D01*
X2518Y1777D01*
X2518Y1775D01*
X2514Y1775D01*
X2514Y1773D01*
X2504Y1773D01*
X2504Y1771D01*
X2450Y1771D01*
X2450Y1769D01*
X2448Y1769D01*
X2448Y1767D01*
X2446Y1767D01*
X2446Y1765D01*
X2444Y1765D01*
X2444Y1743D01*
X2446Y1743D01*
X2446Y1741D01*
X2448Y1741D01*
X2448Y1739D01*
X2450Y1739D01*
X2450Y1737D01*
X2452Y1737D01*
X2452Y1733D01*
X2454Y1733D01*
X2454Y1729D01*
X2456Y1729D01*
X2456Y1723D01*
X2458Y1723D01*
X2458Y1717D01*
X2460Y1717D01*
X2460Y1693D01*
X2458Y1693D01*
X2458Y1685D01*
X2456Y1685D01*
X2456Y1679D01*
X2454Y1679D01*
X2454Y1675D01*
X2452Y1675D01*
X2452Y1673D01*
X2450Y1673D01*
X2450Y1669D01*
X2448Y1669D01*
X2448Y1667D01*
X2446Y1667D01*
X2446Y1665D01*
X2444Y1665D01*
X2444Y1643D01*
X2446Y1643D01*
X2446Y1641D01*
X2448Y1641D01*
X2448Y1639D01*
X2450Y1639D01*
X2450Y1637D01*
X2452Y1637D01*
X2452Y1633D01*
X2454Y1633D01*
X2454Y1629D01*
X2456Y1629D01*
X2456Y1623D01*
X2458Y1623D01*
X2458Y1617D01*
X2460Y1617D01*
X2460Y1593D01*
X2458Y1593D01*
X2458Y1585D01*
X2456Y1585D01*
X2456Y1579D01*
X2454Y1579D01*
X2454Y1575D01*
X2452Y1575D01*
X2452Y1573D01*
X2450Y1573D01*
X2450Y1569D01*
X2448Y1569D01*
X2448Y1567D01*
X2446Y1567D01*
X2446Y1565D01*
X2444Y1565D01*
X2444Y1543D01*
X2446Y1543D01*
X2446Y1541D01*
X2448Y1541D01*
X2448Y1539D01*
X2450Y1539D01*
X2450Y1537D01*
X2452Y1537D01*
X2452Y1533D01*
X2454Y1533D01*
X2454Y1529D01*
X2456Y1529D01*
X2456Y1523D01*
X2458Y1523D01*
X2458Y1517D01*
X2460Y1517D01*
X2460Y1493D01*
X2458Y1493D01*
X2458Y1485D01*
X2456Y1485D01*
X2456Y1479D01*
X2454Y1479D01*
X2454Y1475D01*
X2452Y1475D01*
X2452Y1473D01*
X2450Y1473D01*
X2450Y1469D01*
X2448Y1469D01*
X2448Y1467D01*
X2446Y1467D01*
X2446Y1465D01*
X2444Y1465D01*
X2444Y1463D01*
X2442Y1463D01*
X2442Y1461D01*
X2440Y1461D01*
X2440Y1459D01*
X2438Y1459D01*
X2438Y1457D01*
X2436Y1457D01*
X2436Y1455D01*
X2432Y1455D01*
X2432Y1453D01*
X2428Y1453D01*
X2428Y1451D01*
X2424Y1451D01*
X2424Y1449D01*
X2418Y1449D01*
X2418Y1447D01*
X2410Y1447D01*
X2410Y1445D01*
X2664Y1445D01*
X2664Y1455D01*
X2662Y1455D01*
X2662Y1457D01*
X2660Y1457D01*
X2660Y1459D01*
X2658Y1459D01*
X2658Y1461D01*
X2656Y1461D01*
X2656Y1463D01*
X2654Y1463D01*
X2654Y1465D01*
X2652Y1465D01*
X2652Y1467D01*
X2650Y1467D01*
X2650Y1469D01*
X2648Y1469D01*
X2648Y1471D01*
X2646Y1471D01*
X2646Y1473D01*
X2644Y1473D01*
X2644Y1475D01*
X2642Y1475D01*
X2642Y1477D01*
X2640Y1477D01*
X2640Y1479D01*
X2638Y1479D01*
X2638Y1481D01*
X2636Y1481D01*
X2636Y1483D01*
X2634Y1483D01*
X2634Y1485D01*
X2632Y1485D01*
X2632Y1487D01*
X2630Y1487D01*
X2630Y1489D01*
X2628Y1489D01*
X2628Y1491D01*
X2626Y1491D01*
X2626Y1493D01*
X2624Y1493D01*
X2624Y1495D01*
X2622Y1495D01*
X2622Y1497D01*
X2620Y1497D01*
X2620Y1499D01*
X2618Y1499D01*
X2618Y1501D01*
X2616Y1501D01*
X2616Y1503D01*
X2614Y1503D01*
X2614Y1505D01*
X2612Y1505D01*
X2612Y1507D01*
X2610Y1507D01*
X2610Y1509D01*
X2608Y1509D01*
X2608Y1511D01*
X2606Y1511D01*
X2606Y1513D01*
X2604Y1513D01*
X2604Y1515D01*
X2602Y1515D01*
X2602Y1517D01*
X2600Y1517D01*
X2600Y1519D01*
X2598Y1519D01*
X2598Y1521D01*
X2596Y1521D01*
X2596Y1523D01*
X2594Y1523D01*
X2594Y1525D01*
X2592Y1525D01*
X2592Y1527D01*
X2590Y1527D01*
X2590Y1529D01*
X2588Y1529D01*
X2588Y1531D01*
X2586Y1531D01*
X2586Y1533D01*
X2584Y1533D01*
X2584Y1535D01*
X2582Y1535D01*
X2582Y1537D01*
X2580Y1537D01*
X2580Y1539D01*
X2578Y1539D01*
X2578Y1541D01*
X2576Y1541D01*
X2576Y1543D01*
X2574Y1543D01*
X2574Y1545D01*
X2572Y1545D01*
X2572Y1547D01*
X2570Y1547D01*
X2570Y1549D01*
X2568Y1549D01*
X2568Y1551D01*
X2566Y1551D01*
X2566Y1553D01*
X2564Y1553D01*
X2564Y1973D01*
X2544Y1973D01*
G37*
D02*
G36*
X2256Y1461D02*
X2256Y1459D01*
X1546Y1459D01*
X1546Y1445D01*
X2394Y1445D01*
X2394Y1447D01*
X2384Y1447D01*
X2384Y1449D01*
X2378Y1449D01*
X2378Y1451D01*
X2374Y1451D01*
X2374Y1453D01*
X2370Y1453D01*
X2370Y1455D01*
X2368Y1455D01*
X2368Y1457D01*
X2366Y1457D01*
X2366Y1459D01*
X2362Y1459D01*
X2362Y1461D01*
X2256Y1461D01*
G37*
D02*
G36*
X1546Y1445D02*
X1546Y1443D01*
X2664Y1443D01*
X2664Y1445D01*
X1546Y1445D01*
G37*
D02*
G36*
X1546Y1445D02*
X1546Y1443D01*
X2664Y1443D01*
X2664Y1445D01*
X1546Y1445D01*
G37*
D02*
G36*
X1546Y1443D02*
X1546Y155D01*
X2514Y155D01*
X2514Y153D01*
X2520Y153D01*
X2520Y151D01*
X2524Y151D01*
X2524Y149D01*
X2528Y149D01*
X2528Y147D01*
X2532Y147D01*
X2532Y145D01*
X2534Y145D01*
X2534Y143D01*
X2536Y143D01*
X2536Y141D01*
X2538Y141D01*
X2538Y139D01*
X2540Y139D01*
X2540Y137D01*
X2542Y137D01*
X2542Y135D01*
X2544Y135D01*
X2544Y133D01*
X2564Y133D01*
X2564Y147D01*
X2566Y147D01*
X2566Y149D01*
X2568Y149D01*
X2568Y151D01*
X2570Y151D01*
X2570Y153D01*
X2572Y153D01*
X2572Y155D01*
X2574Y155D01*
X2574Y157D01*
X2576Y157D01*
X2576Y159D01*
X2578Y159D01*
X2578Y161D01*
X2580Y161D01*
X2580Y163D01*
X2582Y163D01*
X2582Y165D01*
X2584Y165D01*
X2584Y167D01*
X2586Y167D01*
X2586Y169D01*
X2588Y169D01*
X2588Y171D01*
X2590Y171D01*
X2590Y173D01*
X2592Y173D01*
X2592Y175D01*
X2594Y175D01*
X2594Y177D01*
X2596Y177D01*
X2596Y179D01*
X2598Y179D01*
X2598Y181D01*
X2600Y181D01*
X2600Y183D01*
X2602Y183D01*
X2602Y185D01*
X2604Y185D01*
X2604Y187D01*
X2606Y187D01*
X2606Y189D01*
X2608Y189D01*
X2608Y191D01*
X2610Y191D01*
X2610Y193D01*
X2612Y193D01*
X2612Y195D01*
X2614Y195D01*
X2614Y197D01*
X2616Y197D01*
X2616Y199D01*
X2618Y199D01*
X2618Y201D01*
X2620Y201D01*
X2620Y203D01*
X2622Y203D01*
X2622Y205D01*
X2624Y205D01*
X2624Y207D01*
X2626Y207D01*
X2626Y209D01*
X2628Y209D01*
X2628Y211D01*
X2630Y211D01*
X2630Y213D01*
X2632Y213D01*
X2632Y215D01*
X2634Y215D01*
X2634Y217D01*
X2636Y217D01*
X2636Y219D01*
X2638Y219D01*
X2638Y221D01*
X2640Y221D01*
X2640Y223D01*
X2642Y223D01*
X2642Y225D01*
X2644Y225D01*
X2644Y227D01*
X2646Y227D01*
X2646Y229D01*
X2648Y229D01*
X2648Y231D01*
X2650Y231D01*
X2650Y233D01*
X2652Y233D01*
X2652Y235D01*
X2654Y235D01*
X2654Y237D01*
X2656Y237D01*
X2656Y239D01*
X2658Y239D01*
X2658Y241D01*
X2660Y241D01*
X2660Y243D01*
X2662Y243D01*
X2662Y245D01*
X2664Y245D01*
X2664Y1443D01*
X1546Y1443D01*
G37*
D02*
G36*
X1546Y155D02*
X1546Y141D01*
X1566Y141D01*
X1566Y143D01*
X1568Y143D01*
X1568Y145D01*
X1572Y145D01*
X1572Y147D01*
X1574Y147D01*
X1574Y149D01*
X1578Y149D01*
X1578Y151D01*
X1582Y151D01*
X1582Y153D01*
X1590Y153D01*
X1590Y155D01*
X1546Y155D01*
G37*
D02*
G36*
X1614Y155D02*
X1614Y153D01*
X1620Y153D01*
X1620Y151D01*
X1624Y151D01*
X1624Y149D01*
X1628Y149D01*
X1628Y147D01*
X1632Y147D01*
X1632Y145D01*
X1634Y145D01*
X1634Y143D01*
X1636Y143D01*
X1636Y141D01*
X1638Y141D01*
X1638Y139D01*
X1640Y139D01*
X1640Y137D01*
X1662Y137D01*
X1662Y139D01*
X1664Y139D01*
X1664Y141D01*
X1666Y141D01*
X1666Y143D01*
X1668Y143D01*
X1668Y145D01*
X1672Y145D01*
X1672Y147D01*
X1674Y147D01*
X1674Y149D01*
X1678Y149D01*
X1678Y151D01*
X1682Y151D01*
X1682Y153D01*
X1690Y153D01*
X1690Y155D01*
X1614Y155D01*
G37*
D02*
G36*
X1714Y155D02*
X1714Y153D01*
X1720Y153D01*
X1720Y151D01*
X1724Y151D01*
X1724Y149D01*
X1728Y149D01*
X1728Y147D01*
X1732Y147D01*
X1732Y145D01*
X1734Y145D01*
X1734Y143D01*
X1736Y143D01*
X1736Y141D01*
X1738Y141D01*
X1738Y139D01*
X1740Y139D01*
X1740Y137D01*
X1762Y137D01*
X1762Y139D01*
X1764Y139D01*
X1764Y141D01*
X1766Y141D01*
X1766Y143D01*
X1768Y143D01*
X1768Y145D01*
X1772Y145D01*
X1772Y147D01*
X1774Y147D01*
X1774Y149D01*
X1778Y149D01*
X1778Y151D01*
X1782Y151D01*
X1782Y153D01*
X1790Y153D01*
X1790Y155D01*
X1714Y155D01*
G37*
D02*
G36*
X1814Y155D02*
X1814Y153D01*
X1820Y153D01*
X1820Y151D01*
X1824Y151D01*
X1824Y149D01*
X1828Y149D01*
X1828Y147D01*
X1832Y147D01*
X1832Y145D01*
X1834Y145D01*
X1834Y143D01*
X1836Y143D01*
X1836Y141D01*
X1838Y141D01*
X1838Y139D01*
X1840Y139D01*
X1840Y137D01*
X1842Y137D01*
X1842Y135D01*
X1844Y135D01*
X1844Y133D01*
X1846Y133D01*
X1846Y129D01*
X1848Y129D01*
X1848Y125D01*
X1850Y125D01*
X1850Y121D01*
X1852Y121D01*
X1852Y113D01*
X1854Y113D01*
X1854Y93D01*
X1852Y93D01*
X1852Y85D01*
X1850Y85D01*
X1850Y81D01*
X1848Y81D01*
X1848Y77D01*
X1846Y77D01*
X1846Y73D01*
X1844Y73D01*
X1844Y71D01*
X1842Y71D01*
X1842Y69D01*
X1840Y69D01*
X1840Y67D01*
X1838Y67D01*
X1838Y47D01*
X1964Y47D01*
X1964Y67D01*
X1962Y67D01*
X1962Y69D01*
X1960Y69D01*
X1960Y73D01*
X1958Y73D01*
X1958Y75D01*
X1956Y75D01*
X1956Y79D01*
X1954Y79D01*
X1954Y83D01*
X1952Y83D01*
X1952Y89D01*
X1950Y89D01*
X1950Y99D01*
X1948Y99D01*
X1948Y105D01*
X1950Y105D01*
X1950Y117D01*
X1952Y117D01*
X1952Y123D01*
X1954Y123D01*
X1954Y127D01*
X1956Y127D01*
X1956Y131D01*
X1958Y131D01*
X1958Y133D01*
X1960Y133D01*
X1960Y137D01*
X1962Y137D01*
X1962Y139D01*
X1964Y139D01*
X1964Y141D01*
X1966Y141D01*
X1966Y143D01*
X1968Y143D01*
X1968Y145D01*
X1972Y145D01*
X1972Y147D01*
X1974Y147D01*
X1974Y149D01*
X1978Y149D01*
X1978Y151D01*
X1982Y151D01*
X1982Y153D01*
X1990Y153D01*
X1990Y155D01*
X1814Y155D01*
G37*
D02*
G36*
X2014Y155D02*
X2014Y153D01*
X2020Y153D01*
X2020Y151D01*
X2024Y151D01*
X2024Y149D01*
X2028Y149D01*
X2028Y147D01*
X2032Y147D01*
X2032Y145D01*
X2034Y145D01*
X2034Y143D01*
X2036Y143D01*
X2036Y141D01*
X2038Y141D01*
X2038Y139D01*
X2040Y139D01*
X2040Y137D01*
X2062Y137D01*
X2062Y139D01*
X2064Y139D01*
X2064Y141D01*
X2066Y141D01*
X2066Y143D01*
X2068Y143D01*
X2068Y145D01*
X2072Y145D01*
X2072Y147D01*
X2074Y147D01*
X2074Y149D01*
X2078Y149D01*
X2078Y151D01*
X2082Y151D01*
X2082Y153D01*
X2090Y153D01*
X2090Y155D01*
X2014Y155D01*
G37*
D02*
G36*
X2114Y155D02*
X2114Y153D01*
X2120Y153D01*
X2120Y151D01*
X2124Y151D01*
X2124Y149D01*
X2128Y149D01*
X2128Y147D01*
X2132Y147D01*
X2132Y145D01*
X2134Y145D01*
X2134Y143D01*
X2136Y143D01*
X2136Y141D01*
X2138Y141D01*
X2138Y139D01*
X2140Y139D01*
X2140Y137D01*
X2162Y137D01*
X2162Y139D01*
X2164Y139D01*
X2164Y141D01*
X2166Y141D01*
X2166Y143D01*
X2168Y143D01*
X2168Y145D01*
X2172Y145D01*
X2172Y147D01*
X2174Y147D01*
X2174Y149D01*
X2178Y149D01*
X2178Y151D01*
X2182Y151D01*
X2182Y153D01*
X2190Y153D01*
X2190Y155D01*
X2114Y155D01*
G37*
D02*
G36*
X2214Y155D02*
X2214Y153D01*
X2220Y153D01*
X2220Y151D01*
X2224Y151D01*
X2224Y149D01*
X2228Y149D01*
X2228Y147D01*
X2232Y147D01*
X2232Y145D01*
X2234Y145D01*
X2234Y143D01*
X2236Y143D01*
X2236Y141D01*
X2238Y141D01*
X2238Y139D01*
X2240Y139D01*
X2240Y137D01*
X2262Y137D01*
X2262Y139D01*
X2264Y139D01*
X2264Y141D01*
X2266Y141D01*
X2266Y143D01*
X2268Y143D01*
X2268Y145D01*
X2272Y145D01*
X2272Y147D01*
X2274Y147D01*
X2274Y149D01*
X2278Y149D01*
X2278Y151D01*
X2282Y151D01*
X2282Y153D01*
X2290Y153D01*
X2290Y155D01*
X2214Y155D01*
G37*
D02*
G36*
X2314Y155D02*
X2314Y153D01*
X2320Y153D01*
X2320Y151D01*
X2324Y151D01*
X2324Y149D01*
X2328Y149D01*
X2328Y147D01*
X2332Y147D01*
X2332Y145D01*
X2334Y145D01*
X2334Y143D01*
X2336Y143D01*
X2336Y141D01*
X2338Y141D01*
X2338Y139D01*
X2340Y139D01*
X2340Y137D01*
X2362Y137D01*
X2362Y139D01*
X2364Y139D01*
X2364Y141D01*
X2366Y141D01*
X2366Y143D01*
X2368Y143D01*
X2368Y145D01*
X2372Y145D01*
X2372Y147D01*
X2374Y147D01*
X2374Y149D01*
X2378Y149D01*
X2378Y151D01*
X2382Y151D01*
X2382Y153D01*
X2390Y153D01*
X2390Y155D01*
X2314Y155D01*
G37*
D02*
G36*
X2414Y155D02*
X2414Y153D01*
X2420Y153D01*
X2420Y151D01*
X2424Y151D01*
X2424Y149D01*
X2428Y149D01*
X2428Y147D01*
X2432Y147D01*
X2432Y145D01*
X2434Y145D01*
X2434Y143D01*
X2436Y143D01*
X2436Y141D01*
X2438Y141D01*
X2438Y139D01*
X2440Y139D01*
X2440Y137D01*
X2462Y137D01*
X2462Y139D01*
X2464Y139D01*
X2464Y141D01*
X2466Y141D01*
X2466Y143D01*
X2468Y143D01*
X2468Y145D01*
X2472Y145D01*
X2472Y147D01*
X2474Y147D01*
X2474Y149D01*
X2478Y149D01*
X2478Y151D01*
X2482Y151D01*
X2482Y153D01*
X2490Y153D01*
X2490Y155D01*
X2414Y155D01*
G37*
D02*
G36*
X1581Y159D02*
X1620Y159D01*
X1620Y127D01*
X1581Y127D01*
X1581Y159D01*
G37*
D02*
G36*
X1581Y85D02*
X1620Y85D01*
X1620Y51D01*
X1581Y51D01*
X1581Y85D01*
G37*
D02*
G36*
X1681Y159D02*
X1719Y159D01*
X1719Y127D01*
X1681Y127D01*
X1681Y159D01*
G37*
D02*
G36*
X1681Y85D02*
X1719Y85D01*
X1719Y51D01*
X1681Y51D01*
X1681Y85D01*
G37*
D02*
G04 End of Copper0*
M02*