; NON-PLATED HOLES START AT T1
; THROUGH (PLATED) HOLES START AT T100
M48
INCH
T1C0.086614
T2C0.122047
T3C0.088583
T100C0.035433
T101C0.035000
T102C0.052000
%
T1
X018869Y028968
X003869Y028968
X003869Y020968
T2
X023869Y028968
X000869Y000968
X023869Y000968
X000869Y028968
T3
X018869Y020968
T100
X003869Y016968
X005869Y025968
X003869Y006968
X014869Y025968
X003869Y014968
X014869Y023968
X014869Y010968
X001869Y005968
X005869Y022968
X014869Y013968
X003869Y008968
X014869Y007968
X009869Y001968
X018869Y024968
X003869Y004968
X014869Y014968
X001869Y001968
X021869Y023968
X001869Y002968
X014869Y021968
X002869Y025968
X005869Y023968
X003869Y009968
X014869Y005968
X003869Y012968
X018869Y025968
X021869Y025968
X002869Y022968
X003869Y010968
X010869Y001968
X003869Y011968
X001869Y004968
X001869Y003968
X018869Y022968
X002869Y021968
X008869Y001968
X014869Y004968
X014869Y006968
X014869Y024968
X002869Y023968
X014869Y009968
X014869Y002968
X014869Y011968
X003869Y007968
X021869Y026968
X003869Y003968
X014869Y016968
X002869Y024968
X018869Y023968
X014869Y003968
X014869Y012968
X003869Y013968
X003869Y005968
X002869Y020968
X014869Y022968
X005869Y020968
X014869Y020968
X003869Y002968
X005869Y021968
X014869Y015968
X005869Y019968
X021869Y024968
X003869Y015968
X014869Y008968
X005869Y024968
T101
X016869Y007968
X018869Y012968
X020869Y006968
X019869Y016968
X016869Y006968
X020869Y007968
X018869Y008968
X015869Y016968
T102
X017869Y003968
X020869Y003968
T00
M30
