G04 MADE WITH FRITZING*
G04 WWW.FRITZING.ORG*
G04 DOUBLE SIDED*
G04 HOLES PLATED*
G04 CONTOUR ON CENTER OF CONTOUR VECTOR*
%ASAXBY*%
%FSLAX23Y23*%
%MOIN*%
%OFA0B0*%
%SFA1.0B1.0*%
%ADD10C,0.074803*%
%ADD11C,0.075000*%
%ADD12C,0.092000*%
%ADD13R,0.092000X0.092000*%
%ADD14C,0.024000*%
%LNCOPPER1*%
G90*
G70*
G54D10*
X287Y2595D03*
X287Y2195D03*
X287Y2495D03*
X287Y2695D03*
X287Y2395D03*
X287Y2295D03*
X1487Y2695D03*
X1487Y2595D03*
X1487Y2495D03*
X1487Y2395D03*
X1487Y2295D03*
X1487Y2195D03*
X2187Y2495D03*
X2187Y2395D03*
X2187Y2595D03*
X2187Y2695D03*
X1887Y2395D03*
X1887Y2495D03*
X1887Y2595D03*
X1887Y2695D03*
X587Y2195D03*
X587Y2295D03*
X587Y2095D03*
X587Y2395D03*
X587Y2495D03*
X587Y2695D03*
X587Y2595D03*
X187Y395D03*
X187Y495D03*
X187Y295D03*
X187Y695D03*
X187Y595D03*
X1487Y1895D03*
X1487Y1395D03*
X1487Y695D03*
X1487Y1295D03*
X1487Y595D03*
X1487Y495D03*
X1487Y1495D03*
X1487Y1795D03*
X1487Y895D03*
X1487Y1595D03*
X1487Y1195D03*
X1487Y1695D03*
X1487Y995D03*
X1487Y1095D03*
X1487Y795D03*
X687Y695D03*
X687Y595D03*
X687Y495D03*
X387Y1895D03*
X387Y1695D03*
X387Y1795D03*
X387Y1495D03*
X387Y1595D03*
X387Y1395D03*
X387Y1295D03*
X387Y1095D03*
X387Y1195D03*
X387Y995D03*
X387Y895D03*
X387Y695D03*
X387Y795D03*
X387Y495D03*
X387Y595D03*
G54D11*
X2087Y895D03*
X1687Y895D03*
X1987Y1895D03*
X1587Y1895D03*
X2087Y795D03*
X1687Y795D03*
G54D12*
X2087Y495D03*
X1787Y495D03*
G54D11*
X1887Y995D03*
X1887Y1395D03*
G54D13*
X2087Y495D03*
G54D14*
X1516Y1895D02*
X1558Y1895D01*
D02*
X2388Y2696D02*
X2216Y2695D01*
D02*
X2287Y2594D02*
X2216Y2595D01*
D02*
X1513Y882D02*
X1661Y808D01*
D02*
X1513Y982D02*
X1661Y908D01*
D02*
X1686Y2396D02*
X1858Y2395D01*
D02*
X1687Y1296D02*
X1686Y2396D01*
D02*
X1516Y1295D02*
X1687Y1296D01*
D02*
X2187Y2366D02*
X2189Y1894D01*
D02*
X2189Y1894D02*
X2016Y1895D01*
D02*
X2388Y2696D02*
X2388Y794D01*
D02*
X2388Y794D02*
X2116Y795D01*
D02*
X1888Y2796D02*
X1887Y2724D01*
D02*
X1288Y2795D02*
X1888Y2796D01*
D02*
X1286Y1195D02*
X1288Y2795D01*
D02*
X1458Y1195D02*
X1286Y1195D01*
D02*
X1788Y2294D02*
X1988Y2294D01*
D02*
X1988Y2596D02*
X1916Y2596D01*
D02*
X1988Y2294D02*
X1988Y2596D01*
D02*
X1788Y1094D02*
X1788Y2294D01*
D02*
X1516Y1095D02*
X1788Y1094D01*
D02*
X2287Y2594D02*
X2288Y894D01*
D02*
X2288Y894D02*
X2116Y895D01*
G04 End of Copper1*
M02*