G04 MADE WITH FRITZING*
G04 WWW.FRITZING.ORG*
G04 DOUBLE SIDED*
G04 HOLES PLATED*
G04 CONTOUR ON CENTER OF CONTOUR VECTOR*
%ASAXBY*%
%FSLAX23Y23*%
%MOIN*%
%OFA0B0*%
%SFA1.0B1.0*%
%ADD10C,0.074000*%
%ADD11C,0.075000*%
%ADD12C,0.047859*%
%ADD13C,0.065000*%
%ADD14C,0.092000*%
%ADD15C,0.078000*%
%ADD16C,0.059200*%
%ADD17R,0.092000X0.092000*%
%ADD18R,0.078000X0.078000*%
%ADD19R,0.059200X0.059200*%
%ADD20C,0.024000*%
%ADD21R,0.001000X0.001000*%
%LNCOPPER1*%
G90*
G70*
G54D10*
X387Y197D03*
X387Y297D03*
X387Y397D03*
X387Y497D03*
X387Y597D03*
X387Y697D03*
X387Y197D03*
X387Y297D03*
X387Y397D03*
X387Y497D03*
X387Y597D03*
X387Y697D03*
X287Y2097D03*
X287Y2197D03*
X287Y2297D03*
X287Y2397D03*
X287Y2497D03*
X287Y2597D03*
X287Y2097D03*
X287Y2197D03*
X287Y2297D03*
X287Y2397D03*
X287Y2497D03*
X287Y2597D03*
X1487Y2097D03*
X1487Y2197D03*
X1487Y2297D03*
X1487Y2397D03*
X1487Y2497D03*
X1487Y2597D03*
X1487Y2097D03*
X1487Y2197D03*
X1487Y2297D03*
X1487Y2397D03*
X1487Y2497D03*
X1487Y2597D03*
G54D11*
X1987Y797D03*
X1587Y797D03*
X1987Y1697D03*
X1587Y1697D03*
X1987Y697D03*
X1587Y697D03*
G54D12*
X1487Y1496D03*
X590Y1696D03*
X590Y1596D03*
X590Y1496D03*
X590Y1397D03*
X590Y1297D03*
X1487Y1596D03*
X1487Y1696D03*
X1487Y1397D03*
X590Y1197D03*
X590Y1097D03*
X590Y997D03*
X590Y897D03*
X590Y797D03*
X590Y698D03*
X590Y598D03*
X590Y498D03*
X590Y398D03*
X590Y298D03*
X1487Y997D03*
X1487Y897D03*
X1487Y797D03*
X1487Y698D03*
X1487Y598D03*
X1487Y498D03*
X1487Y398D03*
X1487Y298D03*
X1487Y1297D03*
X1487Y1197D03*
X1487Y1097D03*
G54D13*
X2187Y2518D03*
X2187Y2597D03*
X2187Y2675D03*
X2187Y2754D03*
G54D14*
X2087Y397D03*
X1787Y397D03*
G54D15*
X1087Y946D03*
X987Y946D03*
X887Y946D03*
G54D16*
X1887Y2654D03*
X1887Y2418D03*
X1887Y2497D03*
X1887Y2576D03*
G54D11*
X1887Y897D03*
X1887Y1297D03*
G54D17*
X2087Y397D03*
G54D18*
X887Y947D03*
G54D19*
X1887Y2654D03*
G54D20*
X489Y594D02*
X418Y596D01*
D02*
X489Y296D02*
X409Y219D01*
D02*
X489Y395D02*
X489Y594D01*
D02*
X567Y298D02*
X489Y296D01*
D02*
X567Y397D02*
X489Y395D01*
D02*
X1688Y2397D02*
X1860Y2415D01*
D02*
X1688Y1098D02*
X1688Y2397D01*
D02*
X1509Y1097D02*
X1688Y1098D01*
D02*
X1509Y797D02*
X1558Y797D01*
D02*
X1509Y697D02*
X1558Y697D01*
D02*
X1509Y1696D02*
X1558Y1697D01*
D02*
X2188Y2497D02*
X2188Y1696D01*
D02*
X2188Y1696D02*
X2016Y1697D01*
D02*
X2189Y2495D02*
X2188Y2497D01*
D02*
X2388Y2697D02*
X2388Y696D01*
D02*
X2388Y696D02*
X2016Y697D01*
D02*
X2210Y2748D02*
X2388Y2697D01*
D02*
X1888Y2697D02*
X1888Y2689D01*
D02*
X1288Y2697D02*
X1888Y2697D01*
D02*
X1288Y996D02*
X1288Y2697D01*
D02*
X1465Y997D02*
X1288Y996D01*
D02*
X1788Y2297D02*
X1988Y2297D01*
D02*
X1988Y2297D02*
X1988Y2597D01*
D02*
X1988Y2597D02*
X1914Y2581D01*
D02*
X1786Y897D02*
X1788Y2297D01*
D02*
X1509Y897D02*
X1786Y897D01*
D02*
X2288Y2597D02*
X2288Y796D01*
D02*
X2288Y796D02*
X2016Y797D01*
D02*
X2206Y2661D02*
X2288Y2597D01*
G54D21*
X250Y2134D02*
X322Y2134D01*
X1450Y2134D02*
X1522Y2134D01*
X250Y2133D02*
X323Y2133D01*
X1450Y2133D02*
X1523Y2133D01*
X250Y2132D02*
X323Y2132D01*
X1450Y2132D02*
X1523Y2132D01*
X250Y2131D02*
X323Y2131D01*
X1450Y2131D02*
X1523Y2131D01*
X250Y2130D02*
X323Y2130D01*
X1450Y2130D02*
X1523Y2130D01*
X250Y2129D02*
X323Y2129D01*
X1450Y2129D02*
X1523Y2129D01*
X250Y2128D02*
X323Y2128D01*
X1450Y2128D02*
X1523Y2128D01*
X250Y2127D02*
X323Y2127D01*
X1450Y2127D02*
X1523Y2127D01*
X250Y2126D02*
X323Y2126D01*
X1450Y2126D02*
X1523Y2126D01*
X250Y2125D02*
X323Y2125D01*
X1450Y2125D02*
X1523Y2125D01*
X250Y2124D02*
X323Y2124D01*
X1450Y2124D02*
X1523Y2124D01*
X250Y2123D02*
X323Y2123D01*
X1450Y2123D02*
X1523Y2123D01*
X250Y2122D02*
X323Y2122D01*
X1450Y2122D02*
X1523Y2122D01*
X250Y2121D02*
X323Y2121D01*
X1450Y2121D02*
X1523Y2121D01*
X250Y2120D02*
X323Y2120D01*
X1450Y2120D02*
X1523Y2120D01*
X250Y2119D02*
X323Y2119D01*
X1450Y2119D02*
X1523Y2119D01*
X250Y2118D02*
X323Y2118D01*
X1450Y2118D02*
X1523Y2118D01*
X250Y2117D02*
X323Y2117D01*
X1450Y2117D02*
X1485Y2117D01*
X1487Y2117D02*
X1523Y2117D01*
X250Y2116D02*
X280Y2116D01*
X293Y2116D02*
X323Y2116D01*
X1450Y2116D02*
X1480Y2116D01*
X1493Y2116D02*
X1523Y2116D01*
X250Y2115D02*
X277Y2115D01*
X296Y2115D02*
X323Y2115D01*
X1450Y2115D02*
X1477Y2115D01*
X1495Y2115D02*
X1523Y2115D01*
X250Y2114D02*
X275Y2114D01*
X297Y2114D02*
X323Y2114D01*
X1450Y2114D02*
X1475Y2114D01*
X1497Y2114D02*
X1523Y2114D01*
X250Y2113D02*
X274Y2113D01*
X299Y2113D02*
X323Y2113D01*
X1450Y2113D02*
X1474Y2113D01*
X1498Y2113D02*
X1523Y2113D01*
X250Y2112D02*
X273Y2112D01*
X300Y2112D02*
X323Y2112D01*
X1450Y2112D02*
X1472Y2112D01*
X1500Y2112D02*
X1523Y2112D01*
X250Y2111D02*
X272Y2111D01*
X301Y2111D02*
X323Y2111D01*
X1450Y2111D02*
X1471Y2111D01*
X1501Y2111D02*
X1523Y2111D01*
X250Y2110D02*
X271Y2110D01*
X302Y2110D02*
X323Y2110D01*
X1450Y2110D02*
X1470Y2110D01*
X1502Y2110D02*
X1523Y2110D01*
X250Y2109D02*
X270Y2109D01*
X303Y2109D02*
X323Y2109D01*
X1450Y2109D02*
X1470Y2109D01*
X1502Y2109D02*
X1523Y2109D01*
X250Y2108D02*
X269Y2108D01*
X304Y2108D02*
X323Y2108D01*
X1450Y2108D02*
X1469Y2108D01*
X1503Y2108D02*
X1523Y2108D01*
X250Y2107D02*
X269Y2107D01*
X304Y2107D02*
X323Y2107D01*
X1450Y2107D02*
X1468Y2107D01*
X1504Y2107D02*
X1523Y2107D01*
X250Y2106D02*
X268Y2106D01*
X305Y2106D02*
X323Y2106D01*
X1450Y2106D02*
X1468Y2106D01*
X1504Y2106D02*
X1523Y2106D01*
X250Y2105D02*
X268Y2105D01*
X305Y2105D02*
X323Y2105D01*
X1450Y2105D02*
X1467Y2105D01*
X1505Y2105D02*
X1523Y2105D01*
X250Y2104D02*
X267Y2104D01*
X306Y2104D02*
X323Y2104D01*
X1450Y2104D02*
X1467Y2104D01*
X1505Y2104D02*
X1523Y2104D01*
X250Y2103D02*
X267Y2103D01*
X306Y2103D02*
X323Y2103D01*
X1450Y2103D02*
X1467Y2103D01*
X1506Y2103D02*
X1523Y2103D01*
X250Y2102D02*
X267Y2102D01*
X306Y2102D02*
X323Y2102D01*
X1450Y2102D02*
X1466Y2102D01*
X1506Y2102D02*
X1523Y2102D01*
X250Y2101D02*
X266Y2101D01*
X306Y2101D02*
X323Y2101D01*
X1450Y2101D02*
X1466Y2101D01*
X1506Y2101D02*
X1523Y2101D01*
X250Y2100D02*
X266Y2100D01*
X307Y2100D02*
X323Y2100D01*
X1450Y2100D02*
X1466Y2100D01*
X1506Y2100D02*
X1523Y2100D01*
X250Y2099D02*
X266Y2099D01*
X307Y2099D02*
X323Y2099D01*
X1450Y2099D02*
X1466Y2099D01*
X1506Y2099D02*
X1523Y2099D01*
X250Y2098D02*
X266Y2098D01*
X307Y2098D02*
X323Y2098D01*
X1450Y2098D02*
X1466Y2098D01*
X1506Y2098D02*
X1523Y2098D01*
X250Y2097D02*
X266Y2097D01*
X307Y2097D02*
X323Y2097D01*
X1450Y2097D02*
X1466Y2097D01*
X1507Y2097D02*
X1523Y2097D01*
X250Y2096D02*
X266Y2096D01*
X307Y2096D02*
X323Y2096D01*
X1450Y2096D02*
X1466Y2096D01*
X1506Y2096D02*
X1523Y2096D01*
X250Y2095D02*
X266Y2095D01*
X307Y2095D02*
X323Y2095D01*
X1450Y2095D02*
X1466Y2095D01*
X1506Y2095D02*
X1523Y2095D01*
X250Y2094D02*
X266Y2094D01*
X307Y2094D02*
X323Y2094D01*
X1450Y2094D02*
X1466Y2094D01*
X1506Y2094D02*
X1523Y2094D01*
X250Y2093D02*
X266Y2093D01*
X306Y2093D02*
X323Y2093D01*
X1450Y2093D02*
X1466Y2093D01*
X1506Y2093D02*
X1523Y2093D01*
X250Y2092D02*
X267Y2092D01*
X306Y2092D02*
X323Y2092D01*
X1450Y2092D02*
X1466Y2092D01*
X1506Y2092D02*
X1523Y2092D01*
X250Y2091D02*
X267Y2091D01*
X306Y2091D02*
X323Y2091D01*
X1450Y2091D02*
X1467Y2091D01*
X1506Y2091D02*
X1523Y2091D01*
X250Y2090D02*
X267Y2090D01*
X306Y2090D02*
X323Y2090D01*
X1450Y2090D02*
X1467Y2090D01*
X1505Y2090D02*
X1523Y2090D01*
X250Y2089D02*
X268Y2089D01*
X305Y2089D02*
X323Y2089D01*
X1450Y2089D02*
X1467Y2089D01*
X1505Y2089D02*
X1523Y2089D01*
X250Y2088D02*
X268Y2088D01*
X305Y2088D02*
X323Y2088D01*
X1450Y2088D02*
X1468Y2088D01*
X1504Y2088D02*
X1523Y2088D01*
X250Y2087D02*
X269Y2087D01*
X304Y2087D02*
X323Y2087D01*
X1450Y2087D02*
X1468Y2087D01*
X1504Y2087D02*
X1523Y2087D01*
X250Y2086D02*
X269Y2086D01*
X304Y2086D02*
X323Y2086D01*
X1450Y2086D02*
X1469Y2086D01*
X1503Y2086D02*
X1523Y2086D01*
X250Y2085D02*
X270Y2085D01*
X303Y2085D02*
X323Y2085D01*
X1450Y2085D02*
X1470Y2085D01*
X1502Y2085D02*
X1523Y2085D01*
X250Y2084D02*
X271Y2084D01*
X302Y2084D02*
X323Y2084D01*
X1450Y2084D02*
X1471Y2084D01*
X1502Y2084D02*
X1523Y2084D01*
X250Y2083D02*
X272Y2083D01*
X301Y2083D02*
X323Y2083D01*
X1450Y2083D02*
X1471Y2083D01*
X1501Y2083D02*
X1523Y2083D01*
X250Y2082D02*
X273Y2082D01*
X300Y2082D02*
X323Y2082D01*
X1450Y2082D02*
X1473Y2082D01*
X1500Y2082D02*
X1523Y2082D01*
X250Y2081D02*
X274Y2081D01*
X299Y2081D02*
X323Y2081D01*
X1450Y2081D02*
X1474Y2081D01*
X1498Y2081D02*
X1523Y2081D01*
X250Y2080D02*
X276Y2080D01*
X297Y2080D02*
X323Y2080D01*
X1450Y2080D02*
X1475Y2080D01*
X1497Y2080D02*
X1523Y2080D01*
X250Y2079D02*
X277Y2079D01*
X295Y2079D02*
X323Y2079D01*
X1450Y2079D02*
X1477Y2079D01*
X1495Y2079D02*
X1523Y2079D01*
X250Y2078D02*
X280Y2078D01*
X293Y2078D02*
X323Y2078D01*
X1450Y2078D02*
X1480Y2078D01*
X1492Y2078D02*
X1523Y2078D01*
X250Y2077D02*
X323Y2077D01*
X1450Y2077D02*
X1523Y2077D01*
X250Y2076D02*
X323Y2076D01*
X1450Y2076D02*
X1523Y2076D01*
X250Y2075D02*
X323Y2075D01*
X1450Y2075D02*
X1523Y2075D01*
X250Y2074D02*
X323Y2074D01*
X1450Y2074D02*
X1523Y2074D01*
X250Y2073D02*
X323Y2073D01*
X1450Y2073D02*
X1523Y2073D01*
X250Y2072D02*
X323Y2072D01*
X1450Y2072D02*
X1523Y2072D01*
X250Y2071D02*
X323Y2071D01*
X1450Y2071D02*
X1523Y2071D01*
X250Y2070D02*
X323Y2070D01*
X1450Y2070D02*
X1523Y2070D01*
X250Y2069D02*
X323Y2069D01*
X1450Y2069D02*
X1523Y2069D01*
X250Y2068D02*
X323Y2068D01*
X1450Y2068D02*
X1523Y2068D01*
X250Y2067D02*
X323Y2067D01*
X1450Y2067D02*
X1523Y2067D01*
X250Y2066D02*
X323Y2066D01*
X1450Y2066D02*
X1523Y2066D01*
X250Y2065D02*
X323Y2065D01*
X1450Y2065D02*
X1523Y2065D01*
X250Y2064D02*
X323Y2064D01*
X1450Y2064D02*
X1523Y2064D01*
X250Y2063D02*
X323Y2063D01*
X1450Y2063D02*
X1523Y2063D01*
X250Y2062D02*
X323Y2062D01*
X1450Y2062D02*
X1523Y2062D01*
X250Y2061D02*
X323Y2061D01*
X1450Y2061D02*
X1523Y2061D01*
X350Y234D02*
X423Y234D01*
X350Y233D02*
X423Y233D01*
X350Y232D02*
X423Y232D01*
X350Y231D02*
X423Y231D01*
X350Y230D02*
X423Y230D01*
X350Y229D02*
X423Y229D01*
X350Y228D02*
X423Y228D01*
X350Y227D02*
X423Y227D01*
X350Y226D02*
X423Y226D01*
X350Y225D02*
X423Y225D01*
X350Y224D02*
X423Y224D01*
X350Y223D02*
X423Y223D01*
X350Y222D02*
X423Y222D01*
X350Y221D02*
X423Y221D01*
X350Y220D02*
X423Y220D01*
X350Y219D02*
X423Y219D01*
X350Y218D02*
X423Y218D01*
X350Y217D02*
X383Y217D01*
X390Y217D02*
X423Y217D01*
X350Y216D02*
X379Y216D01*
X394Y216D02*
X423Y216D01*
X350Y215D02*
X377Y215D01*
X396Y215D02*
X423Y215D01*
X350Y214D02*
X375Y214D01*
X398Y214D02*
X423Y214D01*
X350Y213D02*
X374Y213D01*
X399Y213D02*
X423Y213D01*
X350Y212D02*
X372Y212D01*
X400Y212D02*
X423Y212D01*
X350Y211D02*
X371Y211D01*
X401Y211D02*
X423Y211D01*
X350Y210D02*
X371Y210D01*
X402Y210D02*
X423Y210D01*
X350Y209D02*
X370Y209D01*
X403Y209D02*
X423Y209D01*
X350Y208D02*
X369Y208D01*
X404Y208D02*
X423Y208D01*
X350Y207D02*
X368Y207D01*
X404Y207D02*
X423Y207D01*
X350Y206D02*
X368Y206D01*
X405Y206D02*
X423Y206D01*
X350Y205D02*
X367Y205D01*
X405Y205D02*
X423Y205D01*
X350Y204D02*
X367Y204D01*
X406Y204D02*
X423Y204D01*
X350Y203D02*
X367Y203D01*
X406Y203D02*
X423Y203D01*
X350Y202D02*
X366Y202D01*
X406Y202D02*
X423Y202D01*
X350Y201D02*
X366Y201D01*
X406Y201D02*
X423Y201D01*
X350Y200D02*
X366Y200D01*
X407Y200D02*
X423Y200D01*
X350Y199D02*
X366Y199D01*
X407Y199D02*
X423Y199D01*
X350Y198D02*
X366Y198D01*
X407Y198D02*
X423Y198D01*
X350Y197D02*
X366Y197D01*
X407Y197D02*
X423Y197D01*
X350Y196D02*
X366Y196D01*
X407Y196D02*
X423Y196D01*
X350Y195D02*
X366Y195D01*
X407Y195D02*
X423Y195D01*
X350Y194D02*
X366Y194D01*
X407Y194D02*
X423Y194D01*
X350Y193D02*
X366Y193D01*
X406Y193D02*
X423Y193D01*
X350Y192D02*
X367Y192D01*
X406Y192D02*
X423Y192D01*
X350Y191D02*
X367Y191D01*
X406Y191D02*
X423Y191D01*
X350Y190D02*
X367Y190D01*
X405Y190D02*
X423Y190D01*
X350Y189D02*
X368Y189D01*
X405Y189D02*
X423Y189D01*
X350Y188D02*
X368Y188D01*
X404Y188D02*
X423Y188D01*
X350Y187D02*
X369Y187D01*
X404Y187D02*
X423Y187D01*
X350Y186D02*
X369Y186D01*
X403Y186D02*
X423Y186D01*
X350Y185D02*
X370Y185D01*
X402Y185D02*
X423Y185D01*
X350Y184D02*
X371Y184D01*
X402Y184D02*
X423Y184D01*
X350Y183D02*
X372Y183D01*
X401Y183D02*
X423Y183D01*
X350Y182D02*
X373Y182D01*
X400Y182D02*
X423Y182D01*
X350Y181D02*
X374Y181D01*
X398Y181D02*
X423Y181D01*
X350Y180D02*
X376Y180D01*
X397Y180D02*
X423Y180D01*
X350Y179D02*
X378Y179D01*
X395Y179D02*
X423Y179D01*
X350Y178D02*
X381Y178D01*
X392Y178D02*
X423Y178D01*
X350Y177D02*
X423Y177D01*
X350Y176D02*
X423Y176D01*
X350Y175D02*
X423Y175D01*
X350Y174D02*
X423Y174D01*
X350Y173D02*
X423Y173D01*
X350Y172D02*
X423Y172D01*
X350Y171D02*
X423Y171D01*
X350Y170D02*
X423Y170D01*
X350Y169D02*
X423Y169D01*
X350Y168D02*
X423Y168D01*
X350Y167D02*
X423Y167D01*
X350Y166D02*
X423Y166D01*
X350Y165D02*
X423Y165D01*
X350Y164D02*
X423Y164D01*
X350Y163D02*
X423Y163D01*
X350Y162D02*
X423Y162D01*
X350Y161D02*
X423Y161D01*
D02*
G04 End of Copper1*
M02*