; NON-PLATED HOLES START AT T1
; THROUGH (PLATED) HOLES START AT T100
M48
INCH
T1C0.122047
T100C0.035433
T101C0.052000
T102C0.035000
%
T1
X000869Y000968
X023869Y000968
X000869Y028968
X023869Y028968
T100
X014869Y016968
X005869Y020968
X002869Y025968
X009869Y001968
X001869Y005968
X001869Y003968
X003869Y004968
X014869Y022968
X002869Y021968
X003869Y002968
X014869Y025968
X014869Y002968
X014869Y012968
X003869Y013968
X021869Y024968
X001869Y001968
X003869Y007968
X008869Y001968
X014869Y010968
X021869Y026968
X003869Y003968
X014869Y004968
X002869Y024968
X018869Y024968
X014869Y003968
X021869Y025968
X003869Y009968
X014869Y021968
X014869Y011968
X005869Y023968
X005869Y019968
X003869Y010968
X003869Y005968
X001869Y002968
X003869Y016968
X014869Y006968
X005869Y021968
X014869Y013968
X005869Y025968
X014869Y007968
X014869Y023968
X003869Y008968
X003869Y015968
X014869Y020968
X003869Y014968
X014869Y008968
X005869Y024968
X021869Y023968
X018869Y022968
X014869Y005968
X018869Y025968
X003869Y012968
X014869Y014968
X014869Y009968
X014869Y015968
X005869Y022968
X003869Y006968
X014869Y024968
X018869Y023968
X010869Y001968
X002869Y020968
X003869Y011968
X001869Y004968
X002869Y022968
X002869Y023968
T101
X020869Y003968
X017869Y003968
T102
X020869Y007968
X016869Y007968
X018869Y008968
X020869Y006968
X015869Y016968
X016869Y006968
X018869Y012968
X019869Y016968
T00
M30
