; NON-PLATED HOLES START AT T1
; THROUGH (PLATED) HOLES START AT T100
M48
INCH
T1C0.122047
T2C0.088583
T3C0.086614
T100C0.040000
T101C0.025000
T102C0.036089
T103C0.052000
T104C0.022334
T105C0.035000
T106C0.032000
T107C0.038000
%
T1
X000869Y000968
X000869Y028968
X023869Y000968
X023869Y028968
T2
X018869Y020968
T3
X003869Y020968
X018869Y028968
X003869Y028968
T100
X002869Y025968
X014869Y025968
X014869Y021968
X002869Y020968
X003869Y006968
X002869Y024968
X003869Y004968
X014869Y020968
X003869Y005968
X014869Y024968
X003869Y001968
X014869Y022968
X002869Y021968
X014869Y023968
X002869Y022968
X003869Y003968
X003869Y002968
X002869Y023968
T101
X021869Y025180
X021869Y026754
X021869Y027542
X021869Y025968
T102
X005852Y019968
X005852Y020968
X005852Y021968
X005852Y023968
X005870Y024968
X005870Y025968
X005870Y022968
T103
X020869Y003968
X017869Y003968
T104
X014869Y016961
X005896Y010970
X005896Y005977
X005896Y015962
X014869Y012967
X014869Y011968
X005896Y008973
X005896Y012967
X014869Y010970
X014869Y003980
X005896Y004979
X014869Y005977
X014869Y009971
X005896Y011968
X005896Y003980
X014869Y007974
X005896Y002982
X014869Y002982
X005896Y014964
X005896Y016961
X005896Y013965
X005896Y009971
X014869Y006976
X005896Y006976
X014869Y004979
X005896Y007974
X014869Y014964
X014869Y015962
X014869Y013965
X014869Y008973
T105
X015869Y007968
X018869Y012968
X018869Y008968
X019869Y006968
X019869Y016968
X015869Y016968
X019869Y007968
X015869Y006968
T106
X018869Y024968
X018869Y024181
X018869Y025756
X018869Y026543
T107
X008869Y009461
X009869Y009461
X010873Y009461
T00
M30
