G04 MADE WITH FRITZING*
G04 WWW.FRITZING.ORG*
G04 DOUBLE SIDED*
G04 HOLES PLATED*
G04 CONTOUR ON CENTER OF CONTOUR VECTOR*
%ASAXBY*%
%FSLAX23Y23*%
%MOIN*%
%OFA0B0*%
%SFA1.0B1.0*%
%ADD10C,0.084803*%
%ADD11C,0.132047*%
%ADD12C,0.085000*%
%ADD13C,0.102000*%
%ADD14R,0.102000X0.102000*%
%LNMASK1*%
G90*
G70*
G54D10*
X287Y2595D03*
X287Y2195D03*
X287Y2495D03*
X287Y2695D03*
X287Y2395D03*
X287Y2295D03*
X1487Y2695D03*
X1487Y2595D03*
X1487Y2495D03*
X1487Y2395D03*
X1487Y2295D03*
X1487Y2195D03*
X2187Y2495D03*
X2187Y2395D03*
X2187Y2595D03*
X2187Y2695D03*
X1887Y2395D03*
X1887Y2495D03*
X1887Y2595D03*
X1887Y2695D03*
X587Y2195D03*
X587Y2295D03*
X587Y2095D03*
X587Y2395D03*
X587Y2495D03*
X587Y2695D03*
X587Y2595D03*
X187Y395D03*
X187Y495D03*
X187Y295D03*
X187Y695D03*
X187Y595D03*
X1487Y1895D03*
X1487Y1395D03*
X1487Y695D03*
X1487Y1295D03*
X1487Y595D03*
X1487Y495D03*
X1487Y1495D03*
X1487Y1795D03*
X1487Y895D03*
X1487Y1595D03*
X1487Y1195D03*
X1487Y1695D03*
X1487Y995D03*
X1487Y1095D03*
X1487Y795D03*
X687Y695D03*
X687Y595D03*
X687Y495D03*
X387Y1895D03*
X387Y1695D03*
X387Y1795D03*
X387Y1495D03*
X387Y1595D03*
X387Y1395D03*
X387Y1295D03*
X387Y1095D03*
X387Y1195D03*
X387Y995D03*
X387Y895D03*
X387Y695D03*
X387Y795D03*
X387Y495D03*
X387Y595D03*
G54D11*
X2387Y2895D03*
X2387Y95D03*
X87Y95D03*
X87Y2895D03*
G54D12*
X2087Y895D03*
X1687Y895D03*
X1987Y1895D03*
X1587Y1895D03*
X2087Y795D03*
X1687Y795D03*
G54D13*
X2087Y495D03*
X1787Y495D03*
G54D12*
X1887Y995D03*
X1887Y1395D03*
G54D14*
X2087Y495D03*
G04 End of Mask1*
M02*