; NON-PLATED HOLES START AT T1
; THROUGH (PLATED) HOLES START AT T100
M48
INCH
T1C0.122047
T2C0.088583
T3C0.086614
T100C0.052000
T101C0.038000
T102C0.035000
T103C0.035433
%
T1
X000869Y000968
X023869Y000968
X000869Y028968
X023869Y028968
T2
X018869Y020968
T3
X003869Y028968
X003869Y020968
X018869Y028968
T100
X017869Y003968
X020869Y003968
T101
X009869Y009461
X010873Y009461
X008869Y009461
T102
X018869Y012968
X020869Y006968
X019869Y016968
X016869Y007968
X016869Y006968
X018869Y008968
X015869Y016968
X020869Y007968
T103
X018869Y022968
X005869Y003968
X002869Y023968
X014869Y020968
X014869Y009968
X014869Y006968
X005869Y006968
X014869Y025968
X018869Y025968
X005869Y022968
X014869Y022968
X018869Y024968
X005869Y005968
X014869Y005968
X005869Y002968
X005869Y008968
X002869Y001968
X014869Y023968
X014869Y002968
X021869Y024968
X005869Y013968
X014869Y014968
X005869Y010968
X014869Y021968
X005869Y025968
X002869Y022968
X018869Y023968
X014869Y024968
X002869Y005968
X005869Y015968
X002869Y002968
X005869Y021968
X014869Y007968
X014869Y012968
X005869Y023968
X005869Y007968
X002869Y025968
X014869Y011968
X005869Y014968
X005869Y020968
X014869Y010968
X005869Y019968
X005869Y016968
X005869Y009968
X014869Y015968
X014869Y004968
X014869Y003968
X005869Y011968
X002869Y021968
X002869Y004968
X014869Y008968
X002869Y020968
X005869Y004968
X014869Y013968
X005869Y024968
X005869Y012968
X014869Y016968
X002869Y003968
X021869Y025968
X002869Y024968
X021869Y026968
X021869Y027968
T00
M30
