G04 MADE WITH FRITZING*
G04 WWW.FRITZING.ORG*
G04 DOUBLE SIDED*
G04 HOLES PLATED*
G04 CONTOUR ON CENTER OF CONTOUR VECTOR*
%ASAXBY*%
%FSLAX23Y23*%
%MOIN*%
%OFA0B0*%
%SFA1.0B1.0*%
%ADD10C,0.074803*%
%ADD11C,0.075000*%
%ADD12C,0.092000*%
%ADD13C,0.078000*%
%ADD14R,0.092000X0.092000*%
%ADD15R,0.078000X0.078000*%
%ADD16C,0.024000*%
%LNCOPPER0*%
G90*
G70*
G54D10*
X287Y2497D03*
X287Y2097D03*
X287Y2397D03*
X287Y2597D03*
X287Y2297D03*
X287Y2197D03*
X1487Y2597D03*
X1487Y2497D03*
X1487Y2397D03*
X1487Y2297D03*
X1487Y2197D03*
X1487Y2097D03*
X2187Y2497D03*
X2187Y2397D03*
X2187Y2597D03*
X2187Y2697D03*
X1887Y2297D03*
X1887Y2397D03*
X1887Y2497D03*
X1887Y2597D03*
X587Y2097D03*
X587Y2197D03*
X587Y1997D03*
X587Y2297D03*
X587Y2397D03*
X587Y2597D03*
X587Y2497D03*
X187Y297D03*
X187Y397D03*
X187Y197D03*
X187Y597D03*
X187Y497D03*
X1487Y1697D03*
X1487Y1197D03*
X1487Y497D03*
X1487Y1097D03*
X1487Y397D03*
X1487Y297D03*
X1487Y1297D03*
X1487Y1597D03*
X1487Y697D03*
X1487Y1397D03*
X1487Y997D03*
X1487Y1497D03*
X1487Y797D03*
X1487Y897D03*
X1487Y597D03*
X387Y1697D03*
X387Y1497D03*
X387Y1597D03*
X387Y1297D03*
X387Y1397D03*
X387Y1197D03*
X387Y1097D03*
X387Y897D03*
X387Y997D03*
X387Y797D03*
X387Y697D03*
X387Y497D03*
X387Y597D03*
X387Y297D03*
X387Y397D03*
G54D11*
X2087Y797D03*
X1687Y797D03*
X1987Y1697D03*
X1587Y1697D03*
X2087Y697D03*
X1687Y697D03*
G54D12*
X2087Y397D03*
X1787Y397D03*
G54D13*
X1087Y946D03*
X987Y946D03*
X887Y946D03*
G54D11*
X1887Y897D03*
X1887Y1297D03*
G54D14*
X2087Y397D03*
G54D15*
X887Y947D03*
G54D16*
X289Y1597D02*
X358Y1597D01*
D02*
X289Y295D02*
X208Y217D01*
D02*
X358Y296D02*
X289Y295D01*
D02*
X289Y596D02*
X216Y597D01*
D02*
X289Y397D02*
X289Y596D01*
D02*
X358Y397D02*
X289Y397D01*
D02*
X1786Y1097D02*
X1787Y434D01*
D02*
X1516Y1097D02*
X1786Y1097D01*
D02*
X589Y2692D02*
X588Y2626D01*
D02*
X589Y2692D02*
X1788Y2699D01*
D02*
X1788Y2498D02*
X1867Y2417D01*
D02*
X1788Y2699D02*
X1788Y2498D01*
D02*
X87Y2698D02*
X589Y2692D01*
D02*
X1786Y1997D02*
X1686Y1997D01*
D02*
X1686Y1997D02*
X1686Y2496D01*
D02*
X1686Y2496D02*
X1516Y2497D01*
D02*
X1786Y1498D02*
X1786Y1997D01*
D02*
X1516Y1497D02*
X1786Y1498D01*
D02*
X1686Y1598D02*
X1686Y1896D01*
D02*
X1587Y2396D02*
X1516Y2397D01*
D02*
X1585Y1896D02*
X1587Y2396D01*
D02*
X1686Y1896D02*
X1585Y1896D01*
D02*
X1516Y1597D02*
X1686Y1598D01*
D02*
X1786Y2698D02*
X2086Y2698D01*
D02*
X2086Y2497D02*
X2158Y2497D01*
D02*
X2086Y2698D02*
X2086Y2497D01*
D02*
X1788Y2699D02*
X1786Y2698D01*
D02*
X87Y2596D02*
X258Y2597D01*
D02*
X185Y2499D02*
X258Y2497D01*
D02*
X186Y1598D02*
X185Y2499D01*
D02*
X289Y1597D02*
X186Y1598D01*
D02*
X286Y1798D02*
X289Y1597D01*
D02*
X487Y1798D02*
X286Y1798D01*
D02*
X486Y2498D02*
X487Y1798D01*
D02*
X558Y2497D02*
X486Y2498D01*
D02*
X87Y2596D02*
X87Y2698D01*
D02*
X86Y1495D02*
X87Y2596D01*
D02*
X358Y1497D02*
X86Y1495D01*
D02*
X988Y2399D02*
X985Y2399D01*
D02*
X985Y2399D02*
X616Y2397D01*
D02*
X988Y1598D02*
X988Y2399D01*
D02*
X1458Y1597D02*
X988Y1598D01*
D02*
X887Y2296D02*
X616Y2297D01*
D02*
X890Y1500D02*
X887Y2296D01*
D02*
X1458Y1497D02*
X890Y1500D01*
D02*
X1685Y1298D02*
X1858Y1297D01*
D02*
X1685Y1200D02*
X1685Y1298D01*
D02*
X1516Y1197D02*
X1685Y1200D01*
D02*
X2189Y1396D02*
X1516Y1397D01*
D02*
X2189Y897D02*
X2189Y1396D01*
D02*
X2189Y397D02*
X2124Y397D01*
D02*
X2189Y897D02*
X2189Y397D01*
D02*
X1890Y868D02*
X1887Y894D01*
D02*
X1887Y894D02*
X2189Y897D01*
D02*
X687Y1496D02*
X684Y1396D01*
D02*
X416Y1497D02*
X687Y1496D01*
D02*
X684Y1396D02*
X988Y1396D01*
D02*
X988Y1396D02*
X987Y976D01*
D02*
X890Y796D02*
X888Y916D01*
D02*
X416Y797D02*
X890Y796D01*
D02*
X1086Y1298D02*
X1087Y976D01*
D02*
X1458Y1297D02*
X1086Y1298D01*
G04 End of Copper0*
M02*