G04 MADE WITH FRITZING*
G04 WWW.FRITZING.ORG*
G04 DOUBLE SIDED*
G04 HOLES PLATED*
G04 CONTOUR ON CENTER OF CONTOUR VECTOR*
%ASAXBY*%
%FSLAX23Y23*%
%MOIN*%
%OFA0B0*%
%SFA1.0B1.0*%
%ADD10C,0.074803*%
%ADD11C,0.075000*%
%ADD12C,0.092000*%
%ADD13R,0.092000X0.092000*%
%ADD14C,0.024000*%
%LNCOPPER1*%
G90*
G70*
G54D10*
X287Y2497D03*
X287Y2097D03*
X287Y2397D03*
X287Y2597D03*
X287Y2297D03*
X287Y2197D03*
X1487Y2597D03*
X1487Y2497D03*
X1487Y2397D03*
X1487Y2297D03*
X1487Y2197D03*
X1487Y2097D03*
X2187Y2497D03*
X2187Y2397D03*
X2187Y2597D03*
X2187Y2697D03*
X1887Y2297D03*
X1887Y2397D03*
X1887Y2497D03*
X1887Y2597D03*
X587Y2097D03*
X587Y2197D03*
X587Y1997D03*
X587Y2297D03*
X587Y2397D03*
X587Y2597D03*
X587Y2497D03*
X187Y297D03*
X187Y397D03*
X187Y197D03*
X187Y597D03*
X187Y497D03*
X1487Y1697D03*
X1487Y1197D03*
X1487Y497D03*
X1487Y1097D03*
X1487Y397D03*
X1487Y297D03*
X1487Y1297D03*
X1487Y1597D03*
X1487Y697D03*
X1487Y1397D03*
X1487Y997D03*
X1487Y1497D03*
X1487Y797D03*
X1487Y897D03*
X1487Y597D03*
X887Y197D03*
X987Y197D03*
X1087Y197D03*
X387Y1697D03*
X387Y1497D03*
X387Y1597D03*
X387Y1297D03*
X387Y1397D03*
X387Y1197D03*
X387Y1097D03*
X387Y897D03*
X387Y997D03*
X387Y797D03*
X387Y697D03*
X387Y497D03*
X387Y597D03*
X387Y297D03*
X387Y397D03*
G54D11*
X2087Y797D03*
X1687Y797D03*
X1987Y1697D03*
X1587Y1697D03*
X2087Y697D03*
X1687Y697D03*
G54D12*
X2087Y397D03*
X1787Y397D03*
G54D11*
X1887Y897D03*
X1887Y1297D03*
G54D13*
X2087Y397D03*
G54D14*
X1516Y1697D02*
X1558Y1697D01*
D02*
X2385Y2698D02*
X2216Y2697D01*
D02*
X2287Y2597D02*
X2216Y2597D01*
D02*
X1516Y697D02*
X1658Y697D01*
D02*
X1516Y797D02*
X1658Y797D01*
D02*
X1686Y2298D02*
X1858Y2297D01*
D02*
X1688Y1098D02*
X1686Y2298D01*
D02*
X1516Y1097D02*
X1688Y1098D01*
D02*
X2187Y2368D02*
X2188Y1696D01*
D02*
X2188Y1696D02*
X2016Y1697D01*
D02*
X2385Y2698D02*
X2388Y696D01*
D02*
X2388Y696D02*
X2116Y697D01*
D02*
X1888Y2698D02*
X1887Y2626D01*
D02*
X1288Y2697D02*
X1888Y2698D01*
D02*
X1288Y996D02*
X1288Y2697D01*
D02*
X1458Y997D02*
X1288Y996D01*
D02*
X1788Y2196D02*
X1988Y2196D01*
D02*
X1988Y2498D02*
X1916Y2497D01*
D02*
X1988Y2196D02*
X1988Y2498D01*
D02*
X1786Y897D02*
X1788Y2196D01*
D02*
X1516Y897D02*
X1786Y897D01*
D02*
X2287Y2597D02*
X2288Y796D01*
D02*
X2288Y796D02*
X2116Y797D01*
G04 End of Copper1*
M02*