G04 MADE WITH FRITZING*
G04 WWW.FRITZING.ORG*
G04 DOUBLE SIDED*
G04 HOLES PLATED*
G04 CONTOUR ON CENTER OF CONTOUR VECTOR*
%ASAXBY*%
%FSLAX23Y23*%
%MOIN*%
%OFA0B0*%
%SFA1.0B1.0*%
%ADD10C,0.084000*%
%ADD11C,0.132047*%
%ADD12C,0.098583*%
%ADD13C,0.096614*%
%ADD14C,0.085000*%
%ADD15C,0.057829*%
%ADD16C,0.075000*%
%ADD17C,0.102000*%
%ADD18C,0.088000*%
%ADD19C,0.069200*%
%ADD20R,0.102000X0.102000*%
%ADD21R,0.088000X0.088000*%
%ADD22R,0.069200X0.069200*%
%ADD23R,0.001000X0.001000*%
%LNMASK1*%
G90*
G70*
G54D10*
X387Y197D03*
X387Y297D03*
X387Y397D03*
X387Y497D03*
X387Y597D03*
X387Y697D03*
X387Y197D03*
X387Y297D03*
X387Y397D03*
X387Y497D03*
X387Y597D03*
X387Y697D03*
G54D11*
X2387Y2897D03*
X2387Y97D03*
X87Y97D03*
X87Y2897D03*
G54D10*
X287Y2097D03*
X287Y2197D03*
X287Y2297D03*
X287Y2397D03*
X287Y2497D03*
X287Y2597D03*
X287Y2097D03*
X287Y2197D03*
X287Y2297D03*
X287Y2397D03*
X287Y2497D03*
X287Y2597D03*
X1487Y2097D03*
X1487Y2197D03*
X1487Y2297D03*
X1487Y2397D03*
X1487Y2497D03*
X1487Y2597D03*
X1487Y2097D03*
X1487Y2197D03*
X1487Y2297D03*
X1487Y2397D03*
X1487Y2497D03*
X1487Y2597D03*
G54D12*
X1887Y2097D03*
G54D13*
X1887Y2897D03*
X387Y2097D03*
X387Y2897D03*
G54D14*
X1987Y797D03*
X1587Y797D03*
X1987Y1697D03*
X1587Y1697D03*
X1987Y697D03*
X1587Y697D03*
G54D15*
X1487Y1496D03*
X590Y1696D03*
X590Y1596D03*
X590Y1496D03*
X590Y1397D03*
X590Y1297D03*
X1487Y1596D03*
X1487Y1696D03*
X1487Y1397D03*
X590Y1197D03*
X590Y1097D03*
X590Y997D03*
X590Y897D03*
X590Y797D03*
X590Y698D03*
X590Y598D03*
X590Y498D03*
X590Y398D03*
X590Y298D03*
X1487Y997D03*
X1487Y897D03*
X1487Y797D03*
X1487Y698D03*
X1487Y598D03*
X1487Y498D03*
X1487Y398D03*
X1487Y298D03*
X1487Y1297D03*
X1487Y1197D03*
X1487Y1097D03*
G54D16*
X2187Y2518D03*
X2187Y2597D03*
X2187Y2675D03*
X2187Y2754D03*
G54D17*
X2087Y397D03*
X1787Y397D03*
G54D18*
X1087Y946D03*
X987Y946D03*
X887Y946D03*
G54D19*
X1887Y2654D03*
X1887Y2418D03*
X1887Y2497D03*
X1887Y2576D03*
G54D14*
X1887Y897D03*
X1887Y1297D03*
G54D20*
X2087Y397D03*
G54D21*
X887Y947D03*
G54D22*
X1887Y2654D03*
G54D23*
X245Y2139D02*
X327Y2139D01*
X1445Y2139D02*
X1527Y2139D01*
X245Y2138D02*
X328Y2138D01*
X1445Y2138D02*
X1528Y2138D01*
X245Y2137D02*
X328Y2137D01*
X1445Y2137D02*
X1528Y2137D01*
X245Y2136D02*
X328Y2136D01*
X1445Y2136D02*
X1528Y2136D01*
X245Y2135D02*
X328Y2135D01*
X1445Y2135D02*
X1528Y2135D01*
X245Y2134D02*
X328Y2134D01*
X1445Y2134D02*
X1528Y2134D01*
X245Y2133D02*
X328Y2133D01*
X1445Y2133D02*
X1528Y2133D01*
X245Y2132D02*
X328Y2132D01*
X1445Y2132D02*
X1528Y2132D01*
X245Y2131D02*
X328Y2131D01*
X1445Y2131D02*
X1528Y2131D01*
X245Y2130D02*
X328Y2130D01*
X1445Y2130D02*
X1528Y2130D01*
X245Y2129D02*
X328Y2129D01*
X1445Y2129D02*
X1528Y2129D01*
X245Y2128D02*
X328Y2128D01*
X1445Y2128D02*
X1528Y2128D01*
X245Y2127D02*
X328Y2127D01*
X1445Y2127D02*
X1528Y2127D01*
X245Y2126D02*
X328Y2126D01*
X1445Y2126D02*
X1528Y2126D01*
X245Y2125D02*
X328Y2125D01*
X1445Y2125D02*
X1528Y2125D01*
X245Y2124D02*
X328Y2124D01*
X1445Y2124D02*
X1528Y2124D01*
X245Y2123D02*
X328Y2123D01*
X1445Y2123D02*
X1528Y2123D01*
X245Y2122D02*
X328Y2122D01*
X1445Y2122D02*
X1528Y2122D01*
X245Y2121D02*
X328Y2121D01*
X1445Y2121D02*
X1528Y2121D01*
X245Y2120D02*
X328Y2120D01*
X1445Y2120D02*
X1528Y2120D01*
X245Y2119D02*
X328Y2119D01*
X1445Y2119D02*
X1528Y2119D01*
X245Y2118D02*
X328Y2118D01*
X1445Y2118D02*
X1528Y2118D01*
X245Y2117D02*
X328Y2117D01*
X1445Y2117D02*
X1528Y2117D01*
X245Y2116D02*
X328Y2116D01*
X1445Y2116D02*
X1528Y2116D01*
X245Y2115D02*
X328Y2115D01*
X1445Y2115D02*
X1528Y2115D01*
X245Y2114D02*
X328Y2114D01*
X1445Y2114D02*
X1528Y2114D01*
X245Y2113D02*
X328Y2113D01*
X1445Y2113D02*
X1528Y2113D01*
X245Y2112D02*
X328Y2112D01*
X1445Y2112D02*
X1485Y2112D01*
X1487Y2112D02*
X1528Y2112D01*
X245Y2111D02*
X280Y2111D01*
X293Y2111D02*
X328Y2111D01*
X1445Y2111D02*
X1480Y2111D01*
X1492Y2111D02*
X1528Y2111D01*
X245Y2110D02*
X278Y2110D01*
X294Y2110D02*
X328Y2110D01*
X1445Y2110D02*
X1478Y2110D01*
X1494Y2110D02*
X1528Y2110D01*
X245Y2109D02*
X277Y2109D01*
X296Y2109D02*
X328Y2109D01*
X1445Y2109D02*
X1477Y2109D01*
X1496Y2109D02*
X1528Y2109D01*
X245Y2108D02*
X276Y2108D01*
X297Y2108D02*
X328Y2108D01*
X1445Y2108D02*
X1475Y2108D01*
X1497Y2108D02*
X1528Y2108D01*
X245Y2107D02*
X275Y2107D01*
X298Y2107D02*
X328Y2107D01*
X1445Y2107D02*
X1474Y2107D01*
X1498Y2107D02*
X1528Y2107D01*
X245Y2106D02*
X274Y2106D01*
X299Y2106D02*
X328Y2106D01*
X1445Y2106D02*
X1474Y2106D01*
X1499Y2106D02*
X1528Y2106D01*
X245Y2105D02*
X273Y2105D01*
X300Y2105D02*
X328Y2105D01*
X1445Y2105D02*
X1473Y2105D01*
X1499Y2105D02*
X1528Y2105D01*
X245Y2104D02*
X273Y2104D01*
X300Y2104D02*
X328Y2104D01*
X1445Y2104D02*
X1472Y2104D01*
X1500Y2104D02*
X1528Y2104D01*
X245Y2103D02*
X272Y2103D01*
X301Y2103D02*
X328Y2103D01*
X1445Y2103D02*
X1472Y2103D01*
X1500Y2103D02*
X1528Y2103D01*
X245Y2102D02*
X272Y2102D01*
X301Y2102D02*
X328Y2102D01*
X1445Y2102D02*
X1471Y2102D01*
X1501Y2102D02*
X1528Y2102D01*
X245Y2101D02*
X271Y2101D01*
X301Y2101D02*
X328Y2101D01*
X1445Y2101D02*
X1471Y2101D01*
X1501Y2101D02*
X1528Y2101D01*
X245Y2100D02*
X271Y2100D01*
X302Y2100D02*
X328Y2100D01*
X1445Y2100D02*
X1471Y2100D01*
X1501Y2100D02*
X1528Y2100D01*
X245Y2099D02*
X271Y2099D01*
X302Y2099D02*
X328Y2099D01*
X1445Y2099D02*
X1471Y2099D01*
X1501Y2099D02*
X1528Y2099D01*
X245Y2098D02*
X271Y2098D01*
X302Y2098D02*
X328Y2098D01*
X1445Y2098D02*
X1471Y2098D01*
X1501Y2098D02*
X1528Y2098D01*
X245Y2097D02*
X271Y2097D01*
X302Y2097D02*
X328Y2097D01*
X1445Y2097D02*
X1471Y2097D01*
X1502Y2097D02*
X1528Y2097D01*
X245Y2096D02*
X271Y2096D01*
X302Y2096D02*
X328Y2096D01*
X1445Y2096D02*
X1471Y2096D01*
X1501Y2096D02*
X1528Y2096D01*
X245Y2095D02*
X271Y2095D01*
X302Y2095D02*
X328Y2095D01*
X1445Y2095D02*
X1471Y2095D01*
X1501Y2095D02*
X1528Y2095D01*
X245Y2094D02*
X271Y2094D01*
X302Y2094D02*
X328Y2094D01*
X1445Y2094D02*
X1471Y2094D01*
X1501Y2094D02*
X1528Y2094D01*
X245Y2093D02*
X271Y2093D01*
X301Y2093D02*
X328Y2093D01*
X1445Y2093D02*
X1471Y2093D01*
X1501Y2093D02*
X1528Y2093D01*
X245Y2092D02*
X272Y2092D01*
X301Y2092D02*
X328Y2092D01*
X1445Y2092D02*
X1471Y2092D01*
X1501Y2092D02*
X1528Y2092D01*
X245Y2091D02*
X272Y2091D01*
X301Y2091D02*
X328Y2091D01*
X1445Y2091D02*
X1472Y2091D01*
X1500Y2091D02*
X1528Y2091D01*
X245Y2090D02*
X273Y2090D01*
X300Y2090D02*
X328Y2090D01*
X1445Y2090D02*
X1472Y2090D01*
X1500Y2090D02*
X1528Y2090D01*
X245Y2089D02*
X273Y2089D01*
X300Y2089D02*
X328Y2089D01*
X1445Y2089D02*
X1473Y2089D01*
X1499Y2089D02*
X1528Y2089D01*
X245Y2088D02*
X274Y2088D01*
X299Y2088D02*
X328Y2088D01*
X1445Y2088D02*
X1474Y2088D01*
X1498Y2088D02*
X1528Y2088D01*
X245Y2087D02*
X275Y2087D01*
X298Y2087D02*
X328Y2087D01*
X1445Y2087D02*
X1474Y2087D01*
X1498Y2087D02*
X1528Y2087D01*
X245Y2086D02*
X276Y2086D01*
X297Y2086D02*
X328Y2086D01*
X1445Y2086D02*
X1475Y2086D01*
X1497Y2086D02*
X1528Y2086D01*
X245Y2085D02*
X277Y2085D01*
X296Y2085D02*
X328Y2085D01*
X1445Y2085D02*
X1477Y2085D01*
X1495Y2085D02*
X1528Y2085D01*
X245Y2084D02*
X278Y2084D01*
X294Y2084D02*
X328Y2084D01*
X1445Y2084D02*
X1478Y2084D01*
X1494Y2084D02*
X1528Y2084D01*
X245Y2083D02*
X280Y2083D01*
X292Y2083D02*
X328Y2083D01*
X1445Y2083D02*
X1480Y2083D01*
X1492Y2083D02*
X1528Y2083D01*
X245Y2082D02*
X328Y2082D01*
X1445Y2082D02*
X1528Y2082D01*
X245Y2081D02*
X328Y2081D01*
X1445Y2081D02*
X1528Y2081D01*
X245Y2080D02*
X328Y2080D01*
X1445Y2080D02*
X1528Y2080D01*
X245Y2079D02*
X328Y2079D01*
X1445Y2079D02*
X1528Y2079D01*
X245Y2078D02*
X328Y2078D01*
X1445Y2078D02*
X1528Y2078D01*
X245Y2077D02*
X328Y2077D01*
X1445Y2077D02*
X1528Y2077D01*
X245Y2076D02*
X328Y2076D01*
X1445Y2076D02*
X1528Y2076D01*
X245Y2075D02*
X328Y2075D01*
X1445Y2075D02*
X1528Y2075D01*
X245Y2074D02*
X328Y2074D01*
X1445Y2074D02*
X1528Y2074D01*
X245Y2073D02*
X328Y2073D01*
X1445Y2073D02*
X1528Y2073D01*
X245Y2072D02*
X328Y2072D01*
X1445Y2072D02*
X1528Y2072D01*
X245Y2071D02*
X328Y2071D01*
X1445Y2071D02*
X1528Y2071D01*
X245Y2070D02*
X328Y2070D01*
X1445Y2070D02*
X1528Y2070D01*
X245Y2069D02*
X328Y2069D01*
X1445Y2069D02*
X1528Y2069D01*
X245Y2068D02*
X328Y2068D01*
X1445Y2068D02*
X1528Y2068D01*
X245Y2067D02*
X328Y2067D01*
X1445Y2067D02*
X1528Y2067D01*
X245Y2066D02*
X328Y2066D01*
X1445Y2066D02*
X1528Y2066D01*
X245Y2065D02*
X328Y2065D01*
X1445Y2065D02*
X1528Y2065D01*
X245Y2064D02*
X328Y2064D01*
X1445Y2064D02*
X1528Y2064D01*
X245Y2063D02*
X328Y2063D01*
X1445Y2063D02*
X1528Y2063D01*
X245Y2062D02*
X328Y2062D01*
X1445Y2062D02*
X1528Y2062D01*
X245Y2061D02*
X328Y2061D01*
X1445Y2061D02*
X1528Y2061D01*
X245Y2060D02*
X328Y2060D01*
X1445Y2060D02*
X1528Y2060D01*
X245Y2059D02*
X328Y2059D01*
X1445Y2059D02*
X1528Y2059D01*
X245Y2058D02*
X328Y2058D01*
X1445Y2058D02*
X1528Y2058D01*
X245Y2057D02*
X328Y2057D01*
X1445Y2057D02*
X1528Y2057D01*
X245Y2056D02*
X328Y2056D01*
X1445Y2056D02*
X1528Y2056D01*
X345Y239D02*
X428Y239D01*
X345Y238D02*
X428Y238D01*
X345Y237D02*
X428Y237D01*
X345Y236D02*
X428Y236D01*
X345Y235D02*
X428Y235D01*
X345Y234D02*
X428Y234D01*
X345Y233D02*
X428Y233D01*
X345Y232D02*
X428Y232D01*
X345Y231D02*
X428Y231D01*
X345Y230D02*
X428Y230D01*
X345Y229D02*
X428Y229D01*
X345Y228D02*
X428Y228D01*
X345Y227D02*
X428Y227D01*
X345Y226D02*
X428Y226D01*
X345Y225D02*
X428Y225D01*
X345Y224D02*
X428Y224D01*
X345Y223D02*
X428Y223D01*
X345Y222D02*
X428Y222D01*
X345Y221D02*
X428Y221D01*
X345Y220D02*
X428Y220D01*
X345Y219D02*
X428Y219D01*
X345Y218D02*
X428Y218D01*
X345Y217D02*
X428Y217D01*
X345Y216D02*
X428Y216D01*
X345Y215D02*
X428Y215D01*
X345Y214D02*
X428Y214D01*
X345Y213D02*
X428Y213D01*
X345Y212D02*
X383Y212D01*
X390Y212D02*
X428Y212D01*
X345Y211D02*
X380Y211D01*
X393Y211D02*
X428Y211D01*
X345Y210D02*
X378Y210D01*
X395Y210D02*
X428Y210D01*
X345Y209D02*
X377Y209D01*
X396Y209D02*
X428Y209D01*
X345Y208D02*
X375Y208D01*
X397Y208D02*
X428Y208D01*
X345Y207D02*
X374Y207D01*
X398Y207D02*
X428Y207D01*
X345Y206D02*
X374Y206D01*
X399Y206D02*
X428Y206D01*
X345Y205D02*
X373Y205D01*
X400Y205D02*
X428Y205D01*
X345Y204D02*
X372Y204D01*
X400Y204D02*
X428Y204D01*
X345Y203D02*
X372Y203D01*
X401Y203D02*
X428Y203D01*
X345Y202D02*
X372Y202D01*
X401Y202D02*
X428Y202D01*
X345Y201D02*
X371Y201D01*
X401Y201D02*
X428Y201D01*
X345Y200D02*
X371Y200D01*
X402Y200D02*
X428Y200D01*
X345Y199D02*
X371Y199D01*
X402Y199D02*
X428Y199D01*
X345Y198D02*
X371Y198D01*
X402Y198D02*
X428Y198D01*
X345Y197D02*
X371Y197D01*
X402Y197D02*
X428Y197D01*
X345Y196D02*
X371Y196D01*
X402Y196D02*
X428Y196D01*
X345Y195D02*
X371Y195D01*
X402Y195D02*
X428Y195D01*
X345Y194D02*
X371Y194D01*
X402Y194D02*
X428Y194D01*
X345Y193D02*
X372Y193D01*
X401Y193D02*
X428Y193D01*
X345Y192D02*
X372Y192D01*
X401Y192D02*
X428Y192D01*
X345Y191D02*
X372Y191D01*
X401Y191D02*
X428Y191D01*
X345Y190D02*
X373Y190D01*
X400Y190D02*
X428Y190D01*
X345Y189D02*
X373Y189D01*
X399Y189D02*
X428Y189D01*
X345Y188D02*
X374Y188D01*
X399Y188D02*
X428Y188D01*
X345Y187D02*
X375Y187D01*
X398Y187D02*
X428Y187D01*
X345Y186D02*
X376Y186D01*
X397Y186D02*
X428Y186D01*
X345Y185D02*
X377Y185D01*
X395Y185D02*
X428Y185D01*
X345Y184D02*
X379Y184D01*
X394Y184D02*
X428Y184D01*
X345Y183D02*
X381Y183D01*
X391Y183D02*
X428Y183D01*
X345Y182D02*
X428Y182D01*
X345Y181D02*
X428Y181D01*
X345Y180D02*
X428Y180D01*
X345Y179D02*
X428Y179D01*
X345Y178D02*
X428Y178D01*
X345Y177D02*
X428Y177D01*
X345Y176D02*
X428Y176D01*
X345Y175D02*
X428Y175D01*
X345Y174D02*
X428Y174D01*
X345Y173D02*
X428Y173D01*
X345Y172D02*
X428Y172D01*
X345Y171D02*
X428Y171D01*
X345Y170D02*
X428Y170D01*
X345Y169D02*
X428Y169D01*
X345Y168D02*
X428Y168D01*
X345Y167D02*
X428Y167D01*
X345Y166D02*
X428Y166D01*
X345Y165D02*
X428Y165D01*
X345Y164D02*
X428Y164D01*
X345Y163D02*
X428Y163D01*
X345Y162D02*
X428Y162D01*
X345Y161D02*
X428Y161D01*
X345Y160D02*
X428Y160D01*
X345Y159D02*
X428Y159D01*
X345Y158D02*
X428Y158D01*
X345Y157D02*
X428Y157D01*
X345Y156D02*
X428Y156D01*
D02*
G04 End of Mask1*
M02*