M48
; DRILL file {KiCad (5.1.10)-1} date 10/11/21 23:47:22
; FORMAT={-:-/ absolute / inch / decimal}
; #@! TF.CreationDate,2021-10-11T23:47:22-05:00
; #@! TF.GenerationSoftware,Kicad,Pcbnew,(5.1.10)-1
; #@! TF.FileFunction,Plated,1,2,PTH
FMAT,2
INCH
T1C0.0300
T2C0.0315
T3C0.0354
T4C0.0394
%
G90
G05
T1
X4.4343Y-3.5465
X4.4343Y-3.6465
X4.4343Y-3.7465
X4.4343Y-3.8465
X4.4343Y-3.9465
X4.4343Y-4.0465
X4.4343Y-4.1465
X4.4343Y-4.2465
X4.4343Y-4.3465
X4.4343Y-4.4465
X4.4343Y-4.5465
X4.4343Y-4.6465
X4.4343Y-4.7465
X4.4343Y-4.8465
X4.4343Y-4.9465
X5.5343Y-3.5465
X5.5343Y-3.6465
X5.5343Y-3.7465
X5.5343Y-3.8465
X5.5343Y-3.9465
X5.5343Y-4.0465
X5.5343Y-4.1465
X5.5343Y-4.2465
X5.5343Y-4.3465
X5.5343Y-4.4465
X5.5343Y-4.5465
X5.5343Y-4.6465
X5.5343Y-4.7465
X5.5343Y-4.8465
X5.5343Y-4.9465
T2
X5.7402Y-3.5472
X5.7402Y-4.5157
X5.7402Y-4.6496
X5.8563Y-4.9705
X5.9547Y-3.9862
X5.9547Y-4.3862
X6.1402Y-3.5472
X6.1402Y-4.5157
X6.1402Y-4.6496
X6.1563Y-4.9705
T3
X6.2441Y-2.7293
X6.2441Y-2.8143
X6.2441Y-2.8993
X6.2441Y-2.9843
T4
X4.2323Y-4.7398
X4.2323Y-4.8398
X4.2323Y-4.9398
X4.2323Y-5.0398
X4.2323Y-5.1398
X4.374Y-2.7283
X4.374Y-2.8283
X4.374Y-2.9283
X4.374Y-3.0283
X4.374Y-3.1283
X4.374Y-3.2283
X4.6969Y-2.7283
X4.6969Y-2.8283
X4.6969Y-2.9283
X4.6969Y-3.0283
X4.6969Y-3.1283
X4.6969Y-3.2283
X4.6969Y-3.3283
X4.7638Y-4.7488
X4.7638Y-4.8488
X4.7638Y-4.9488
X5.5551Y-2.7303
X5.5551Y-2.8303
X5.5551Y-2.9303
X5.5551Y-3.0303
X5.5551Y-3.1303
X5.5551Y-3.2303
X5.9488Y-2.7283
X5.9488Y-2.8283
X5.9488Y-2.9283
X5.9488Y-3.0283
T0
M30
