%TF.GenerationSoftware,KiCad,Pcbnew,(5.1.10)-1*%
%TF.CreationDate,2021-10-11T23:46:52-05:00*%
%TF.ProjectId,co2_project,636f325f-7072-46f6-9a65-63742e6b6963,rev?*%
%TF.SameCoordinates,Original*%
%TF.FileFunction,Copper,L1,Top*%
%TF.FilePolarity,Positive*%
%FSLAX46Y46*%
G04 Gerber Fmt 4.6, Leading zero omitted, Abs format (unit mm)*
G04 Created by KiCad (PCBNEW (5.1.10)-1) date 2021-10-11 23:46:52*
%MOMM*%
%LPD*%
G01*
G04 APERTURE LIST*
%TA.AperFunction,ComponentPad*%
%ADD10O,1.700000X1.700000*%
%TD*%
%TA.AperFunction,ComponentPad*%
%ADD11R,1.700000X1.700000*%
%TD*%
%TA.AperFunction,ComponentPad*%
%ADD12R,1.800000X1.800000*%
%TD*%
%TA.AperFunction,ComponentPad*%
%ADD13C,1.800000*%
%TD*%
%TA.AperFunction,ComponentPad*%
%ADD14C,1.600000*%
%TD*%
%TA.AperFunction,ComponentPad*%
%ADD15O,1.600000X1.600000*%
%TD*%
%TA.AperFunction,ComponentPad*%
%ADD16R,1.600000X1.600000*%
%TD*%
%TA.AperFunction,ComponentPad*%
%ADD17C,1.524000*%
%TD*%
%TA.AperFunction,Conductor*%
%ADD18C,0.333000*%
%TD*%
%TA.AperFunction,Conductor*%
%ADD19C,0.250000*%
%TD*%
G04 APERTURE END LIST*
D10*
%TO.P,S8LP,6*%
%TO.N,N/C*%
X141100000Y-82050000D03*
%TO.P,S8LP,5*%
X141100000Y-79510000D03*
%TO.P,S8LP,4*%
X141100000Y-76970000D03*
%TO.P,S8LP,3*%
%TO.N,Net-(U2-Pad29)*%
X141100000Y-74430000D03*
%TO.P,S8LP,2*%
%TO.N,Net-(U2-Pad28)*%
X141100000Y-71890000D03*
D11*
%TO.P,S8LP,1*%
%TO.N,N/C*%
X141100000Y-69350000D03*
%TD*%
D10*
%TO.P,Sen0220/scd30,7*%
%TO.N,N/C*%
X119300000Y-84540000D03*
%TO.P,Sen0220/scd30,6*%
X119300000Y-82000000D03*
%TO.P,Sen0220/scd30,5*%
X119300000Y-79460000D03*
%TO.P,Sen0220/scd30,4*%
%TO.N,Net-(U2-Pad28)*%
X119300000Y-76920000D03*
%TO.P,Sen0220/scd30,3*%
%TO.N,Net-(U2-Pad29)*%
X119300000Y-74380000D03*
%TO.P,Sen0220/scd30,2*%
%TO.N,Net-(J1-Pad5)*%
X119300000Y-71840000D03*
D11*
%TO.P,Sen0220/scd30,1*%
%TO.N,Net-(J1-Pad1)*%
X119300000Y-69300000D03*
%TD*%
D10*
%TO.P,S8LP,6*%
%TO.N,N/C*%
X111100000Y-82000000D03*
%TO.P,S8LP,5*%
X111100000Y-79460000D03*
%TO.P,S8LP,4*%
X111100000Y-76920000D03*
%TO.P,S8LP,3*%
X111100000Y-74380000D03*
%TO.P,S8LP,2*%
%TO.N,Net-(J1-Pad5)*%
X111100000Y-71840000D03*
D11*
%TO.P,S8LP,1*%
%TO.N,Net-(J1-Pad1)*%
X111100000Y-69300000D03*
%TD*%
D10*
%TO.P,5V,5*%
%TO.N,Net-(J1-Pad5)*%
X107500000Y-120390000D03*
%TO.P,5V,4*%
%TO.N,Net-(J1-Pad4)*%
X107500000Y-122930000D03*
%TO.P,5V,3*%
%TO.N,Net-(J1-Pad3)*%
X107500000Y-125470000D03*
%TO.P,5V,2*%
%TO.N,Net-(J1-Pad2)*%
X107500000Y-128010000D03*
D11*
%TO.P,5V,1*%
%TO.N,Net-(J1-Pad1)*%
X107500000Y-130550000D03*
%TD*%
D12*
%TO.P,Led_RGB,1*%
%TO.N,Net-(D1-Pad1)*%
X158600000Y-75800000D03*
D13*
%TO.P,Led_RGB,2*%
%TO.N,Net-(D1-Pad2)*%
X158600000Y-73641000D03*
%TO.P,Led_RGB,3*%
%TO.N,Net-(D1-Pad3)*%
X158600000Y-71482000D03*
%TO.P,Led_RGB,4*%
%TO.N,Net-(D1-Pad4)*%
X158600000Y-69323000D03*
%TD*%
D14*
%TO.P,R1,1*%
%TO.N,Net-(R1-Pad1)*%
X145800000Y-118100000D03*
D15*
%TO.P,R1,2*%
%TO.N,Net-(D1-Pad4)*%
X155960000Y-118100000D03*
%TD*%
%TO.P,R1,2*%
%TO.N,Net-(D1-Pad3)*%
X155960000Y-114700000D03*
D14*
%TO.P,R1,1*%
%TO.N,Net-(R2-Pad1)*%
X145800000Y-114700000D03*
%TD*%
%TO.P,R1,1*%
%TO.N,Net-(R3-Pad1)*%
X145800000Y-90100000D03*
D15*
%TO.P,R1,2*%
%TO.N,Net-(D1-Pad1)*%
X155960000Y-90100000D03*
%TD*%
%TO.P,R2,2*%
%TO.N,Net-(R4-Pad2)*%
X151250000Y-111410000D03*
D14*
%TO.P,R2,1*%
%TO.N,Net-(D1-Pad2)*%
X151250000Y-101250000D03*
%TD*%
D16*
%TO.P,Button,1*%
%TO.N,Net-(SW1-Pad1)*%
X148750000Y-126250000D03*
D15*
%TO.P,Button,2*%
%TO.N,Net-(R4-Pad2)*%
X156370000Y-126250000D03*
%TD*%
D11*
%TO.P,Buzzer,1*%
%TO.N,Net-(J1-Pad5)*%
X121000000Y-125700000D03*
D10*
%TO.P,Buzzer,2*%
%TO.N,Net-(J1-Pad1)*%
X121000000Y-123160000D03*
%TO.P,Buzzer,3*%
%TO.N,Net-(U1-Pad3)*%
X121000000Y-120620000D03*
%TD*%
D17*
%TO.P,ESP8266,1*%
%TO.N,Net-(U2-Pad1)*%
X112630000Y-90080000D03*
%TO.P,ESP8266,2*%
%TO.N,Net-(U2-Pad2)*%
X112630000Y-92620000D03*
%TO.P,ESP8266,3*%
%TO.N,Net-(U2-Pad3)*%
X112630000Y-95160000D03*
%TO.P,ESP8266,4*%
%TO.N,Net-(U2-Pad4)*%
X112630000Y-97700000D03*
%TO.P,ESP8266,5*%
%TO.N,Net-(U2-Pad5)*%
X112630000Y-100240000D03*
%TO.P,ESP8266,6*%
%TO.N,Net-(U2-Pad6)*%
X112630000Y-102780000D03*
%TO.P,ESP8266,7*%
%TO.N,Net-(U2-Pad7)*%
X112630000Y-105320000D03*
%TO.P,ESP8266,8*%
%TO.N,Net-(U2-Pad8)*%
X112630000Y-107860000D03*
%TO.P,ESP8266,9*%
%TO.N,Net-(U2-Pad9)*%
X112630000Y-110400000D03*
%TO.P,ESP8266,10*%
%TO.N,Net-(U2-Pad10)*%
X112630000Y-112940000D03*
%TO.P,ESP8266,11*%
%TO.N,Net-(U2-Pad11)*%
X112630000Y-115480000D03*
%TO.P,ESP8266,12*%
%TO.N,Net-(U2-Pad12)*%
X112630000Y-118020000D03*
%TO.P,ESP8266,13*%
%TO.N,Net-(U2-Pad13)*%
X112630000Y-120560000D03*
%TO.P,ESP8266,14*%
%TO.N,Net-(J1-Pad5)*%
X112630000Y-123100000D03*
%TO.P,ESP8266,15*%
%TO.N,Net-(J1-Pad1)*%
X112630000Y-125640000D03*
%TO.P,ESP8266,16*%
%TO.N,Net-(U2-Pad16)*%
X140570000Y-125640000D03*
%TO.P,ESP8266,17*%
%TO.N,Net-(U2-Pad17)*%
X140570000Y-123100000D03*
%TO.P,ESP8266,18*%
%TO.N,Net-(U2-Pad18)*%
X140570000Y-120560000D03*
%TO.P,ESP8266,19*%
%TO.N,Net-(U2-Pad19)*%
X140570000Y-118020000D03*
%TO.P,ESP8266,20*%
%TO.N,Net-(R1-Pad1)*%
X140570000Y-115480000D03*
%TO.P,ESP8266,21*%
%TO.N,Net-(R2-Pad1)*%
X140570000Y-112940000D03*
%TO.P,ESP8266,22*%
%TO.N,Net-(U2-Pad22)*%
X140570000Y-110400000D03*
%TO.P,ESP8266,23*%
%TO.N,Net-(U2-Pad23)*%
X140570000Y-107860000D03*
%TO.P,ESP8266,24*%
%TO.N,Net-(SW1-Pad1)*%
X140570000Y-105320000D03*
%TO.P,ESP8266,25*%
%TO.N,Net-(D1-Pad2)*%
X140570000Y-102780000D03*
%TO.P,ESP8266,26*%
%TO.N,Net-(U1-Pad3)*%
X140570000Y-100240000D03*
%TO.P,ESP8266,27*%
%TO.N,Net-(R4-Pad2)*%
X140570000Y-97700000D03*
%TO.P,ESP8266,28*%
%TO.N,Net-(U2-Pad28)*%
X140570000Y-95160000D03*
%TO.P,ESP8266,29*%
%TO.N,Net-(U2-Pad29)*%
X140570000Y-92620000D03*
%TO.P,ESP8266,30*%
%TO.N,Net-(R3-Pad1)*%
X140570000Y-90080000D03*
%TD*%
D11*
%TO.P,Display,1*%
%TO.N,Net-(U2-Pad23)*%
X151100000Y-69300000D03*
D10*
%TO.P,Display,2*%
%TO.N,Net-(U2-Pad22)*%
X151100000Y-71840000D03*
%TO.P,Display,3*%
%TO.N,Net-(J1-Pad1)*%
X151100000Y-74380000D03*
%TO.P,Display,4*%
%TO.N,Net-(SW1-Pad1)*%
X151100000Y-76920000D03*
%TD*%
D18*
%TO.N,Net-(D1-Pad1)*%
X158600000Y-75800000D02*
X158600000Y-90100000D01*
X158600000Y-90100000D02*
X155960000Y-90100000D01*
%TO.N,Net-(D1-Pad2)*%
X158299298Y-73641000D02*
X158140298Y-73800000D01*
X158600000Y-73641000D02*
X158299298Y-73641000D01*
X158600000Y-73641000D02*
X155859000Y-73641000D01*
X155859000Y-73641000D02*
X155900000Y-73682000D01*
X155900000Y-73682000D02*
X155900000Y-85500000D01*
X155900000Y-85500000D02*
X150900000Y-85500000D01*
X150900000Y-85500000D02*
X150900000Y-94900000D01*
X150900000Y-94900000D02*
X146300000Y-94900000D01*
X146300000Y-94900000D02*
X146300000Y-102400000D01*
X145920000Y-102780000D02*
X140570000Y-102780000D01*
X146300000Y-102400000D02*
X145920000Y-102780000D01*
%TO.N,Net-(D1-Pad3)*%
X158600000Y-71482000D02*
X161982000Y-71482000D01*
X161982000Y-71482000D02*
X162000000Y-71500000D01*
X162000000Y-71500000D02*
X162000000Y-114750000D01*
X156010000Y-114750000D02*
X155960000Y-114700000D01*
X162000000Y-114750000D02*
X156010000Y-114750000D01*
%TO.N,Net-(D1-Pad4)*%
X158600000Y-69323000D02*
X163823000Y-69323000D01*
X163823000Y-69323000D02*
X164000000Y-69500000D01*
X164000000Y-69500000D02*
X164000000Y-118000000D01*
X156060000Y-118000000D02*
X155960000Y-118100000D01*
X164000000Y-118000000D02*
X156060000Y-118000000D01*
%TO.N,Net-(R1-Pad1)*%
X143190000Y-118100000D02*
X140570000Y-115480000D01*
X145800000Y-118100000D02*
X143190000Y-118100000D01*
%TO.N,Net-(R2-Pad1)*%
X142330000Y-114700000D02*
X140570000Y-112940000D01*
X145800000Y-114700000D02*
X142330000Y-114700000D01*
%TO.N,Net-(R3-Pad1)*%
X140590000Y-90100000D02*
X140570000Y-90080000D01*
X145800000Y-90100000D02*
X140590000Y-90100000D01*
D19*
%TO.N,Net-(SW1-Pad1)*%
X151100000Y-76920000D02*
X146920000Y-76920000D01*
X146920000Y-76920000D02*
X146900000Y-76940000D01*
X146900000Y-76940000D02*
X146900000Y-86900000D01*
X146900000Y-86900000D02*
X138300000Y-86900000D01*
X138300000Y-86900000D02*
X138300000Y-105400000D01*
X140490000Y-105400000D02*
X140570000Y-105320000D01*
X138300000Y-105400000D02*
X140490000Y-105400000D01*
%TO.N,Net-(U2-Pad22)*%
X140270000Y-110700000D02*
X140570000Y-110400000D01*
X134100000Y-64400000D02*
X134100000Y-110700000D01*
X153500000Y-64400000D02*
X134100000Y-64400000D01*
X153500000Y-71800000D02*
X153500000Y-64400000D01*
X153540000Y-71840000D02*
X153500000Y-71800000D01*
X134100000Y-110700000D02*
X140270000Y-110700000D01*
X151100000Y-71840000D02*
X153540000Y-71840000D01*
%TO.N,Net-(U2-Pad23)*%
X136340000Y-107860000D02*
X140570000Y-107860000D01*
X136300000Y-107900000D02*
X136340000Y-107860000D01*
X136300000Y-66000000D02*
X136300000Y-107900000D01*
X151100000Y-66000000D02*
X136300000Y-66000000D01*
X151100000Y-69300000D02*
X151100000Y-66000000D01*
%TD*%
M02*
