%TF.GenerationSoftware,KiCad,Pcbnew,(5.1.10)-1*%
%TF.CreationDate,2021-10-11T23:46:52-05:00*%
%TF.ProjectId,co2_project,636f325f-7072-46f6-9a65-63742e6b6963,rev?*%
%TF.SameCoordinates,Original*%
%TF.FileFunction,Soldermask,Top*%
%TF.FilePolarity,Negative*%
%FSLAX46Y46*%
G04 Gerber Fmt 4.6, Leading zero omitted, Abs format (unit mm)*
G04 Created by KiCad (PCBNEW (5.1.10)-1) date 2021-10-11 23:46:52*
%MOMM*%
%LPD*%
G01*
G04 APERTURE LIST*
%ADD10O,1.700000X1.700000*%
%ADD11R,1.700000X1.700000*%
%ADD12C,3.200000*%
%ADD13R,1.800000X1.800000*%
%ADD14C,1.800000*%
%ADD15C,1.600000*%
%ADD16O,1.600000X1.600000*%
%ADD17R,1.600000X1.600000*%
%ADD18C,1.524000*%
G04 APERTURE END LIST*
D10*
%TO.C,S8LP*%
X141100000Y-82050000D03*
X141100000Y-79510000D03*
X141100000Y-76970000D03*
X141100000Y-74430000D03*
X141100000Y-71890000D03*
D11*
X141100000Y-69350000D03*
%TD*%
D10*
%TO.C,Sen0220/scd30*%
X119300000Y-84540000D03*
X119300000Y-82000000D03*
X119300000Y-79460000D03*
X119300000Y-76920000D03*
X119300000Y-74380000D03*
X119300000Y-71840000D03*
D11*
X119300000Y-69300000D03*
%TD*%
D10*
%TO.C,S8LP*%
X111100000Y-82000000D03*
X111100000Y-79460000D03*
X111100000Y-76920000D03*
X111100000Y-74380000D03*
X111100000Y-71840000D03*
D11*
X111100000Y-69300000D03*
%TD*%
D10*
%TO.C,5V*%
X107500000Y-120390000D03*
X107500000Y-122930000D03*
X107500000Y-125470000D03*
X107500000Y-128010000D03*
D11*
X107500000Y-130550000D03*
%TD*%
D12*
%TO.C,*%
X105500000Y-64500000D03*
%TD*%
%TO.C,*%
X105500000Y-135500000D03*
%TD*%
%TO.C,*%
X163500000Y-135500000D03*
%TD*%
%TO.C,*%
X163500000Y-64500000D03*
%TD*%
D13*
%TO.C,Led_RGB*%
X158600000Y-75800000D03*
D14*
X158600000Y-73641000D03*
X158600000Y-71482000D03*
X158600000Y-69323000D03*
%TD*%
D15*
%TO.C,R1*%
X145800000Y-118100000D03*
D16*
X155960000Y-118100000D03*
%TD*%
%TO.C,R1*%
X155960000Y-114700000D03*
D15*
X145800000Y-114700000D03*
%TD*%
%TO.C,R1*%
X145800000Y-90100000D03*
D16*
X155960000Y-90100000D03*
%TD*%
%TO.C,R2*%
X151250000Y-111410000D03*
D15*
X151250000Y-101250000D03*
%TD*%
D17*
%TO.C,Button*%
X148750000Y-126250000D03*
D16*
X156370000Y-126250000D03*
%TD*%
D11*
%TO.C,Buzzer*%
X121000000Y-125700000D03*
D10*
X121000000Y-123160000D03*
X121000000Y-120620000D03*
%TD*%
D18*
%TO.C,ESP8266*%
X112630000Y-90080000D03*
X112630000Y-92620000D03*
X112630000Y-95160000D03*
X112630000Y-97700000D03*
X112630000Y-100240000D03*
X112630000Y-102780000D03*
X112630000Y-105320000D03*
X112630000Y-107860000D03*
X112630000Y-110400000D03*
X112630000Y-112940000D03*
X112630000Y-115480000D03*
X112630000Y-118020000D03*
X112630000Y-120560000D03*
X112630000Y-123100000D03*
X112630000Y-125640000D03*
X140570000Y-125640000D03*
X140570000Y-123100000D03*
X140570000Y-120560000D03*
X140570000Y-118020000D03*
X140570000Y-115480000D03*
X140570000Y-112940000D03*
X140570000Y-110400000D03*
X140570000Y-107860000D03*
X140570000Y-105320000D03*
X140570000Y-102780000D03*
X140570000Y-100240000D03*
X140570000Y-97700000D03*
X140570000Y-95160000D03*
X140570000Y-92620000D03*
X140570000Y-90080000D03*
%TD*%
D11*
%TO.C,Display*%
X151100000Y-69300000D03*
D10*
X151100000Y-71840000D03*
X151100000Y-74380000D03*
X151100000Y-76920000D03*
%TD*%
M02*
