; NON-PLATED HOLES START AT T1
; THROUGH (PLATED) HOLES START AT T100
M48
INCH
T1C0.122047
T100C0.035433
T101C0.052000
T102C0.035000
%
T1
X000869Y028952
X023869Y028952
X023869Y000952
X000869Y000952
T100
X003869Y007952
X002869Y025952
X002869Y023952
X014869Y008952
X014869Y022952
X003869Y014952
X018869Y026952
X014869Y017952
X006869Y006952
X005869Y023952
X003869Y015952
X014869Y014952
X003869Y016952
X002869Y026952
X021869Y025952
X003869Y010952
X001869Y006952
X003869Y018952
X005869Y024952
X014869Y010952
X005869Y026952
X021869Y024952
X002869Y022952
X014869Y015952
X014869Y021952
X003869Y012952
X002869Y024952
X018869Y025952
X001869Y003952
X014869Y013952
X014869Y007952
X014869Y025952
X014869Y012952
X005869Y021952
X014869Y024952
X021869Y023952
X001869Y004952
X014869Y009952
X005869Y022952
X003869Y009952
X014869Y018952
X001869Y005952
X014869Y006952
X005869Y020952
X001869Y002952
X014869Y016952
X003869Y004952
X014869Y004952
X003869Y006952
X018869Y023952
X021869Y026952
X002869Y021952
X014869Y026952
X006869Y005952
X003869Y017952
X014869Y023952
X003869Y013952
X006869Y004952
X003869Y011952
X005869Y025952
X003869Y005952
X018869Y024952
X014869Y005952
X003869Y008952
X014869Y011952
T101
X017869Y004952
X020869Y004952
T102
X018869Y013952
X020869Y007952
X016869Y007952
X018869Y009952
X015869Y018952
X019869Y018952
X020869Y008952
X016869Y008952
T00
M30
