G04 MADE WITH FRITZING*
G04 WWW.FRITZING.ORG*
G04 DOUBLE SIDED*
G04 HOLES PLATED*
G04 CONTOUR ON CENTER OF CONTOUR VECTOR*
%ASAXBY*%
%FSLAX23Y23*%
%MOIN*%
%OFA0B0*%
%SFA1.0B1.0*%
%ADD10C,0.075000*%
%ADD11C,0.065278*%
%ADD12C,0.078000*%
%ADD13C,0.024000*%
%ADD14C,0.048000*%
%LNCOPPER0*%
G90*
G70*
G54D10*
X130Y1983D03*
X965Y1816D03*
X2019Y1866D03*
X2528Y1501D03*
G54D11*
X2101Y103D03*
X2201Y103D03*
X2301Y103D03*
X2401Y103D03*
X2501Y103D03*
X1641Y2003D03*
X1541Y2003D03*
X1441Y2003D03*
X1341Y2003D03*
X1241Y2003D03*
X1141Y2003D03*
X1041Y2003D03*
X941Y2003D03*
X841Y2003D03*
X741Y2003D03*
X2501Y2003D03*
X2401Y2003D03*
X2301Y2003D03*
X2201Y2003D03*
X2101Y2003D03*
X2001Y2003D03*
X1901Y2003D03*
X1801Y2003D03*
X1201Y103D03*
X1101Y103D03*
X1301Y103D03*
X1401Y103D03*
X1501Y103D03*
X1601Y103D03*
X1701Y103D03*
X1801Y103D03*
X2001Y103D03*
G54D12*
X2401Y1803D03*
X2401Y1703D03*
X2401Y1603D03*
X2401Y1503D03*
X1901Y1803D03*
X1801Y1803D03*
X1701Y1803D03*
X1601Y1803D03*
X741Y1508D03*
X741Y1607D03*
X741Y1705D03*
X741Y1803D03*
G54D13*
X2503Y1703D02*
X2420Y1703D01*
D02*
X2502Y1983D02*
X2503Y1703D01*
D02*
X2401Y1822D02*
X2401Y1983D01*
D02*
X1801Y1983D02*
X1801Y1822D01*
D02*
X1901Y1983D02*
X1901Y1822D01*
G54D14*
D02*
X1502Y1503D02*
X2382Y1503D01*
D02*
X1501Y124D02*
X1502Y1503D01*
D02*
X1701Y1503D02*
X1701Y1784D01*
D02*
X2382Y1503D02*
X1701Y1503D01*
D02*
X1502Y1503D02*
X760Y1508D01*
D02*
X1501Y124D02*
X1502Y1503D01*
G54D13*
D02*
X841Y1705D02*
X760Y1705D01*
D02*
X841Y1983D02*
X841Y1705D01*
D02*
X741Y1822D02*
X741Y1983D01*
G54D14*
D02*
X1041Y1607D02*
X1041Y1983D01*
D02*
X760Y1607D02*
X1041Y1607D01*
D02*
X2382Y1604D02*
X2100Y1605D01*
D02*
X2100Y1605D02*
X2050Y1844D01*
D02*
X501Y1605D02*
X722Y1606D01*
D02*
X130Y1982D02*
X501Y1605D01*
D02*
X1601Y1803D02*
X1023Y1800D01*
D02*
X2420Y1604D02*
X2503Y1605D01*
D02*
X2503Y1605D02*
X2551Y1480D01*
G36*
X74Y2061D02*
X74Y2059D01*
X68Y2059D01*
X68Y2057D01*
X66Y2057D01*
X66Y2055D01*
X62Y2055D01*
X62Y2053D01*
X60Y2053D01*
X60Y2051D01*
X58Y2051D01*
X58Y2049D01*
X56Y2049D01*
X56Y2045D01*
X54Y2045D01*
X54Y2043D01*
X52Y2043D01*
X52Y2037D01*
X50Y2037D01*
X50Y1435D01*
X736Y1435D01*
X736Y1437D01*
X724Y1437D01*
X724Y1439D01*
X718Y1439D01*
X718Y1441D01*
X712Y1441D01*
X712Y1443D01*
X708Y1443D01*
X708Y1445D01*
X704Y1445D01*
X704Y1447D01*
X702Y1447D01*
X702Y1449D01*
X698Y1449D01*
X698Y1451D01*
X696Y1451D01*
X696Y1453D01*
X694Y1453D01*
X694Y1455D01*
X692Y1455D01*
X692Y1457D01*
X690Y1457D01*
X690Y1459D01*
X688Y1459D01*
X688Y1461D01*
X686Y1461D01*
X686Y1463D01*
X684Y1463D01*
X684Y1465D01*
X682Y1465D01*
X682Y1469D01*
X680Y1469D01*
X680Y1473D01*
X678Y1473D01*
X678Y1475D01*
X676Y1475D01*
X676Y1479D01*
X674Y1479D01*
X674Y1485D01*
X672Y1485D01*
X672Y1493D01*
X670Y1493D01*
X670Y1523D01*
X672Y1523D01*
X672Y1529D01*
X674Y1529D01*
X674Y1535D01*
X676Y1535D01*
X676Y1539D01*
X678Y1539D01*
X678Y1543D01*
X680Y1543D01*
X680Y1547D01*
X682Y1547D01*
X682Y1567D01*
X680Y1567D01*
X680Y1571D01*
X678Y1571D01*
X678Y1575D01*
X676Y1575D01*
X676Y1579D01*
X674Y1579D01*
X674Y1583D01*
X672Y1583D01*
X672Y1591D01*
X670Y1591D01*
X670Y1621D01*
X672Y1621D01*
X672Y1629D01*
X674Y1629D01*
X674Y1633D01*
X676Y1633D01*
X676Y1639D01*
X678Y1639D01*
X678Y1641D01*
X680Y1641D01*
X680Y1645D01*
X682Y1645D01*
X682Y1665D01*
X680Y1665D01*
X680Y1669D01*
X678Y1669D01*
X678Y1673D01*
X676Y1673D01*
X676Y1677D01*
X674Y1677D01*
X674Y1683D01*
X672Y1683D01*
X672Y1689D01*
X670Y1689D01*
X670Y1719D01*
X672Y1719D01*
X672Y1727D01*
X674Y1727D01*
X674Y1733D01*
X676Y1733D01*
X676Y1737D01*
X678Y1737D01*
X678Y1741D01*
X680Y1741D01*
X680Y1743D01*
X682Y1743D01*
X682Y1765D01*
X680Y1765D01*
X680Y1767D01*
X678Y1767D01*
X678Y1771D01*
X676Y1771D01*
X676Y1775D01*
X674Y1775D01*
X674Y1781D01*
X672Y1781D01*
X672Y1787D01*
X670Y1787D01*
X670Y1819D01*
X672Y1819D01*
X672Y1825D01*
X674Y1825D01*
X674Y1831D01*
X676Y1831D01*
X676Y1835D01*
X678Y1835D01*
X678Y1839D01*
X680Y1839D01*
X680Y1841D01*
X682Y1841D01*
X682Y1845D01*
X684Y1845D01*
X684Y1847D01*
X686Y1847D01*
X686Y1849D01*
X688Y1849D01*
X688Y1853D01*
X690Y1853D01*
X690Y1855D01*
X692Y1855D01*
X692Y1857D01*
X696Y1857D01*
X696Y1957D01*
X694Y1957D01*
X694Y1959D01*
X692Y1959D01*
X692Y1961D01*
X690Y1961D01*
X690Y1963D01*
X688Y1963D01*
X688Y1967D01*
X686Y1967D01*
X686Y1969D01*
X684Y1969D01*
X684Y1973D01*
X682Y1973D01*
X682Y1977D01*
X680Y1977D01*
X680Y1983D01*
X678Y1983D01*
X678Y1991D01*
X676Y1991D01*
X676Y2015D01*
X678Y2015D01*
X678Y2023D01*
X680Y2023D01*
X680Y2029D01*
X682Y2029D01*
X682Y2033D01*
X684Y2033D01*
X684Y2037D01*
X686Y2037D01*
X686Y2039D01*
X688Y2039D01*
X688Y2061D01*
X74Y2061D01*
G37*
D02*
G36*
X784Y1451D02*
X784Y1449D01*
X782Y1449D01*
X782Y1447D01*
X778Y1447D01*
X778Y1445D01*
X774Y1445D01*
X774Y1443D01*
X770Y1443D01*
X770Y1441D01*
X766Y1441D01*
X766Y1439D01*
X760Y1439D01*
X760Y1437D01*
X746Y1437D01*
X746Y1435D01*
X1444Y1435D01*
X1444Y1447D01*
X1168Y1447D01*
X1168Y1449D01*
X850Y1449D01*
X850Y1451D01*
X784Y1451D01*
G37*
D02*
G36*
X50Y1435D02*
X50Y1433D01*
X1444Y1433D01*
X1444Y1435D01*
X50Y1435D01*
G37*
D02*
G36*
X50Y1435D02*
X50Y1433D01*
X1444Y1433D01*
X1444Y1435D01*
X50Y1435D01*
G37*
D02*
G36*
X50Y1433D02*
X50Y169D01*
X1410Y169D01*
X1410Y167D01*
X1420Y167D01*
X1420Y165D01*
X1444Y165D01*
X1444Y1433D01*
X50Y1433D01*
G37*
D02*
G36*
X50Y169D02*
X50Y71D01*
X52Y71D01*
X52Y67D01*
X54Y67D01*
X54Y63D01*
X56Y63D01*
X56Y61D01*
X58Y61D01*
X58Y59D01*
X60Y59D01*
X60Y57D01*
X62Y57D01*
X62Y55D01*
X64Y55D01*
X64Y53D01*
X68Y53D01*
X68Y51D01*
X72Y51D01*
X72Y49D01*
X78Y49D01*
X78Y47D01*
X1048Y47D01*
X1048Y67D01*
X1046Y67D01*
X1046Y69D01*
X1044Y69D01*
X1044Y73D01*
X1042Y73D01*
X1042Y77D01*
X1040Y77D01*
X1040Y83D01*
X1038Y83D01*
X1038Y91D01*
X1036Y91D01*
X1036Y115D01*
X1038Y115D01*
X1038Y123D01*
X1040Y123D01*
X1040Y129D01*
X1042Y129D01*
X1042Y133D01*
X1044Y133D01*
X1044Y137D01*
X1046Y137D01*
X1046Y139D01*
X1048Y139D01*
X1048Y143D01*
X1050Y143D01*
X1050Y145D01*
X1052Y145D01*
X1052Y147D01*
X1054Y147D01*
X1054Y149D01*
X1056Y149D01*
X1056Y151D01*
X1058Y151D01*
X1058Y153D01*
X1060Y153D01*
X1060Y155D01*
X1064Y155D01*
X1064Y157D01*
X1066Y157D01*
X1066Y159D01*
X1070Y159D01*
X1070Y161D01*
X1074Y161D01*
X1074Y163D01*
X1078Y163D01*
X1078Y165D01*
X1084Y165D01*
X1084Y167D01*
X1094Y167D01*
X1094Y169D01*
X50Y169D01*
G37*
D02*
G36*
X1110Y169D02*
X1110Y167D01*
X1120Y167D01*
X1120Y165D01*
X1126Y165D01*
X1126Y163D01*
X1130Y163D01*
X1130Y161D01*
X1134Y161D01*
X1134Y159D01*
X1136Y159D01*
X1136Y157D01*
X1140Y157D01*
X1140Y155D01*
X1164Y155D01*
X1164Y157D01*
X1166Y157D01*
X1166Y159D01*
X1170Y159D01*
X1170Y161D01*
X1174Y161D01*
X1174Y163D01*
X1178Y163D01*
X1178Y165D01*
X1184Y165D01*
X1184Y167D01*
X1194Y167D01*
X1194Y169D01*
X1110Y169D01*
G37*
D02*
G36*
X1210Y169D02*
X1210Y167D01*
X1220Y167D01*
X1220Y165D01*
X1226Y165D01*
X1226Y163D01*
X1230Y163D01*
X1230Y161D01*
X1234Y161D01*
X1234Y159D01*
X1236Y159D01*
X1236Y157D01*
X1240Y157D01*
X1240Y155D01*
X1264Y155D01*
X1264Y157D01*
X1266Y157D01*
X1266Y159D01*
X1270Y159D01*
X1270Y161D01*
X1274Y161D01*
X1274Y163D01*
X1278Y163D01*
X1278Y165D01*
X1284Y165D01*
X1284Y167D01*
X1294Y167D01*
X1294Y169D01*
X1210Y169D01*
G37*
D02*
G36*
X1310Y169D02*
X1310Y167D01*
X1320Y167D01*
X1320Y165D01*
X1326Y165D01*
X1326Y163D01*
X1330Y163D01*
X1330Y161D01*
X1334Y161D01*
X1334Y159D01*
X1336Y159D01*
X1336Y157D01*
X1340Y157D01*
X1340Y155D01*
X1364Y155D01*
X1364Y157D01*
X1366Y157D01*
X1366Y159D01*
X1370Y159D01*
X1370Y161D01*
X1374Y161D01*
X1374Y163D01*
X1378Y163D01*
X1378Y165D01*
X1384Y165D01*
X1384Y167D01*
X1394Y167D01*
X1394Y169D01*
X1310Y169D01*
G37*
D02*
G36*
X1694Y2061D02*
X1694Y2041D01*
X1696Y2041D01*
X1696Y2037D01*
X1698Y2037D01*
X1698Y2035D01*
X1700Y2035D01*
X1700Y2031D01*
X1702Y2031D01*
X1702Y2025D01*
X1704Y2025D01*
X1704Y2019D01*
X1706Y2019D01*
X1706Y2005D01*
X1708Y2005D01*
X1708Y2001D01*
X1706Y2001D01*
X1706Y1987D01*
X1704Y1987D01*
X1704Y1981D01*
X1702Y1981D01*
X1702Y1975D01*
X1700Y1975D01*
X1700Y1971D01*
X1698Y1971D01*
X1698Y1969D01*
X1696Y1969D01*
X1696Y1965D01*
X1694Y1965D01*
X1694Y1963D01*
X1692Y1963D01*
X1692Y1961D01*
X1690Y1961D01*
X1690Y1957D01*
X1688Y1957D01*
X1688Y1955D01*
X1684Y1955D01*
X1684Y1953D01*
X1682Y1953D01*
X1682Y1951D01*
X1680Y1951D01*
X1680Y1949D01*
X1676Y1949D01*
X1676Y1947D01*
X1674Y1947D01*
X1674Y1945D01*
X1670Y1945D01*
X1670Y1943D01*
X1666Y1943D01*
X1666Y1941D01*
X1660Y1941D01*
X1660Y1939D01*
X1650Y1939D01*
X1650Y1937D01*
X1756Y1937D01*
X1756Y1957D01*
X1754Y1957D01*
X1754Y1959D01*
X1752Y1959D01*
X1752Y1961D01*
X1750Y1961D01*
X1750Y1963D01*
X1748Y1963D01*
X1748Y1967D01*
X1746Y1967D01*
X1746Y1969D01*
X1744Y1969D01*
X1744Y1973D01*
X1742Y1973D01*
X1742Y1977D01*
X1740Y1977D01*
X1740Y1983D01*
X1738Y1983D01*
X1738Y1991D01*
X1736Y1991D01*
X1736Y2015D01*
X1738Y2015D01*
X1738Y2023D01*
X1740Y2023D01*
X1740Y2029D01*
X1742Y2029D01*
X1742Y2033D01*
X1744Y2033D01*
X1744Y2037D01*
X1746Y2037D01*
X1746Y2039D01*
X1748Y2039D01*
X1748Y2061D01*
X1694Y2061D01*
G37*
D02*
G36*
X980Y1951D02*
X980Y1949D01*
X976Y1949D01*
X976Y1947D01*
X974Y1947D01*
X974Y1945D01*
X970Y1945D01*
X970Y1943D01*
X966Y1943D01*
X966Y1941D01*
X960Y1941D01*
X960Y1939D01*
X950Y1939D01*
X950Y1937D01*
X1032Y1937D01*
X1032Y1939D01*
X1024Y1939D01*
X1024Y1941D01*
X1018Y1941D01*
X1018Y1943D01*
X1012Y1943D01*
X1012Y1945D01*
X1010Y1945D01*
X1010Y1947D01*
X1006Y1947D01*
X1006Y1949D01*
X1004Y1949D01*
X1004Y1951D01*
X980Y1951D01*
G37*
D02*
G36*
X1080Y1951D02*
X1080Y1949D01*
X1076Y1949D01*
X1076Y1947D01*
X1074Y1947D01*
X1074Y1945D01*
X1070Y1945D01*
X1070Y1943D01*
X1066Y1943D01*
X1066Y1941D01*
X1060Y1941D01*
X1060Y1939D01*
X1050Y1939D01*
X1050Y1937D01*
X1132Y1937D01*
X1132Y1939D01*
X1124Y1939D01*
X1124Y1941D01*
X1118Y1941D01*
X1118Y1943D01*
X1112Y1943D01*
X1112Y1945D01*
X1110Y1945D01*
X1110Y1947D01*
X1106Y1947D01*
X1106Y1949D01*
X1104Y1949D01*
X1104Y1951D01*
X1080Y1951D01*
G37*
D02*
G36*
X1180Y1951D02*
X1180Y1949D01*
X1176Y1949D01*
X1176Y1947D01*
X1174Y1947D01*
X1174Y1945D01*
X1170Y1945D01*
X1170Y1943D01*
X1166Y1943D01*
X1166Y1941D01*
X1160Y1941D01*
X1160Y1939D01*
X1150Y1939D01*
X1150Y1937D01*
X1232Y1937D01*
X1232Y1939D01*
X1224Y1939D01*
X1224Y1941D01*
X1218Y1941D01*
X1218Y1943D01*
X1212Y1943D01*
X1212Y1945D01*
X1210Y1945D01*
X1210Y1947D01*
X1206Y1947D01*
X1206Y1949D01*
X1204Y1949D01*
X1204Y1951D01*
X1180Y1951D01*
G37*
D02*
G36*
X1280Y1951D02*
X1280Y1949D01*
X1276Y1949D01*
X1276Y1947D01*
X1274Y1947D01*
X1274Y1945D01*
X1270Y1945D01*
X1270Y1943D01*
X1266Y1943D01*
X1266Y1941D01*
X1260Y1941D01*
X1260Y1939D01*
X1250Y1939D01*
X1250Y1937D01*
X1332Y1937D01*
X1332Y1939D01*
X1324Y1939D01*
X1324Y1941D01*
X1318Y1941D01*
X1318Y1943D01*
X1312Y1943D01*
X1312Y1945D01*
X1310Y1945D01*
X1310Y1947D01*
X1306Y1947D01*
X1306Y1949D01*
X1304Y1949D01*
X1304Y1951D01*
X1280Y1951D01*
G37*
D02*
G36*
X1380Y1951D02*
X1380Y1949D01*
X1376Y1949D01*
X1376Y1947D01*
X1374Y1947D01*
X1374Y1945D01*
X1370Y1945D01*
X1370Y1943D01*
X1366Y1943D01*
X1366Y1941D01*
X1360Y1941D01*
X1360Y1939D01*
X1350Y1939D01*
X1350Y1937D01*
X1432Y1937D01*
X1432Y1939D01*
X1424Y1939D01*
X1424Y1941D01*
X1418Y1941D01*
X1418Y1943D01*
X1412Y1943D01*
X1412Y1945D01*
X1410Y1945D01*
X1410Y1947D01*
X1406Y1947D01*
X1406Y1949D01*
X1404Y1949D01*
X1404Y1951D01*
X1380Y1951D01*
G37*
D02*
G36*
X1480Y1951D02*
X1480Y1949D01*
X1476Y1949D01*
X1476Y1947D01*
X1474Y1947D01*
X1474Y1945D01*
X1470Y1945D01*
X1470Y1943D01*
X1466Y1943D01*
X1466Y1941D01*
X1460Y1941D01*
X1460Y1939D01*
X1450Y1939D01*
X1450Y1937D01*
X1532Y1937D01*
X1532Y1939D01*
X1524Y1939D01*
X1524Y1941D01*
X1518Y1941D01*
X1518Y1943D01*
X1512Y1943D01*
X1512Y1945D01*
X1510Y1945D01*
X1510Y1947D01*
X1506Y1947D01*
X1506Y1949D01*
X1504Y1949D01*
X1504Y1951D01*
X1480Y1951D01*
G37*
D02*
G36*
X1580Y1951D02*
X1580Y1949D01*
X1576Y1949D01*
X1576Y1947D01*
X1574Y1947D01*
X1574Y1945D01*
X1570Y1945D01*
X1570Y1943D01*
X1566Y1943D01*
X1566Y1941D01*
X1560Y1941D01*
X1560Y1939D01*
X1550Y1939D01*
X1550Y1937D01*
X1632Y1937D01*
X1632Y1939D01*
X1624Y1939D01*
X1624Y1941D01*
X1618Y1941D01*
X1618Y1943D01*
X1612Y1943D01*
X1612Y1945D01*
X1610Y1945D01*
X1610Y1947D01*
X1606Y1947D01*
X1606Y1949D01*
X1604Y1949D01*
X1604Y1951D01*
X1580Y1951D01*
G37*
D02*
G36*
X886Y1949D02*
X886Y1937D01*
X932Y1937D01*
X932Y1939D01*
X924Y1939D01*
X924Y1941D01*
X918Y1941D01*
X918Y1943D01*
X912Y1943D01*
X912Y1945D01*
X910Y1945D01*
X910Y1947D01*
X906Y1947D01*
X906Y1949D01*
X886Y1949D01*
G37*
D02*
G36*
X886Y1937D02*
X886Y1935D01*
X1756Y1935D01*
X1756Y1937D01*
X886Y1937D01*
G37*
D02*
G36*
X886Y1937D02*
X886Y1935D01*
X1756Y1935D01*
X1756Y1937D01*
X886Y1937D01*
G37*
D02*
G36*
X886Y1937D02*
X886Y1935D01*
X1756Y1935D01*
X1756Y1937D01*
X886Y1937D01*
G37*
D02*
G36*
X886Y1937D02*
X886Y1935D01*
X1756Y1935D01*
X1756Y1937D01*
X886Y1937D01*
G37*
D02*
G36*
X886Y1937D02*
X886Y1935D01*
X1756Y1935D01*
X1756Y1937D01*
X886Y1937D01*
G37*
D02*
G36*
X886Y1937D02*
X886Y1935D01*
X1756Y1935D01*
X1756Y1937D01*
X886Y1937D01*
G37*
D02*
G36*
X886Y1937D02*
X886Y1935D01*
X1756Y1935D01*
X1756Y1937D01*
X886Y1937D01*
G37*
D02*
G36*
X886Y1937D02*
X886Y1935D01*
X1756Y1935D01*
X1756Y1937D01*
X886Y1937D01*
G37*
D02*
G36*
X886Y1937D02*
X886Y1935D01*
X1756Y1935D01*
X1756Y1937D01*
X886Y1937D01*
G37*
D02*
G36*
X886Y1935D02*
X886Y1875D01*
X1712Y1875D01*
X1712Y1873D01*
X1722Y1873D01*
X1722Y1871D01*
X1728Y1871D01*
X1728Y1869D01*
X1732Y1869D01*
X1732Y1867D01*
X1736Y1867D01*
X1736Y1865D01*
X1756Y1865D01*
X1756Y1935D01*
X886Y1935D01*
G37*
D02*
G36*
X886Y1875D02*
X886Y1731D01*
X1590Y1731D01*
X1590Y1733D01*
X1580Y1733D01*
X1580Y1735D01*
X1576Y1735D01*
X1576Y1737D01*
X1570Y1737D01*
X1570Y1739D01*
X1566Y1739D01*
X1566Y1741D01*
X1564Y1741D01*
X1564Y1743D01*
X1560Y1743D01*
X1560Y1745D01*
X1558Y1745D01*
X1558Y1747D01*
X1556Y1747D01*
X1556Y1749D01*
X1552Y1749D01*
X1552Y1751D01*
X1550Y1751D01*
X1550Y1753D01*
X1548Y1753D01*
X1548Y1757D01*
X1546Y1757D01*
X1546Y1759D01*
X1544Y1759D01*
X1544Y1761D01*
X1542Y1761D01*
X1542Y1765D01*
X1540Y1765D01*
X1540Y1767D01*
X1538Y1767D01*
X1538Y1771D01*
X1536Y1771D01*
X1536Y1775D01*
X1534Y1775D01*
X1534Y1781D01*
X1532Y1781D01*
X1532Y1789D01*
X1530Y1789D01*
X1530Y1817D01*
X1532Y1817D01*
X1532Y1825D01*
X1534Y1825D01*
X1534Y1831D01*
X1536Y1831D01*
X1536Y1835D01*
X1538Y1835D01*
X1538Y1839D01*
X1540Y1839D01*
X1540Y1841D01*
X1542Y1841D01*
X1542Y1845D01*
X1544Y1845D01*
X1544Y1847D01*
X1546Y1847D01*
X1546Y1849D01*
X1548Y1849D01*
X1548Y1853D01*
X1550Y1853D01*
X1550Y1855D01*
X1552Y1855D01*
X1552Y1857D01*
X1556Y1857D01*
X1556Y1859D01*
X1558Y1859D01*
X1558Y1861D01*
X1560Y1861D01*
X1560Y1863D01*
X1564Y1863D01*
X1564Y1865D01*
X1566Y1865D01*
X1566Y1867D01*
X1570Y1867D01*
X1570Y1869D01*
X1576Y1869D01*
X1576Y1871D01*
X1582Y1871D01*
X1582Y1873D01*
X1590Y1873D01*
X1590Y1875D01*
X886Y1875D01*
G37*
D02*
G36*
X1612Y1875D02*
X1612Y1873D01*
X1622Y1873D01*
X1622Y1871D01*
X1628Y1871D01*
X1628Y1869D01*
X1632Y1869D01*
X1632Y1867D01*
X1636Y1867D01*
X1636Y1865D01*
X1640Y1865D01*
X1640Y1863D01*
X1664Y1863D01*
X1664Y1865D01*
X1666Y1865D01*
X1666Y1867D01*
X1670Y1867D01*
X1670Y1869D01*
X1676Y1869D01*
X1676Y1871D01*
X1682Y1871D01*
X1682Y1873D01*
X1690Y1873D01*
X1690Y1875D01*
X1612Y1875D01*
G37*
D02*
G36*
X1622Y1735D02*
X1622Y1733D01*
X1614Y1733D01*
X1614Y1731D01*
X1644Y1731D01*
X1644Y1735D01*
X1622Y1735D01*
G37*
D02*
G36*
X886Y1731D02*
X886Y1729D01*
X1644Y1729D01*
X1644Y1731D01*
X886Y1731D01*
G37*
D02*
G36*
X886Y1731D02*
X886Y1729D01*
X1644Y1729D01*
X1644Y1731D01*
X886Y1731D01*
G37*
D02*
G36*
X886Y1729D02*
X886Y1693D01*
X884Y1693D01*
X884Y1687D01*
X882Y1687D01*
X882Y1683D01*
X880Y1683D01*
X880Y1679D01*
X878Y1679D01*
X878Y1677D01*
X876Y1677D01*
X876Y1675D01*
X874Y1675D01*
X874Y1673D01*
X872Y1673D01*
X872Y1671D01*
X870Y1671D01*
X870Y1669D01*
X868Y1669D01*
X868Y1667D01*
X864Y1667D01*
X864Y1665D01*
X860Y1665D01*
X860Y1663D01*
X856Y1663D01*
X856Y1661D01*
X848Y1661D01*
X848Y1659D01*
X804Y1659D01*
X804Y1639D01*
X806Y1639D01*
X806Y1635D01*
X808Y1635D01*
X808Y1631D01*
X810Y1631D01*
X810Y1623D01*
X812Y1623D01*
X812Y1613D01*
X814Y1613D01*
X814Y1599D01*
X812Y1599D01*
X812Y1589D01*
X810Y1589D01*
X810Y1565D01*
X852Y1565D01*
X852Y1563D01*
X1170Y1563D01*
X1170Y1561D01*
X1488Y1561D01*
X1488Y1559D01*
X1644Y1559D01*
X1644Y1729D01*
X886Y1729D01*
G37*
D02*
G36*
X2040Y1951D02*
X2040Y1949D01*
X2064Y1949D01*
X2064Y1951D01*
X2040Y1951D01*
G37*
D02*
G36*
X2140Y1951D02*
X2140Y1949D01*
X2136Y1949D01*
X2136Y1947D01*
X2134Y1947D01*
X2134Y1945D01*
X2130Y1945D01*
X2130Y1943D01*
X2126Y1943D01*
X2126Y1941D01*
X2120Y1941D01*
X2120Y1939D01*
X2110Y1939D01*
X2110Y1937D01*
X2192Y1937D01*
X2192Y1939D01*
X2184Y1939D01*
X2184Y1941D01*
X2178Y1941D01*
X2178Y1943D01*
X2172Y1943D01*
X2172Y1945D01*
X2170Y1945D01*
X2170Y1947D01*
X2166Y1947D01*
X2166Y1949D01*
X2164Y1949D01*
X2164Y1951D01*
X2140Y1951D01*
G37*
D02*
G36*
X2240Y1951D02*
X2240Y1949D01*
X2236Y1949D01*
X2236Y1947D01*
X2234Y1947D01*
X2234Y1945D01*
X2230Y1945D01*
X2230Y1943D01*
X2226Y1943D01*
X2226Y1941D01*
X2220Y1941D01*
X2220Y1939D01*
X2210Y1939D01*
X2210Y1937D01*
X2292Y1937D01*
X2292Y1939D01*
X2284Y1939D01*
X2284Y1941D01*
X2278Y1941D01*
X2278Y1943D01*
X2272Y1943D01*
X2272Y1945D01*
X2270Y1945D01*
X2270Y1947D01*
X2266Y1947D01*
X2266Y1949D01*
X2264Y1949D01*
X2264Y1951D01*
X2240Y1951D01*
G37*
D02*
G36*
X1946Y1949D02*
X1946Y1937D01*
X1992Y1937D01*
X1992Y1939D01*
X1984Y1939D01*
X1984Y1941D01*
X1978Y1941D01*
X1978Y1943D01*
X1972Y1943D01*
X1972Y1945D01*
X1970Y1945D01*
X1970Y1947D01*
X1966Y1947D01*
X1966Y1949D01*
X1946Y1949D01*
G37*
D02*
G36*
X2036Y1949D02*
X2036Y1947D01*
X2034Y1947D01*
X2034Y1945D01*
X2030Y1945D01*
X2030Y1943D01*
X2026Y1943D01*
X2026Y1941D01*
X2020Y1941D01*
X2020Y1939D01*
X2010Y1939D01*
X2010Y1937D01*
X2092Y1937D01*
X2092Y1939D01*
X2084Y1939D01*
X2084Y1941D01*
X2078Y1941D01*
X2078Y1943D01*
X2072Y1943D01*
X2072Y1945D01*
X2070Y1945D01*
X2070Y1947D01*
X2066Y1947D01*
X2066Y1949D01*
X2036Y1949D01*
G37*
D02*
G36*
X2336Y1949D02*
X2336Y1947D01*
X2334Y1947D01*
X2334Y1945D01*
X2330Y1945D01*
X2330Y1943D01*
X2326Y1943D01*
X2326Y1941D01*
X2320Y1941D01*
X2320Y1939D01*
X2310Y1939D01*
X2310Y1937D01*
X2356Y1937D01*
X2356Y1949D01*
X2336Y1949D01*
G37*
D02*
G36*
X1946Y1937D02*
X1946Y1935D01*
X2356Y1935D01*
X2356Y1937D01*
X1946Y1937D01*
G37*
D02*
G36*
X1946Y1937D02*
X1946Y1935D01*
X2356Y1935D01*
X2356Y1937D01*
X1946Y1937D01*
G37*
D02*
G36*
X1946Y1937D02*
X1946Y1935D01*
X2356Y1935D01*
X2356Y1937D01*
X1946Y1937D01*
G37*
D02*
G36*
X1946Y1937D02*
X1946Y1935D01*
X2356Y1935D01*
X2356Y1937D01*
X1946Y1937D01*
G37*
D02*
G36*
X1946Y1937D02*
X1946Y1935D01*
X2356Y1935D01*
X2356Y1937D01*
X1946Y1937D01*
G37*
D02*
G36*
X1946Y1935D02*
X1946Y1859D01*
X1948Y1859D01*
X1948Y1857D01*
X1950Y1857D01*
X1950Y1855D01*
X1952Y1855D01*
X1952Y1853D01*
X1954Y1853D01*
X1954Y1851D01*
X1956Y1851D01*
X1956Y1849D01*
X1958Y1849D01*
X1958Y1845D01*
X1960Y1845D01*
X1960Y1843D01*
X1962Y1843D01*
X1962Y1839D01*
X1964Y1839D01*
X1964Y1837D01*
X1966Y1837D01*
X1966Y1833D01*
X1968Y1833D01*
X1968Y1827D01*
X1970Y1827D01*
X1970Y1821D01*
X1972Y1821D01*
X1972Y1811D01*
X1974Y1811D01*
X1974Y1795D01*
X1972Y1795D01*
X1972Y1785D01*
X1970Y1785D01*
X1970Y1779D01*
X1968Y1779D01*
X1968Y1773D01*
X1966Y1773D01*
X1966Y1769D01*
X1964Y1769D01*
X1964Y1767D01*
X1962Y1767D01*
X1962Y1763D01*
X1960Y1763D01*
X1960Y1761D01*
X1958Y1761D01*
X1958Y1757D01*
X1956Y1757D01*
X1956Y1755D01*
X1954Y1755D01*
X1954Y1753D01*
X1952Y1753D01*
X1952Y1751D01*
X1950Y1751D01*
X1950Y1749D01*
X1948Y1749D01*
X1948Y1747D01*
X1946Y1747D01*
X1946Y1745D01*
X1942Y1745D01*
X1942Y1743D01*
X1940Y1743D01*
X1940Y1741D01*
X1936Y1741D01*
X1936Y1739D01*
X1932Y1739D01*
X1932Y1737D01*
X1928Y1737D01*
X1928Y1735D01*
X1922Y1735D01*
X1922Y1733D01*
X1914Y1733D01*
X1914Y1731D01*
X2336Y1731D01*
X2336Y1735D01*
X2338Y1735D01*
X2338Y1739D01*
X2340Y1739D01*
X2340Y1741D01*
X2342Y1741D01*
X2342Y1765D01*
X2340Y1765D01*
X2340Y1767D01*
X2338Y1767D01*
X2338Y1771D01*
X2336Y1771D01*
X2336Y1775D01*
X2334Y1775D01*
X2334Y1781D01*
X2332Y1781D01*
X2332Y1789D01*
X2330Y1789D01*
X2330Y1817D01*
X2332Y1817D01*
X2332Y1825D01*
X2334Y1825D01*
X2334Y1831D01*
X2336Y1831D01*
X2336Y1835D01*
X2338Y1835D01*
X2338Y1839D01*
X2340Y1839D01*
X2340Y1841D01*
X2342Y1841D01*
X2342Y1845D01*
X2344Y1845D01*
X2344Y1847D01*
X2346Y1847D01*
X2346Y1849D01*
X2348Y1849D01*
X2348Y1853D01*
X2350Y1853D01*
X2350Y1855D01*
X2352Y1855D01*
X2352Y1857D01*
X2356Y1857D01*
X2356Y1935D01*
X1946Y1935D01*
G37*
D02*
G36*
X1840Y1743D02*
X1840Y1741D01*
X1836Y1741D01*
X1836Y1739D01*
X1832Y1739D01*
X1832Y1737D01*
X1828Y1737D01*
X1828Y1735D01*
X1822Y1735D01*
X1822Y1733D01*
X1814Y1733D01*
X1814Y1731D01*
X1890Y1731D01*
X1890Y1733D01*
X1880Y1733D01*
X1880Y1735D01*
X1876Y1735D01*
X1876Y1737D01*
X1870Y1737D01*
X1870Y1739D01*
X1866Y1739D01*
X1866Y1741D01*
X1864Y1741D01*
X1864Y1743D01*
X1840Y1743D01*
G37*
D02*
G36*
X1758Y1735D02*
X1758Y1731D01*
X1790Y1731D01*
X1790Y1733D01*
X1780Y1733D01*
X1780Y1735D01*
X1758Y1735D01*
G37*
D02*
G36*
X1758Y1731D02*
X1758Y1729D01*
X2334Y1729D01*
X2334Y1731D01*
X1758Y1731D01*
G37*
D02*
G36*
X1758Y1731D02*
X1758Y1729D01*
X2334Y1729D01*
X2334Y1731D01*
X1758Y1731D01*
G37*
D02*
G36*
X1758Y1731D02*
X1758Y1729D01*
X2334Y1729D01*
X2334Y1731D01*
X1758Y1731D01*
G37*
D02*
G36*
X1758Y1729D02*
X1758Y1559D01*
X2334Y1559D01*
X2334Y1581D01*
X2332Y1581D01*
X2332Y1589D01*
X2330Y1589D01*
X2330Y1617D01*
X2332Y1617D01*
X2332Y1625D01*
X2334Y1625D01*
X2334Y1631D01*
X2336Y1631D01*
X2336Y1635D01*
X2338Y1635D01*
X2338Y1639D01*
X2340Y1639D01*
X2340Y1641D01*
X2342Y1641D01*
X2342Y1665D01*
X2340Y1665D01*
X2340Y1667D01*
X2338Y1667D01*
X2338Y1671D01*
X2336Y1671D01*
X2336Y1675D01*
X2334Y1675D01*
X2334Y1681D01*
X2332Y1681D01*
X2332Y1689D01*
X2330Y1689D01*
X2330Y1717D01*
X2332Y1717D01*
X2332Y1725D01*
X2334Y1725D01*
X2334Y1729D01*
X1758Y1729D01*
G37*
D02*
G36*
X2544Y1689D02*
X2544Y1683D01*
X2542Y1683D01*
X2542Y1679D01*
X2540Y1679D01*
X2540Y1677D01*
X2538Y1677D01*
X2538Y1673D01*
X2536Y1673D01*
X2536Y1671D01*
X2534Y1671D01*
X2534Y1669D01*
X2532Y1669D01*
X2532Y1667D01*
X2528Y1667D01*
X2528Y1665D01*
X2526Y1665D01*
X2526Y1663D01*
X2522Y1663D01*
X2522Y1661D01*
X2516Y1661D01*
X2516Y1659D01*
X2508Y1659D01*
X2508Y1657D01*
X2464Y1657D01*
X2464Y1637D01*
X2466Y1637D01*
X2466Y1633D01*
X2468Y1633D01*
X2468Y1627D01*
X2470Y1627D01*
X2470Y1621D01*
X2472Y1621D01*
X2472Y1611D01*
X2474Y1611D01*
X2474Y1595D01*
X2472Y1595D01*
X2472Y1585D01*
X2470Y1585D01*
X2470Y1579D01*
X2468Y1579D01*
X2468Y1573D01*
X2466Y1573D01*
X2466Y1569D01*
X2464Y1569D01*
X2464Y1567D01*
X2462Y1567D01*
X2462Y1563D01*
X2460Y1563D01*
X2460Y1543D01*
X2462Y1543D01*
X2462Y1539D01*
X2464Y1539D01*
X2464Y1537D01*
X2466Y1537D01*
X2466Y1533D01*
X2468Y1533D01*
X2468Y1527D01*
X2470Y1527D01*
X2470Y1521D01*
X2472Y1521D01*
X2472Y1511D01*
X2474Y1511D01*
X2474Y1495D01*
X2472Y1495D01*
X2472Y1485D01*
X2470Y1485D01*
X2470Y1479D01*
X2468Y1479D01*
X2468Y1473D01*
X2466Y1473D01*
X2466Y1469D01*
X2464Y1469D01*
X2464Y1467D01*
X2462Y1467D01*
X2462Y1463D01*
X2460Y1463D01*
X2460Y1461D01*
X2458Y1461D01*
X2458Y1457D01*
X2456Y1457D01*
X2456Y1455D01*
X2454Y1455D01*
X2454Y1453D01*
X2452Y1453D01*
X2452Y1451D01*
X2450Y1451D01*
X2450Y1449D01*
X2448Y1449D01*
X2448Y1447D01*
X2446Y1447D01*
X2446Y1445D01*
X2442Y1445D01*
X2442Y1443D01*
X2440Y1443D01*
X2440Y1441D01*
X2436Y1441D01*
X2436Y1439D01*
X2432Y1439D01*
X2432Y1437D01*
X2428Y1437D01*
X2428Y1435D01*
X2422Y1435D01*
X2422Y1433D01*
X2414Y1433D01*
X2414Y1431D01*
X2664Y1431D01*
X2664Y1455D01*
X2662Y1455D01*
X2662Y1457D01*
X2660Y1457D01*
X2660Y1459D01*
X2658Y1459D01*
X2658Y1461D01*
X2656Y1461D01*
X2656Y1463D01*
X2654Y1463D01*
X2654Y1465D01*
X2652Y1465D01*
X2652Y1467D01*
X2650Y1467D01*
X2650Y1469D01*
X2648Y1469D01*
X2648Y1471D01*
X2646Y1471D01*
X2646Y1473D01*
X2644Y1473D01*
X2644Y1475D01*
X2642Y1475D01*
X2642Y1477D01*
X2640Y1477D01*
X2640Y1479D01*
X2638Y1479D01*
X2638Y1481D01*
X2636Y1481D01*
X2636Y1483D01*
X2634Y1483D01*
X2634Y1485D01*
X2632Y1485D01*
X2632Y1487D01*
X2630Y1487D01*
X2630Y1489D01*
X2628Y1489D01*
X2628Y1491D01*
X2626Y1491D01*
X2626Y1493D01*
X2624Y1493D01*
X2624Y1495D01*
X2622Y1495D01*
X2622Y1497D01*
X2620Y1497D01*
X2620Y1499D01*
X2618Y1499D01*
X2618Y1501D01*
X2616Y1501D01*
X2616Y1503D01*
X2614Y1503D01*
X2614Y1505D01*
X2612Y1505D01*
X2612Y1507D01*
X2610Y1507D01*
X2610Y1509D01*
X2608Y1509D01*
X2608Y1511D01*
X2606Y1511D01*
X2606Y1513D01*
X2604Y1513D01*
X2604Y1515D01*
X2602Y1515D01*
X2602Y1517D01*
X2600Y1517D01*
X2600Y1519D01*
X2598Y1519D01*
X2598Y1521D01*
X2596Y1521D01*
X2596Y1523D01*
X2594Y1523D01*
X2594Y1525D01*
X2592Y1525D01*
X2592Y1527D01*
X2590Y1527D01*
X2590Y1529D01*
X2588Y1529D01*
X2588Y1531D01*
X2586Y1531D01*
X2586Y1533D01*
X2584Y1533D01*
X2584Y1535D01*
X2582Y1535D01*
X2582Y1537D01*
X2580Y1537D01*
X2580Y1539D01*
X2578Y1539D01*
X2578Y1541D01*
X2576Y1541D01*
X2576Y1543D01*
X2574Y1543D01*
X2574Y1545D01*
X2572Y1545D01*
X2572Y1547D01*
X2570Y1547D01*
X2570Y1549D01*
X2568Y1549D01*
X2568Y1551D01*
X2566Y1551D01*
X2566Y1553D01*
X2564Y1553D01*
X2564Y1689D01*
X2544Y1689D01*
G37*
D02*
G36*
X1558Y1445D02*
X1558Y1431D01*
X2390Y1431D01*
X2390Y1433D01*
X2380Y1433D01*
X2380Y1435D01*
X2376Y1435D01*
X2376Y1437D01*
X2370Y1437D01*
X2370Y1439D01*
X2366Y1439D01*
X2366Y1441D01*
X2364Y1441D01*
X2364Y1443D01*
X2360Y1443D01*
X2360Y1445D01*
X1558Y1445D01*
G37*
D02*
G36*
X1558Y1431D02*
X1558Y1429D01*
X2664Y1429D01*
X2664Y1431D01*
X1558Y1431D01*
G37*
D02*
G36*
X1558Y1431D02*
X1558Y1429D01*
X2664Y1429D01*
X2664Y1431D01*
X1558Y1431D01*
G37*
D02*
G36*
X1558Y1429D02*
X1558Y169D01*
X2510Y169D01*
X2510Y167D01*
X2520Y167D01*
X2520Y165D01*
X2526Y165D01*
X2526Y163D01*
X2530Y163D01*
X2530Y161D01*
X2534Y161D01*
X2534Y159D01*
X2536Y159D01*
X2536Y157D01*
X2540Y157D01*
X2540Y155D01*
X2542Y155D01*
X2542Y153D01*
X2544Y153D01*
X2544Y151D01*
X2548Y151D01*
X2548Y149D01*
X2568Y149D01*
X2568Y151D01*
X2570Y151D01*
X2570Y153D01*
X2572Y153D01*
X2572Y155D01*
X2574Y155D01*
X2574Y157D01*
X2576Y157D01*
X2576Y159D01*
X2578Y159D01*
X2578Y161D01*
X2580Y161D01*
X2580Y163D01*
X2582Y163D01*
X2582Y165D01*
X2584Y165D01*
X2584Y167D01*
X2586Y167D01*
X2586Y169D01*
X2588Y169D01*
X2588Y171D01*
X2590Y171D01*
X2590Y173D01*
X2592Y173D01*
X2592Y175D01*
X2594Y175D01*
X2594Y177D01*
X2596Y177D01*
X2596Y179D01*
X2598Y179D01*
X2598Y181D01*
X2600Y181D01*
X2600Y183D01*
X2602Y183D01*
X2602Y185D01*
X2604Y185D01*
X2604Y187D01*
X2606Y187D01*
X2606Y189D01*
X2608Y189D01*
X2608Y191D01*
X2610Y191D01*
X2610Y193D01*
X2612Y193D01*
X2612Y195D01*
X2614Y195D01*
X2614Y197D01*
X2616Y197D01*
X2616Y199D01*
X2618Y199D01*
X2618Y201D01*
X2620Y201D01*
X2620Y203D01*
X2622Y203D01*
X2622Y205D01*
X2624Y205D01*
X2624Y207D01*
X2626Y207D01*
X2626Y209D01*
X2628Y209D01*
X2628Y211D01*
X2630Y211D01*
X2630Y213D01*
X2632Y213D01*
X2632Y215D01*
X2634Y215D01*
X2634Y217D01*
X2636Y217D01*
X2636Y219D01*
X2638Y219D01*
X2638Y221D01*
X2640Y221D01*
X2640Y223D01*
X2642Y223D01*
X2642Y225D01*
X2644Y225D01*
X2644Y227D01*
X2646Y227D01*
X2646Y229D01*
X2648Y229D01*
X2648Y231D01*
X2650Y231D01*
X2650Y233D01*
X2652Y233D01*
X2652Y235D01*
X2654Y235D01*
X2654Y237D01*
X2656Y237D01*
X2656Y239D01*
X2658Y239D01*
X2658Y241D01*
X2660Y241D01*
X2660Y243D01*
X2662Y243D01*
X2662Y245D01*
X2664Y245D01*
X2664Y1429D01*
X1558Y1429D01*
G37*
D02*
G36*
X1558Y169D02*
X1558Y163D01*
X1578Y163D01*
X1578Y165D01*
X1584Y165D01*
X1584Y167D01*
X1594Y167D01*
X1594Y169D01*
X1558Y169D01*
G37*
D02*
G36*
X1610Y169D02*
X1610Y167D01*
X1620Y167D01*
X1620Y165D01*
X1626Y165D01*
X1626Y163D01*
X1630Y163D01*
X1630Y161D01*
X1634Y161D01*
X1634Y159D01*
X1636Y159D01*
X1636Y157D01*
X1640Y157D01*
X1640Y155D01*
X1664Y155D01*
X1664Y157D01*
X1666Y157D01*
X1666Y159D01*
X1670Y159D01*
X1670Y161D01*
X1672Y161D01*
X1672Y163D01*
X1678Y163D01*
X1678Y165D01*
X1684Y165D01*
X1684Y167D01*
X1694Y167D01*
X1694Y169D01*
X1610Y169D01*
G37*
D02*
G36*
X1710Y169D02*
X1710Y167D01*
X1720Y167D01*
X1720Y165D01*
X1726Y165D01*
X1726Y163D01*
X1730Y163D01*
X1730Y161D01*
X1734Y161D01*
X1734Y159D01*
X1736Y159D01*
X1736Y157D01*
X1740Y157D01*
X1740Y155D01*
X1764Y155D01*
X1764Y157D01*
X1766Y157D01*
X1766Y159D01*
X1770Y159D01*
X1770Y161D01*
X1774Y161D01*
X1774Y163D01*
X1778Y163D01*
X1778Y165D01*
X1784Y165D01*
X1784Y167D01*
X1794Y167D01*
X1794Y169D01*
X1710Y169D01*
G37*
D02*
G36*
X1810Y169D02*
X1810Y167D01*
X1820Y167D01*
X1820Y165D01*
X1826Y165D01*
X1826Y163D01*
X1830Y163D01*
X1830Y161D01*
X1834Y161D01*
X1834Y159D01*
X1836Y159D01*
X1836Y157D01*
X1840Y157D01*
X1840Y155D01*
X1842Y155D01*
X1842Y153D01*
X1844Y153D01*
X1844Y151D01*
X1848Y151D01*
X1848Y149D01*
X1850Y149D01*
X1850Y145D01*
X1852Y145D01*
X1852Y143D01*
X1854Y143D01*
X1854Y141D01*
X1856Y141D01*
X1856Y137D01*
X1858Y137D01*
X1858Y135D01*
X1860Y135D01*
X1860Y131D01*
X1862Y131D01*
X1862Y125D01*
X1864Y125D01*
X1864Y119D01*
X1866Y119D01*
X1866Y105D01*
X1868Y105D01*
X1868Y101D01*
X1866Y101D01*
X1866Y87D01*
X1864Y87D01*
X1864Y81D01*
X1862Y81D01*
X1862Y75D01*
X1860Y75D01*
X1860Y71D01*
X1858Y71D01*
X1858Y69D01*
X1856Y69D01*
X1856Y47D01*
X1948Y47D01*
X1948Y67D01*
X1946Y67D01*
X1946Y69D01*
X1944Y69D01*
X1944Y73D01*
X1942Y73D01*
X1942Y77D01*
X1940Y77D01*
X1940Y83D01*
X1938Y83D01*
X1938Y91D01*
X1936Y91D01*
X1936Y115D01*
X1938Y115D01*
X1938Y123D01*
X1940Y123D01*
X1940Y129D01*
X1942Y129D01*
X1942Y133D01*
X1944Y133D01*
X1944Y137D01*
X1946Y137D01*
X1946Y139D01*
X1948Y139D01*
X1948Y143D01*
X1950Y143D01*
X1950Y145D01*
X1952Y145D01*
X1952Y147D01*
X1954Y147D01*
X1954Y149D01*
X1956Y149D01*
X1956Y151D01*
X1958Y151D01*
X1958Y153D01*
X1960Y153D01*
X1960Y155D01*
X1964Y155D01*
X1964Y157D01*
X1966Y157D01*
X1966Y159D01*
X1970Y159D01*
X1970Y161D01*
X1974Y161D01*
X1974Y163D01*
X1978Y163D01*
X1978Y165D01*
X1984Y165D01*
X1984Y167D01*
X1994Y167D01*
X1994Y169D01*
X1810Y169D01*
G37*
D02*
G36*
X2010Y169D02*
X2010Y167D01*
X2020Y167D01*
X2020Y165D01*
X2026Y165D01*
X2026Y163D01*
X2030Y163D01*
X2030Y161D01*
X2034Y161D01*
X2034Y159D01*
X2036Y159D01*
X2036Y157D01*
X2040Y157D01*
X2040Y155D01*
X2064Y155D01*
X2064Y157D01*
X2066Y157D01*
X2066Y159D01*
X2070Y159D01*
X2070Y161D01*
X2074Y161D01*
X2074Y163D01*
X2078Y163D01*
X2078Y165D01*
X2084Y165D01*
X2084Y167D01*
X2094Y167D01*
X2094Y169D01*
X2010Y169D01*
G37*
D02*
G36*
X2110Y169D02*
X2110Y167D01*
X2120Y167D01*
X2120Y165D01*
X2126Y165D01*
X2126Y163D01*
X2130Y163D01*
X2130Y161D01*
X2134Y161D01*
X2134Y159D01*
X2136Y159D01*
X2136Y157D01*
X2140Y157D01*
X2140Y155D01*
X2164Y155D01*
X2164Y157D01*
X2166Y157D01*
X2166Y159D01*
X2170Y159D01*
X2170Y161D01*
X2172Y161D01*
X2172Y163D01*
X2178Y163D01*
X2178Y165D01*
X2184Y165D01*
X2184Y167D01*
X2194Y167D01*
X2194Y169D01*
X2110Y169D01*
G37*
D02*
G36*
X2210Y169D02*
X2210Y167D01*
X2220Y167D01*
X2220Y165D01*
X2226Y165D01*
X2226Y163D01*
X2230Y163D01*
X2230Y161D01*
X2234Y161D01*
X2234Y159D01*
X2236Y159D01*
X2236Y157D01*
X2240Y157D01*
X2240Y155D01*
X2264Y155D01*
X2264Y157D01*
X2266Y157D01*
X2266Y159D01*
X2270Y159D01*
X2270Y161D01*
X2274Y161D01*
X2274Y163D01*
X2278Y163D01*
X2278Y165D01*
X2284Y165D01*
X2284Y167D01*
X2294Y167D01*
X2294Y169D01*
X2210Y169D01*
G37*
D02*
G36*
X2310Y169D02*
X2310Y167D01*
X2320Y167D01*
X2320Y165D01*
X2326Y165D01*
X2326Y163D01*
X2330Y163D01*
X2330Y161D01*
X2334Y161D01*
X2334Y159D01*
X2336Y159D01*
X2336Y157D01*
X2340Y157D01*
X2340Y155D01*
X2364Y155D01*
X2364Y157D01*
X2366Y157D01*
X2366Y159D01*
X2370Y159D01*
X2370Y161D01*
X2374Y161D01*
X2374Y163D01*
X2378Y163D01*
X2378Y165D01*
X2384Y165D01*
X2384Y167D01*
X2394Y167D01*
X2394Y169D01*
X2310Y169D01*
G37*
D02*
G36*
X2410Y169D02*
X2410Y167D01*
X2420Y167D01*
X2420Y165D01*
X2426Y165D01*
X2426Y163D01*
X2430Y163D01*
X2430Y161D01*
X2434Y161D01*
X2434Y159D01*
X2436Y159D01*
X2436Y157D01*
X2440Y157D01*
X2440Y155D01*
X2464Y155D01*
X2464Y157D01*
X2466Y157D01*
X2466Y159D01*
X2470Y159D01*
X2470Y161D01*
X2474Y161D01*
X2474Y163D01*
X2478Y163D01*
X2478Y165D01*
X2484Y165D01*
X2484Y167D01*
X2494Y167D01*
X2494Y169D01*
X2410Y169D01*
G37*
D02*
G36*
X1581Y173D02*
X1620Y173D01*
X1620Y127D01*
X1581Y127D01*
X1581Y173D01*
G37*
D02*
G36*
X1581Y85D02*
X1620Y85D01*
X1620Y47D01*
X1581Y47D01*
X1581Y85D01*
G37*
D02*
G36*
X1681Y173D02*
X1719Y173D01*
X1719Y127D01*
X1681Y127D01*
X1681Y173D01*
G37*
D02*
G36*
X1681Y85D02*
X1719Y85D01*
X1719Y47D01*
X1681Y47D01*
X1681Y85D01*
G37*
D02*
G04 End of Copper0*
M02*