; NON-PLATED HOLES START AT T1
; THROUGH (PLATED) HOLES START AT T100
M48
INCH
T100C0.038000
T101C0.040278
%
T100
X024014Y015047
X007413Y017049
X024014Y018047
X007413Y015081
X019014Y018047
X024014Y017047
X018014Y018047
X017014Y018047
X024014Y016047
X007413Y016065
X016014Y018047
X007413Y018034
T101
X016414Y020034
X012414Y020034
X019014Y020034
X021014Y020034
X012014Y001034
X021014Y001034
X020014Y001034
X023014Y001034
X013414Y020034
X018014Y001034
X013014Y001034
X016014Y001034
X020014Y020034
X025014Y020034
X015014Y001034
X010414Y020034
X011414Y020034
X018014Y020034
X007414Y020034
X024014Y001034
X015414Y020034
X014014Y001034
X017014Y001034
X022014Y001034
X014414Y020034
X008414Y020034
X025014Y001034
X009414Y020034
X011014Y001034
X023014Y020034
X024014Y020034
X022014Y020034
T00
M30
